{"glyphs":{"0":{"ha":758,"x_min":0,"x_max":0,"o":"m 378 140 b 212 449 279 140 212 264 b 378 753 212 633 279 753 b 545 449 479 753 545 633 b 378 140 545 264 479 140 z m 33 449 b 378 -16 33 169 172 -16 b 725 449 586 -16 725 169 b 378 909 725 725 586 909 b 33 449 172 909 33 725 z m 287 449 b 378 332 287 384 326 332 b 466 449 426 332 466 384 b 378 564 466 511 426 564 b 287 449 326 564 287 511 z "},"1":{"ha":758,"x_min":0,"x_max":0,"o":"m 126 0 l 662 0 b 697 35 684 0 697 13 l 697 115 b 662 150 697 138 684 150 l 500 150 b 492 158 495 150 492 153 l 492 861 b 457 896 492 884 480 896 l 369 896 b 324 884 352 896 340 893 b 154 827 277 855 218 835 b 122 788 131 823 120 812 l 134 696 b 173 665 136 672 150 662 b 301 703 215 673 261 684 b 309 698 306 707 309 703 l 309 158 b 302 150 309 153 306 150 l 126 150 b 91 115 104 150 91 138 l 91 35 b 126 0 91 13 104 0 z "},"2":{"ha":758,"x_min":0,"x_max":0,"o":"m 105 207 l 105 35 b 140 0 105 13 117 0 l 636 0 b 672 35 659 0 672 13 l 672 115 b 636 150 672 138 659 150 l 294 150 b 287 158 289 150 287 153 l 287 196 b 418 347 287 246 323 288 l 480 386 b 673 674 633 482 673 538 b 390 913 673 814 567 913 b 105 734 247 913 150 841 b 125 688 96 712 105 697 l 226 648 b 271 668 247 639 263 646 b 394 758 299 725 341 758 b 485 672 452 758 485 722 b 351 492 485 602 466 568 l 290 452 b 105 207 176 375 105 306 z "},"3":{"ha":758,"x_min":0,"x_max":0,"o":"m 362 -16 b 682 288 551 -16 682 105 b 456 554 682 446 567 554 b 461 563 453 554 456 559 l 625 716 b 644 760 638 729 644 742 l 644 860 b 609 895 644 883 631 895 l 152 895 b 116 860 129 895 116 883 l 116 780 b 152 745 116 758 129 745 l 427 745 b 431 736 433 745 436 740 l 212 532 b 207 482 197 516 194 501 l 246 424 b 294 410 258 407 274 403 b 369 426 318 420 342 426 b 491 288 438 426 491 380 b 365 138 491 187 438 138 b 250 217 313 138 275 163 b 206 240 241 239 227 246 l 97 207 b 74 163 76 201 66 184 b 362 -16 119 56 211 -16 z "},"4":{"ha":758,"x_min":0,"x_max":0,"o":"m 479 0 l 581 0 b 616 35 604 0 616 13 l 616 194 b 624 202 616 199 619 202 l 676 202 b 711 237 698 202 711 215 l 711 312 b 676 347 711 335 698 347 l 624 347 b 616 355 619 347 616 350 l 616 861 b 581 896 616 884 604 896 l 455 896 b 412 878 437 896 424 891 b 311 739 379 841 342 790 l 72 347 b 59 303 63 333 59 319 l 59 237 b 95 202 59 215 72 202 l 436 202 b 443 194 441 202 443 199 l 443 35 b 479 0 443 13 456 0 z m 242 356 l 434 682 b 443 679 438 688 443 687 l 443 355 b 436 347 443 350 441 347 l 247 347 b 242 356 242 347 240 351 z "},"5":{"ha":758,"x_min":0,"x_max":0,"o":"m 376 -16 b 693 292 556 -16 693 98 b 409 600 693 508 558 600 b 278 569 354 600 311 588 b 269 574 271 566 269 568 l 284 739 b 293 746 284 742 289 746 l 598 746 b 634 782 621 746 634 759 l 634 861 b 598 896 634 884 621 896 l 183 896 b 146 862 162 896 149 884 l 112 499 b 133 455 111 479 117 466 l 198 405 b 247 404 215 394 230 394 b 381 444 292 429 338 444 b 503 292 447 444 503 403 b 376 138 503 199 456 138 b 259 229 323 138 284 162 b 213 253 250 250 235 260 l 105 217 b 82 173 82 210 74 196 b 376 -16 126 49 229 -16 z "},"6":{"ha":758,"x_min":0,"x_max":0,"o":"m 393 -16 b 712 278 571 -16 712 92 b 426 572 712 457 593 572 b 259 494 374 572 308 551 b 250 497 254 487 249 490 b 410 761 263 694 321 761 b 514 677 463 761 487 741 b 559 654 523 654 538 646 l 672 693 b 692 739 693 701 702 717 b 410 913 639 860 545 913 b 64 400 159 913 64 720 b 393 -16 64 97 202 -16 z m 254 324 b 415 418 299 391 355 418 b 524 278 481 418 524 364 b 394 136 524 184 472 136 b 251 314 306 136 265 194 b 254 324 251 318 253 321 z "},"7":{"ha":758,"x_min":0,"x_max":0,"o":"m 249 0 l 361 0 b 398 34 383 0 396 11 b 670 717 423 303 442 487 b 689 761 684 731 689 744 l 689 861 b 654 896 689 884 677 896 l 139 896 b 104 861 116 896 104 884 l 104 782 b 139 746 104 759 116 746 l 462 746 b 467 737 468 746 471 742 b 213 37 299 539 229 330 b 249 0 212 13 226 0 z "},"8":{"ha":758,"x_min":0,"x_max":0,"o":"m 370 -16 b 706 244 538 -16 706 35 b 537 473 706 354 634 420 b 537 484 532 476 532 481 b 678 682 643 535 678 590 b 386 913 678 842 530 913 b 85 670 226 913 85 832 b 223 456 85 569 134 509 b 223 446 230 453 229 448 b 58 232 122 399 58 332 b 370 -16 58 56 211 -16 z m 237 235 b 360 381 237 297 275 338 b 372 383 365 384 369 384 b 524 240 476 332 524 302 b 375 121 524 152 457 121 b 237 235 297 121 237 165 z m 268 669 b 385 777 268 736 311 777 b 495 678 452 777 495 739 b 395 543 495 631 475 587 b 385 543 391 542 389 542 b 268 669 312 578 268 615 z "},"9":{"ha":758,"x_min":0,"x_max":0,"o":"m 365 917 b 45 622 187 917 45 808 b 332 328 45 443 164 328 b 499 407 384 328 449 350 b 508 403 504 413 509 410 b 347 139 495 206 437 139 b 244 223 294 139 270 159 b 198 246 235 246 220 254 l 86 207 b 66 162 64 199 56 183 b 347 -13 119 40 212 -13 b 693 500 598 -13 693 181 b 365 917 693 803 556 917 z m 234 622 b 364 764 234 716 285 764 b 506 586 452 764 492 706 b 504 576 506 582 505 580 b 342 482 458 509 403 482 b 234 622 277 482 234 537 z "}," ":{"ha":758,"x_min":0,"x_max":0,"o":""}," ":{"ha":758,"x_min":0,"x_max":0,"o":""},"A":{"ha":758,"x_min":0,"x_max":0,"o":"m 221 684 l 40 39 b 71 0 34 15 45 0 l 169 0 b 208 30 189 0 203 9 l 246 176 b 254 182 247 181 250 182 l 499 182 b 506 176 503 182 505 181 l 545 30 b 585 0 551 9 564 0 l 687 0 b 717 39 712 0 723 15 l 534 684 b 458 871 513 760 484 822 b 417 896 448 889 436 896 l 336 896 b 294 871 317 896 303 889 b 221 684 269 822 242 764 z m 284 327 l 370 665 b 380 665 371 673 379 672 l 467 327 b 461 318 468 321 466 318 l 290 318 b 284 327 285 318 283 321 z "},"À":{"ha":758,"x_min":0,"x_max":0,"o":"m 221 684 l 40 39 b 71 0 34 15 45 0 l 169 0 b 208 30 189 0 203 9 l 246 176 b 254 182 247 181 250 182 l 499 182 b 506 176 503 182 505 181 l 545 30 b 585 0 551 9 564 0 l 687 0 b 717 39 712 0 723 15 l 534 684 b 458 871 513 760 484 822 b 417 896 448 889 436 896 l 336 896 b 294 871 317 896 303 889 b 221 684 269 822 242 764 z m 125 1146 l 264 1015 b 308 997 277 1003 290 997 l 426 997 b 447 1040 455 997 466 1018 l 343 1169 b 301 1189 332 1184 318 1189 l 141 1189 b 125 1146 110 1189 101 1169 z m 284 327 l 370 665 b 380 665 371 673 379 672 l 467 327 b 461 318 468 321 466 318 l 290 318 b 284 327 285 318 283 321 z "},"Á":{"ha":758,"x_min":0,"x_max":0,"o":"m 221 684 l 40 39 b 71 0 34 15 45 0 l 169 0 b 208 30 189 0 203 9 l 246 176 b 254 182 247 181 250 182 l 499 182 b 506 176 503 182 505 181 l 545 30 b 585 0 551 9 564 0 l 687 0 b 717 39 712 0 723 15 l 534 684 b 458 871 513 760 484 822 b 417 896 448 889 436 896 l 336 896 b 294 871 317 896 303 889 b 221 684 269 822 242 764 z m 332 997 l 449 997 b 494 1015 467 997 481 1003 l 633 1146 b 616 1189 657 1169 648 1189 l 457 1189 b 414 1169 439 1189 426 1183 l 312 1040 b 332 997 293 1018 303 997 z m 284 327 l 370 665 b 380 665 371 673 379 672 l 467 327 b 461 318 468 321 466 318 l 290 318 b 284 327 285 318 283 321 z "},"Â":{"ha":758,"x_min":0,"x_max":0,"o":"m 221 684 l 40 39 b 71 0 34 15 45 0 l 169 0 b 208 30 189 0 203 9 l 246 176 b 254 182 247 181 250 182 l 499 182 b 506 176 503 182 505 181 l 545 30 b 585 0 551 9 564 0 l 687 0 b 717 39 712 0 723 15 l 534 684 b 458 871 513 760 484 822 b 417 896 448 889 436 896 l 336 896 b 294 871 317 896 303 889 b 221 684 269 822 242 764 z m 174 997 l 271 997 b 314 1015 289 997 302 1001 l 372 1074 b 383 1074 375 1078 380 1078 l 439 1016 b 482 997 452 1003 465 997 l 583 997 b 604 1040 614 997 622 1018 l 477 1189 b 434 1210 466 1203 452 1210 l 324 1210 b 282 1189 307 1210 293 1203 l 154 1040 b 174 997 135 1018 144 997 z m 284 327 l 370 665 b 380 665 371 673 379 672 l 467 327 b 461 318 468 321 466 318 l 290 318 b 284 327 285 318 283 321 z "},"Ã":{"ha":758,"x_min":0,"x_max":0,"o":"m 221 684 l 40 39 b 71 0 34 15 45 0 l 169 0 b 208 30 189 0 203 9 l 246 176 b 254 182 247 181 250 182 l 499 182 b 506 176 503 182 505 181 l 545 30 b 585 0 551 9 564 0 l 687 0 b 717 39 712 0 723 15 l 534 684 b 458 871 513 760 484 822 b 417 896 448 889 436 896 l 336 896 b 294 871 317 896 303 889 b 221 684 269 822 242 764 z m 168 990 l 229 990 b 266 1024 250 990 260 1001 b 304 1058 273 1051 287 1058 b 475 986 343 1058 393 986 b 630 1164 552 986 614 1032 b 596 1202 633 1188 619 1202 l 537 1202 b 499 1167 515 1202 504 1189 b 462 1131 492 1140 480 1131 b 287 1205 424 1131 365 1205 b 134 1028 198 1205 146 1155 b 168 990 131 1004 145 990 z m 284 327 l 370 665 b 380 665 371 673 379 672 l 467 327 b 461 318 468 321 466 318 l 290 318 b 284 327 285 318 283 321 z "},"Ä":{"ha":758,"x_min":0,"x_max":0,"o":"m 221 684 l 40 39 b 71 0 34 15 45 0 l 169 0 b 208 30 189 0 203 9 l 246 176 b 254 182 247 181 250 182 l 499 182 b 506 176 503 182 505 181 l 545 30 b 585 0 551 9 564 0 l 687 0 b 717 39 712 0 723 15 l 534 684 b 458 871 513 760 484 822 b 417 896 448 889 436 896 l 336 896 b 294 871 317 896 303 889 b 221 684 269 822 242 764 z m 122 1091 b 235 977 122 1030 173 977 b 346 1091 294 977 346 1030 b 235 1203 346 1152 294 1203 b 122 1091 173 1203 122 1152 z m 284 327 l 370 665 b 380 665 371 673 379 672 l 467 327 b 461 318 468 321 466 318 l 290 318 b 284 327 285 318 283 321 z m 412 1091 b 524 977 412 1030 462 977 b 635 1091 583 977 635 1030 b 524 1203 635 1152 583 1203 b 412 1091 462 1203 412 1152 z "},"Å":{"ha":758,"x_min":0,"x_max":0,"o":"m 221 684 l 40 39 b 71 0 34 15 45 0 l 169 0 b 208 30 189 0 203 9 l 246 176 b 254 182 247 181 250 182 l 499 182 b 506 176 503 182 505 181 l 545 30 b 585 0 551 9 564 0 l 687 0 b 717 39 712 0 723 15 l 534 684 b 458 871 513 760 484 822 b 417 896 448 889 436 896 l 336 896 b 294 871 317 896 303 889 b 221 684 269 822 242 764 z m 216 1117 b 379 970 216 1034 289 970 b 542 1117 468 970 542 1035 b 379 1265 542 1201 468 1265 b 216 1117 289 1265 216 1201 z m 284 327 l 370 665 b 380 665 371 673 379 672 l 467 327 b 461 318 468 321 466 318 l 290 318 b 284 327 285 318 283 321 z m 323 1117 b 379 1173 323 1149 348 1173 b 434 1117 409 1173 434 1148 b 379 1063 434 1087 409 1063 b 323 1117 348 1063 323 1087 z "},"Ā":{"ha":758,"x_min":0,"x_max":0,"o":"m 221 684 l 40 39 b 71 0 34 15 45 0 l 169 0 b 208 30 189 0 203 9 l 246 176 b 254 182 247 181 250 182 l 499 182 b 506 176 503 182 505 181 l 545 30 b 585 0 551 9 564 0 l 687 0 b 717 39 712 0 723 15 l 534 684 b 458 871 513 760 484 822 b 417 896 448 889 436 896 l 336 896 b 294 871 317 896 303 889 b 221 684 269 822 242 764 z m 203 997 l 554 997 b 590 1033 577 997 590 1010 l 590 1115 b 554 1150 590 1138 577 1150 l 203 1150 b 168 1115 181 1150 168 1138 l 168 1033 b 203 997 168 1010 181 997 z m 284 327 l 370 665 b 380 665 371 673 379 672 l 467 327 b 461 318 468 321 466 318 l 290 318 b 284 327 285 318 283 321 z "},"Ă":{"ha":758,"x_min":0,"x_max":0,"o":"m 221 684 l 40 39 b 71 0 34 15 45 0 l 169 0 b 208 30 189 0 203 9 l 246 176 b 254 182 247 181 250 182 l 499 182 b 506 176 503 182 505 181 l 545 30 b 585 0 551 9 564 0 l 687 0 b 717 39 712 0 723 15 l 534 684 b 458 871 513 760 484 822 b 417 896 448 889 436 896 l 336 896 b 294 871 317 896 303 889 b 221 684 269 822 242 764 z m 153 1149 b 378 977 181 1028 279 977 b 605 1149 476 977 574 1028 b 572 1188 610 1173 596 1188 l 496 1188 b 457 1158 476 1188 466 1178 b 379 1120 443 1130 417 1120 b 299 1157 340 1120 312 1130 b 261 1188 290 1177 282 1188 l 184 1188 b 153 1149 160 1188 146 1174 z m 284 327 l 370 665 b 380 665 371 673 379 672 l 467 327 b 461 318 468 321 466 318 l 290 318 b 284 327 285 318 283 321 z "},"Ą":{"ha":758,"x_min":0,"x_max":0,"o":"m 221 684 l 40 39 b 71 0 34 15 45 0 l 169 0 b 208 30 189 0 203 9 l 246 176 b 254 182 247 181 250 182 l 499 182 b 506 176 503 182 505 181 l 545 30 b 572 1 549 13 558 4 b 574 -8 578 0 580 -3 b 473 -202 516 -57 473 -128 b 619 -338 473 -298 539 -338 b 706 -323 652 -338 679 -333 b 731 -280 726 -316 732 -301 l 726 -227 b 686 -207 723 -201 711 -198 b 663 -211 678 -210 670 -211 b 628 -165 643 -211 628 -197 b 706 -20 628 -126 646 -78 b 721 28 721 -5 726 8 l 534 684 b 458 871 513 760 484 822 b 417 896 448 889 436 896 l 336 896 b 294 871 317 896 303 889 b 221 684 269 822 242 764 z m 284 327 l 370 665 b 380 665 371 673 379 672 l 467 327 b 461 318 468 321 466 318 l 290 318 b 284 327 285 318 283 321 z "},"Ǻ":{"ha":758,"x_min":0,"x_max":0,"o":"m 357 1207 l 426 1207 b 470 1223 443 1207 456 1211 l 563 1308 b 545 1351 587 1330 577 1351 l 452 1351 b 408 1331 434 1351 419 1345 l 337 1250 b 357 1207 317 1226 327 1207 z m 71 0 l 169 0 b 208 30 189 0 203 9 l 246 176 b 254 182 247 181 250 182 l 499 182 b 506 176 503 182 505 181 l 545 30 b 585 0 551 9 564 0 l 687 0 b 717 39 712 0 723 15 l 534 684 b 458 871 513 760 484 822 b 417 896 448 889 436 896 l 336 896 b 294 871 317 896 303 889 b 221 684 269 822 242 764 l 40 39 b 71 0 34 15 45 0 z m 244 1056 b 383 929 244 985 306 929 b 521 1056 460 929 521 985 b 383 1179 521 1125 460 1179 b 244 1056 306 1179 244 1125 z m 284 327 l 370 665 b 380 665 371 673 379 672 l 467 327 b 461 318 468 321 466 318 l 290 318 b 284 327 285 318 283 321 z m 340 1056 b 383 1097 340 1080 359 1097 b 426 1056 407 1097 426 1078 b 383 1013 426 1032 407 1013 b 340 1056 359 1013 340 1030 z "},"B":{"ha":758,"x_min":0,"x_max":0,"o":"m 135 0 l 399 0 b 706 237 600 0 706 77 b 539 470 706 356 641 442 b 539 477 533 472 533 475 b 673 658 629 504 673 562 b 396 896 673 813 573 896 l 135 896 b 100 861 112 896 100 884 l 100 35 b 135 0 100 13 112 0 z m 284 148 l 284 376 b 292 384 284 381 288 384 l 379 384 b 515 247 473 384 515 343 b 378 140 515 170 472 140 l 292 140 b 284 148 287 140 284 144 z m 284 527 l 284 749 b 292 756 284 754 287 756 l 366 756 b 482 648 446 756 482 726 b 384 519 482 569 453 519 l 292 519 b 284 527 287 519 284 521 z "},"C":{"ha":758,"x_min":0,"x_max":0,"o":"m 395 -16 b 696 222 537 -16 641 67 b 674 273 705 249 696 266 l 561 304 b 518 278 539 311 524 302 b 395 140 486 170 439 140 b 249 449 311 140 249 250 b 395 758 249 648 311 758 b 513 609 446 758 487 710 b 556 581 519 585 533 574 l 673 610 b 697 654 696 615 705 631 b 395 913 644 814 558 913 b 62 449 184 913 62 774 b 395 -16 62 135 187 -16 z "},"Ç":{"ha":758,"x_min":0,"x_max":0,"o":"m 372 -365 b 544 -217 461 -365 544 -328 b 409 -74 544 -129 495 -82 b 404 -64 403 -73 402 -69 l 427 -20 b 436 -14 428 -16 431 -15 b 698 229 558 0 650 85 b 674 273 706 251 696 266 l 561 304 b 518 278 539 311 524 302 b 395 140 486 170 439 140 b 249 449 311 140 249 250 b 395 758 249 648 311 758 b 513 609 446 758 487 710 b 556 581 519 585 533 574 l 673 610 b 697 654 696 615 705 631 b 395 913 644 814 558 913 b 62 449 184 913 62 774 b 314 -9 62 178 154 28 b 319 -18 319 -10 322 -14 l 285 -82 b 282 -129 278 -97 277 -112 l 283 -135 b 326 -162 289 -154 303 -163 b 413 -211 394 -160 413 -177 b 370 -254 413 -236 399 -254 b 313 -240 354 -254 333 -249 b 268 -260 290 -231 275 -237 l 253 -306 b 273 -351 245 -327 251 -343 b 372 -365 302 -360 335 -365 z "},"Ć":{"ha":758,"x_min":0,"x_max":0,"o":"m 395 -16 b 696 222 537 -16 641 67 b 674 273 705 249 696 266 l 561 304 b 518 278 539 311 524 302 b 395 140 486 170 439 140 b 249 449 311 140 249 250 b 395 758 249 648 311 758 b 513 609 446 758 487 710 b 556 581 519 585 533 574 l 673 610 b 697 654 696 615 705 631 b 395 913 644 814 558 913 b 62 449 184 913 62 774 b 395 -16 62 135 187 -16 z m 346 997 l 463 997 b 508 1015 481 997 495 1003 l 646 1146 b 630 1189 670 1169 662 1189 l 471 1189 b 428 1169 453 1189 439 1183 l 326 1040 b 346 997 307 1018 317 997 z "},"Ĉ":{"ha":758,"x_min":0,"x_max":0,"o":"m 395 -16 b 696 222 537 -16 641 67 b 674 273 705 249 696 266 l 561 304 b 518 278 539 311 524 302 b 395 140 486 170 439 140 b 249 449 311 140 249 250 b 395 758 249 648 311 758 b 513 609 446 758 487 710 b 556 581 519 585 533 574 l 673 610 b 697 654 696 615 705 631 b 395 913 644 814 558 913 b 62 449 184 913 62 774 b 395 -16 62 135 187 -16 z m 188 997 l 285 997 b 328 1015 303 997 316 1001 l 386 1074 b 396 1074 389 1078 394 1078 l 453 1016 b 496 997 466 1003 479 997 l 597 997 b 617 1040 628 997 636 1018 l 491 1189 b 448 1210 480 1203 466 1210 l 338 1210 b 295 1189 321 1210 307 1203 l 168 1040 b 188 997 149 1018 158 997 z "},"Ċ":{"ha":758,"x_min":0,"x_max":0,"o":"m 395 -16 b 696 222 537 -16 641 67 b 674 273 705 249 696 266 l 561 304 b 518 278 539 311 524 302 b 395 140 486 170 439 140 b 249 449 311 140 249 250 b 395 758 249 648 311 758 b 513 609 446 758 487 710 b 556 581 519 585 533 574 l 673 610 b 697 654 696 615 705 631 b 395 913 644 814 558 913 b 62 449 184 913 62 774 b 395 -16 62 135 187 -16 z m 282 1091 b 394 977 282 1030 332 977 b 505 1091 453 977 505 1030 b 394 1203 505 1152 453 1203 b 282 1091 332 1203 282 1152 z "},"Č":{"ha":758,"x_min":0,"x_max":0,"o":"m 395 -16 b 696 222 537 -16 641 67 b 674 273 705 249 696 266 l 561 304 b 518 278 539 311 524 302 b 395 140 486 170 439 140 b 249 449 311 140 249 250 b 395 758 249 648 311 758 b 513 609 446 758 487 710 b 556 581 519 585 533 574 l 673 610 b 697 654 696 615 705 631 b 395 913 644 814 558 913 b 62 449 184 913 62 774 b 395 -16 62 135 187 -16 z m 168 1164 l 294 1015 b 337 995 306 1001 319 995 l 447 995 b 490 1015 465 995 479 1001 l 617 1164 b 597 1207 636 1187 628 1207 l 500 1207 b 457 1189 482 1207 470 1203 l 399 1130 b 389 1130 396 1126 391 1126 l 332 1188 b 289 1207 319 1202 307 1207 l 188 1207 b 168 1164 158 1207 149 1187 z "},"D":{"ha":758,"x_min":0,"x_max":0,"o":"m 136 0 l 357 0 b 710 448 571 0 710 138 b 357 896 710 760 571 896 l 136 896 b 101 861 114 896 101 884 l 101 35 b 136 0 101 13 114 0 z m 284 158 l 284 739 b 292 746 284 744 287 746 l 340 746 b 518 448 453 746 518 660 b 340 150 518 235 453 150 l 292 150 b 284 158 287 150 284 154 z "},"Ď":{"ha":758,"x_min":0,"x_max":0,"o":"m 136 0 l 357 0 b 710 448 571 0 710 138 b 357 896 710 760 571 896 l 136 896 b 101 861 114 896 101 884 l 101 35 b 136 0 101 13 114 0 z m 144 1164 l 270 1015 b 313 995 282 1001 295 995 l 423 995 b 466 1015 441 995 455 1001 l 593 1164 b 573 1207 612 1187 604 1207 l 476 1207 b 433 1189 458 1207 446 1203 l 375 1130 b 365 1130 372 1126 367 1126 l 308 1188 b 265 1207 295 1202 283 1207 l 164 1207 b 144 1164 134 1207 125 1187 z m 284 158 l 284 739 b 292 746 284 744 287 746 l 340 746 b 518 448 453 746 518 660 b 340 150 518 235 453 150 l 292 150 b 284 158 287 150 284 154 z "},"E":{"ha":758,"x_min":0,"x_max":0,"o":"m 136 0 l 634 0 b 669 35 657 0 669 13 l 669 116 b 634 152 669 139 657 152 l 292 152 b 284 159 287 152 284 155 l 284 376 b 292 384 284 381 287 384 l 577 384 b 612 419 600 384 612 396 l 612 500 b 577 535 612 523 600 535 l 292 535 b 284 543 287 535 284 538 l 284 737 b 292 745 284 742 287 745 l 634 745 b 669 780 657 745 669 758 l 669 861 b 634 896 669 884 657 896 l 136 896 b 101 861 114 896 101 884 l 101 35 b 136 0 101 13 114 0 z "},"È":{"ha":758,"x_min":0,"x_max":0,"o":"m 136 0 l 634 0 b 669 35 657 0 669 13 l 669 116 b 634 152 669 139 657 152 l 292 152 b 284 159 287 152 284 155 l 284 376 b 292 384 284 381 287 384 l 577 384 b 612 419 600 384 612 396 l 612 500 b 577 535 612 523 600 535 l 292 535 b 284 543 287 535 284 538 l 284 737 b 292 745 284 742 287 745 l 634 745 b 669 780 657 745 669 758 l 669 861 b 634 896 669 884 657 896 l 136 896 b 101 861 114 896 101 884 l 101 35 b 136 0 101 13 114 0 z m 133 1146 l 271 1015 b 316 997 284 1003 298 997 l 433 997 b 455 1040 462 997 473 1018 l 351 1169 b 308 1189 340 1184 326 1189 l 149 1189 b 133 1146 117 1189 109 1169 z "},"É":{"ha":758,"x_min":0,"x_max":0,"o":"m 136 0 l 634 0 b 669 35 657 0 669 13 l 669 116 b 634 152 669 139 657 152 l 292 152 b 284 159 287 152 284 155 l 284 376 b 292 384 284 381 287 384 l 577 384 b 612 419 600 384 612 396 l 612 500 b 577 535 612 523 600 535 l 292 535 b 284 543 287 535 284 538 l 284 737 b 292 745 284 742 287 745 l 634 745 b 669 780 657 745 669 758 l 669 861 b 634 896 669 884 657 896 l 136 896 b 101 861 114 896 101 884 l 101 35 b 136 0 101 13 114 0 z m 340 997 l 457 997 b 501 1015 475 997 489 1003 l 640 1146 b 624 1189 664 1169 655 1189 l 465 1189 b 422 1169 447 1189 433 1183 l 319 1040 b 340 997 301 1018 311 997 z "},"Ê":{"ha":758,"x_min":0,"x_max":0,"o":"m 136 0 l 634 0 b 669 35 657 0 669 13 l 669 116 b 634 152 669 139 657 152 l 292 152 b 284 159 287 152 284 155 l 284 376 b 292 384 284 381 287 384 l 577 384 b 612 419 600 384 612 396 l 612 500 b 577 535 612 523 600 535 l 292 535 b 284 543 287 535 284 538 l 284 737 b 292 745 284 742 287 745 l 634 745 b 669 780 657 745 669 758 l 669 861 b 634 896 669 884 657 896 l 136 896 b 101 861 114 896 101 884 l 101 35 b 136 0 101 13 114 0 z m 182 997 l 279 997 b 322 1015 297 997 309 1001 l 380 1074 b 390 1074 383 1078 388 1078 l 447 1016 b 490 997 460 1003 472 997 l 591 997 b 611 1040 621 997 630 1018 l 485 1189 b 442 1210 473 1203 460 1210 l 332 1210 b 289 1189 314 1210 301 1203 l 162 1040 b 182 997 143 1018 152 997 z "},"Ë":{"ha":758,"x_min":0,"x_max":0,"o":"m 136 0 l 634 0 b 669 35 657 0 669 13 l 669 116 b 634 152 669 139 657 152 l 292 152 b 284 159 287 152 284 155 l 284 376 b 292 384 284 381 287 384 l 577 384 b 612 419 600 384 612 396 l 612 500 b 577 535 612 523 600 535 l 292 535 b 284 543 287 535 284 538 l 284 737 b 292 745 284 742 287 745 l 634 745 b 669 780 657 745 669 758 l 669 861 b 634 896 669 884 657 896 l 136 896 b 101 861 114 896 101 884 l 101 35 b 136 0 101 13 114 0 z m 130 1091 b 242 977 130 1030 181 977 b 354 1091 302 977 354 1030 b 242 1203 354 1152 302 1203 b 130 1091 181 1203 130 1152 z m 419 1091 b 532 977 419 1030 470 977 b 643 1091 591 977 643 1030 b 532 1203 643 1152 591 1203 b 419 1091 470 1203 419 1152 z "},"Ē":{"ha":758,"x_min":0,"x_max":0,"o":"m 136 0 l 634 0 b 669 35 657 0 669 13 l 669 116 b 634 152 669 139 657 152 l 292 152 b 284 159 287 152 284 155 l 284 376 b 292 384 284 381 287 384 l 577 384 b 612 419 600 384 612 396 l 612 500 b 577 535 612 523 600 535 l 292 535 b 284 543 287 535 284 538 l 284 737 b 292 745 284 742 287 745 l 634 745 b 669 780 657 745 669 758 l 669 861 b 634 896 669 884 657 896 l 136 896 b 101 861 114 896 101 884 l 101 35 b 136 0 101 13 114 0 z m 211 997 l 562 997 b 597 1033 585 997 597 1010 l 597 1115 b 562 1150 597 1138 585 1150 l 211 1150 b 176 1115 188 1150 176 1138 l 176 1033 b 211 997 176 1010 188 997 z "},"Ĕ":{"ha":758,"x_min":0,"x_max":0,"o":"m 136 0 l 634 0 b 669 35 657 0 669 13 l 669 116 b 634 152 669 139 657 152 l 292 152 b 284 159 287 152 284 155 l 284 376 b 292 384 284 381 287 384 l 577 384 b 612 419 600 384 612 396 l 612 500 b 577 535 612 523 600 535 l 292 535 b 284 543 287 535 284 538 l 284 737 b 292 745 284 742 287 745 l 634 745 b 669 780 657 745 669 758 l 669 861 b 634 896 669 884 657 896 l 136 896 b 101 861 114 896 101 884 l 101 35 b 136 0 101 13 114 0 z m 160 1149 b 385 977 188 1028 287 977 b 612 1149 484 977 582 1028 b 580 1188 617 1173 604 1188 l 504 1188 b 465 1158 484 1188 473 1178 b 386 1120 451 1130 424 1120 b 307 1157 347 1120 319 1130 b 269 1188 298 1177 289 1188 l 192 1188 b 160 1149 168 1188 154 1174 z "},"Ė":{"ha":758,"x_min":0,"x_max":0,"o":"m 136 0 l 634 0 b 669 35 657 0 669 13 l 669 116 b 634 152 669 139 657 152 l 292 152 b 284 159 287 152 284 155 l 284 376 b 292 384 284 381 287 384 l 577 384 b 612 419 600 384 612 396 l 612 500 b 577 535 612 523 600 535 l 292 535 b 284 543 287 535 284 538 l 284 737 b 292 745 284 742 287 745 l 634 745 b 669 780 657 745 669 758 l 669 861 b 634 896 669 884 657 896 l 136 896 b 101 861 114 896 101 884 l 101 35 b 136 0 101 13 114 0 z m 275 1091 b 388 977 275 1030 326 977 b 499 1091 447 977 499 1030 b 388 1203 499 1152 447 1203 b 275 1091 326 1203 275 1152 z "},"Ę":{"ha":758,"x_min":0,"x_max":0,"o":"m 136 0 l 528 0 b 530 -9 534 0 537 -5 b 419 -202 468 -58 419 -128 b 566 -338 419 -298 486 -338 b 653 -323 598 -338 626 -333 b 678 -280 673 -316 679 -301 l 673 -227 b 633 -207 670 -201 658 -198 b 610 -211 625 -210 617 -211 b 574 -165 590 -211 574 -197 b 650 -19 574 -126 592 -77 b 669 25 663 -5 669 8 l 669 116 b 634 152 669 139 657 152 l 292 152 b 284 159 287 152 284 155 l 284 376 b 292 384 284 381 287 384 l 577 384 b 612 419 600 384 612 396 l 612 500 b 577 535 612 523 600 535 l 292 535 b 284 543 287 535 284 538 l 284 737 b 292 745 284 742 287 745 l 634 745 b 669 780 657 745 669 758 l 669 861 b 634 896 669 884 657 896 l 136 896 b 101 861 114 896 101 884 l 101 35 b 136 0 101 13 114 0 z "},"Ě":{"ha":758,"x_min":0,"x_max":0,"o":"m 136 0 l 634 0 b 669 35 657 0 669 13 l 669 116 b 634 152 669 139 657 152 l 292 152 b 284 159 287 152 284 155 l 284 376 b 292 384 284 381 287 384 l 577 384 b 612 419 600 384 612 396 l 612 500 b 577 535 612 523 600 535 l 292 535 b 284 543 287 535 284 538 l 284 737 b 292 745 284 742 287 745 l 634 745 b 669 780 657 745 669 758 l 669 861 b 634 896 669 884 657 896 l 136 896 b 101 861 114 896 101 884 l 101 35 b 136 0 101 13 114 0 z m 162 1164 l 288 1015 b 331 995 299 1001 313 995 l 441 995 b 484 1015 458 995 472 1001 l 611 1164 b 591 1207 630 1187 621 1207 l 494 1207 b 451 1189 476 1207 463 1203 l 393 1130 b 383 1130 390 1126 385 1126 l 326 1188 b 283 1207 313 1202 301 1207 l 182 1207 b 162 1164 152 1207 143 1187 z "},"F":{"ha":758,"x_min":0,"x_max":0,"o":"m 136 0 l 249 0 b 284 35 271 0 284 13 l 284 351 b 292 359 284 356 288 359 l 597 359 b 633 394 620 359 633 371 l 633 475 b 597 510 633 497 620 510 l 292 510 b 284 518 287 510 284 513 l 284 737 b 292 745 284 742 287 745 l 638 745 b 673 780 660 745 673 758 l 673 861 b 638 896 673 884 660 896 l 136 896 b 101 861 114 896 101 884 l 101 35 b 136 0 101 13 114 0 z "},"G":{"ha":758,"x_min":0,"x_max":0,"o":"m 389 -16 b 717 360 602 -16 717 107 l 717 428 b 682 463 717 451 705 463 l 405 463 b 370 428 383 463 370 451 l 370 346 b 405 311 370 323 383 311 l 527 311 b 534 303 532 311 534 308 b 389 140 528 199 495 140 b 234 449 289 140 234 264 b 388 758 234 635 292 758 b 511 614 448 758 485 710 b 554 587 518 591 533 581 l 681 621 b 705 665 703 628 712 643 b 388 913 650 816 561 913 b 42 449 170 913 42 755 b 389 -16 42 153 172 -16 z "},"Ĝ":{"ha":758,"x_min":0,"x_max":0,"o":"m 389 -16 b 717 360 602 -16 717 107 l 717 428 b 682 463 717 451 705 463 l 405 463 b 370 428 383 463 370 451 l 370 346 b 405 311 370 323 383 311 l 527 311 b 534 303 532 311 534 308 b 389 140 528 199 495 140 b 234 449 289 140 234 264 b 388 758 234 635 292 758 b 511 614 448 758 485 710 b 554 587 518 591 533 581 l 681 621 b 705 665 703 628 712 643 b 388 913 650 816 561 913 b 42 449 170 913 42 755 b 389 -16 42 153 172 -16 z m 183 997 l 280 997 b 323 1015 298 997 311 1001 l 381 1074 b 391 1074 384 1078 389 1078 l 448 1016 b 491 997 461 1003 473 997 l 592 997 b 612 1040 622 997 631 1018 l 486 1189 b 443 1210 475 1203 461 1210 l 333 1210 b 290 1189 316 1210 302 1203 l 163 1040 b 183 997 144 1018 153 997 z "},"Ğ":{"ha":758,"x_min":0,"x_max":0,"o":"m 389 -16 b 717 360 602 -16 717 107 l 717 428 b 682 463 717 451 705 463 l 405 463 b 370 428 383 463 370 451 l 370 346 b 405 311 370 323 383 311 l 527 311 b 534 303 532 311 534 308 b 389 140 528 199 495 140 b 234 449 289 140 234 264 b 388 758 234 635 292 758 b 511 614 448 758 485 710 b 554 587 518 591 533 581 l 681 621 b 705 665 703 628 712 643 b 388 913 650 816 561 913 b 42 449 170 913 42 755 b 389 -16 42 153 172 -16 z m 162 1149 b 386 977 189 1028 288 977 b 614 1149 485 977 583 1028 b 581 1188 619 1173 605 1188 l 505 1188 b 466 1158 485 1188 475 1178 b 388 1120 452 1130 426 1120 b 308 1157 348 1120 321 1130 b 270 1188 299 1177 290 1188 l 193 1188 b 162 1149 169 1188 155 1174 z "},"Ġ":{"ha":758,"x_min":0,"x_max":0,"o":"m 389 -16 b 717 360 602 -16 717 107 l 717 428 b 682 463 717 451 705 463 l 405 463 b 370 428 383 463 370 451 l 370 346 b 405 311 370 323 383 311 l 527 311 b 534 303 532 311 534 308 b 389 140 528 199 495 140 b 234 449 289 140 234 264 b 388 758 234 635 292 758 b 511 614 448 758 485 710 b 554 587 518 591 533 581 l 681 621 b 705 665 703 628 712 643 b 388 913 650 816 561 913 b 42 449 170 913 42 755 b 389 -16 42 153 172 -16 z m 277 1091 b 389 977 277 1030 327 977 b 500 1091 448 977 500 1030 b 389 1203 500 1152 448 1203 b 277 1091 327 1203 277 1152 z "},"Ģ":{"ha":758,"x_min":0,"x_max":0,"o":"m 389 -16 b 717 360 602 -16 717 107 l 717 428 b 682 463 717 451 705 463 l 405 463 b 370 428 383 463 370 451 l 370 346 b 405 311 370 323 383 311 l 527 311 b 534 303 532 311 534 308 b 389 140 528 199 495 140 b 234 449 289 140 234 264 b 388 758 234 635 292 758 b 511 614 448 758 485 710 b 554 587 518 591 533 581 l 681 621 b 705 665 703 628 712 643 b 388 913 650 816 561 913 b 42 449 170 913 42 755 b 389 -16 42 153 172 -16 z m 274 -452 l 304 -481 b 355 -481 321 -497 338 -497 b 495 -215 455 -383 495 -311 b 385 -90 495 -135 443 -90 b 277 -196 324 -90 277 -131 b 343 -288 277 -232 298 -277 b 348 -297 348 -289 350 -292 b 274 -402 333 -333 309 -366 b 274 -452 258 -418 258 -436 z "},"H":{"ha":758,"x_min":0,"x_max":0,"o":"m 527 0 l 639 0 b 674 35 662 0 674 13 l 674 861 b 639 896 674 884 662 896 l 527 896 b 491 861 504 896 491 884 l 491 538 b 484 530 491 533 489 530 l 274 530 b 266 538 269 530 266 533 l 266 861 b 231 896 266 884 254 896 l 119 896 b 83 861 96 896 83 884 l 83 35 b 119 0 83 13 96 0 l 231 0 b 266 35 254 0 266 13 l 266 370 b 274 378 266 375 269 378 l 484 378 b 491 370 489 378 491 375 l 491 35 b 527 0 491 13 504 0 z "},"Ĥ":{"ha":758,"x_min":0,"x_max":0,"o":"m 527 0 l 639 0 b 674 35 662 0 674 13 l 674 861 b 639 896 674 884 662 896 l 527 896 b 491 861 504 896 491 884 l 491 538 b 484 530 491 533 489 530 l 274 530 b 266 538 269 530 266 533 l 266 861 b 231 896 266 884 254 896 l 119 896 b 83 861 96 896 83 884 l 83 35 b 119 0 83 13 96 0 l 231 0 b 266 35 254 0 266 13 l 266 370 b 274 378 266 375 269 378 l 484 378 b 491 370 489 378 491 375 l 491 35 b 527 0 491 13 504 0 z m 174 997 l 271 997 b 314 1015 289 997 302 1001 l 372 1074 b 383 1074 375 1078 380 1078 l 439 1016 b 482 997 452 1003 465 997 l 583 997 b 604 1040 614 997 622 1018 l 477 1189 b 434 1210 466 1203 452 1210 l 324 1210 b 282 1189 307 1210 293 1203 l 154 1040 b 174 997 135 1018 144 997 z "},"I":{"ha":758,"x_min":0,"x_max":0,"o":"m 120 0 l 639 0 b 674 35 662 0 674 13 l 674 107 b 639 143 674 130 662 143 l 479 143 b 471 150 473 143 471 145 l 471 746 b 479 754 471 751 475 754 l 639 754 b 674 789 662 754 674 766 l 674 861 b 639 896 674 884 662 896 l 120 896 b 85 861 97 896 85 884 l 85 789 b 120 754 85 766 97 754 l 280 754 b 288 746 285 754 288 751 l 288 150 b 280 143 288 145 284 143 l 120 143 b 85 107 97 143 85 130 l 85 35 b 120 0 85 13 97 0 z "},"Ì":{"ha":758,"x_min":0,"x_max":0,"o":"m 120 0 l 639 0 b 674 35 662 0 674 13 l 674 107 b 639 143 674 130 662 143 l 479 143 b 471 150 473 143 471 145 l 471 746 b 479 754 471 751 475 754 l 639 754 b 674 789 662 754 674 766 l 674 861 b 639 896 674 884 662 896 l 120 896 b 85 861 97 896 85 884 l 85 789 b 120 754 85 766 97 754 l 280 754 b 288 746 285 754 288 751 l 288 150 b 280 143 288 145 284 143 l 120 143 b 85 107 97 143 85 130 l 85 35 b 120 0 85 13 97 0 z m 125 1146 l 264 1015 b 308 997 277 1003 290 997 l 426 997 b 447 1040 455 997 466 1018 l 343 1169 b 301 1189 332 1184 318 1189 l 141 1189 b 125 1146 110 1189 101 1169 z "},"Í":{"ha":758,"x_min":0,"x_max":0,"o":"m 120 0 l 639 0 b 674 35 662 0 674 13 l 674 107 b 639 143 674 130 662 143 l 479 143 b 471 150 473 143 471 145 l 471 746 b 479 754 471 751 475 754 l 639 754 b 674 789 662 754 674 766 l 674 861 b 639 896 674 884 662 896 l 120 896 b 85 861 97 896 85 884 l 85 789 b 120 754 85 766 97 754 l 280 754 b 288 746 285 754 288 751 l 288 150 b 280 143 288 145 284 143 l 120 143 b 85 107 97 143 85 130 l 85 35 b 120 0 85 13 97 0 z m 332 997 l 449 997 b 494 1015 467 997 481 1003 l 633 1146 b 616 1189 657 1169 648 1189 l 457 1189 b 414 1169 439 1189 426 1183 l 312 1040 b 332 997 293 1018 303 997 z "},"Î":{"ha":758,"x_min":0,"x_max":0,"o":"m 120 0 l 639 0 b 674 35 662 0 674 13 l 674 107 b 639 143 674 130 662 143 l 479 143 b 471 150 473 143 471 145 l 471 746 b 479 754 471 751 475 754 l 639 754 b 674 789 662 754 674 766 l 674 861 b 639 896 674 884 662 896 l 120 896 b 85 861 97 896 85 884 l 85 789 b 120 754 85 766 97 754 l 280 754 b 288 746 285 754 288 751 l 288 150 b 280 143 288 145 284 143 l 120 143 b 85 107 97 143 85 130 l 85 35 b 120 0 85 13 97 0 z m 174 997 l 271 997 b 314 1015 289 997 302 1001 l 372 1074 b 383 1074 375 1078 380 1078 l 439 1016 b 482 997 452 1003 465 997 l 583 997 b 604 1040 614 997 622 1018 l 477 1189 b 434 1210 466 1203 452 1210 l 324 1210 b 282 1189 307 1210 293 1203 l 154 1040 b 174 997 135 1018 144 997 z "},"Ï":{"ha":758,"x_min":0,"x_max":0,"o":"m 120 0 l 639 0 b 674 35 662 0 674 13 l 674 107 b 639 143 674 130 662 143 l 479 143 b 471 150 473 143 471 145 l 471 746 b 479 754 471 751 475 754 l 639 754 b 674 789 662 754 674 766 l 674 861 b 639 896 674 884 662 896 l 120 896 b 85 861 97 896 85 884 l 85 789 b 120 754 85 766 97 754 l 280 754 b 288 746 285 754 288 751 l 288 150 b 280 143 288 145 284 143 l 120 143 b 85 107 97 143 85 130 l 85 35 b 120 0 85 13 97 0 z m 122 1091 b 235 977 122 1030 173 977 b 346 1091 294 977 346 1030 b 235 1203 346 1152 294 1203 b 122 1091 173 1203 122 1152 z m 412 1091 b 524 977 412 1030 462 977 b 635 1091 583 977 635 1030 b 524 1203 635 1152 583 1203 b 412 1091 462 1203 412 1152 z "},"Ĩ":{"ha":758,"x_min":0,"x_max":0,"o":"m 120 0 l 639 0 b 674 35 662 0 674 13 l 674 107 b 639 143 674 130 662 143 l 479 143 b 471 150 473 143 471 145 l 471 746 b 479 754 471 751 475 754 l 639 754 b 674 789 662 754 674 766 l 674 861 b 639 896 674 884 662 896 l 120 896 b 85 861 97 896 85 884 l 85 789 b 120 754 85 766 97 754 l 280 754 b 288 746 285 754 288 751 l 288 150 b 280 143 288 145 284 143 l 120 143 b 85 107 97 143 85 130 l 85 35 b 120 0 85 13 97 0 z m 168 990 l 229 990 b 266 1024 250 990 260 1001 b 304 1058 273 1051 287 1058 b 475 986 343 1058 393 986 b 630 1164 552 986 614 1032 b 596 1202 633 1188 619 1202 l 537 1202 b 499 1167 515 1202 504 1189 b 462 1131 492 1140 480 1131 b 287 1205 424 1131 365 1205 b 134 1028 198 1205 146 1155 b 168 990 131 1004 145 990 z "},"Ī":{"ha":758,"x_min":0,"x_max":0,"o":"m 120 0 l 639 0 b 674 35 662 0 674 13 l 674 107 b 639 143 674 130 662 143 l 479 143 b 471 150 473 143 471 145 l 471 746 b 479 754 471 751 475 754 l 639 754 b 674 789 662 754 674 766 l 674 861 b 639 896 674 884 662 896 l 120 896 b 85 861 97 896 85 884 l 85 789 b 120 754 85 766 97 754 l 280 754 b 288 746 285 754 288 751 l 288 150 b 280 143 288 145 284 143 l 120 143 b 85 107 97 143 85 130 l 85 35 b 120 0 85 13 97 0 z m 203 997 l 554 997 b 590 1033 577 997 590 1010 l 590 1115 b 554 1150 590 1138 577 1150 l 203 1150 b 168 1115 181 1150 168 1138 l 168 1033 b 203 997 168 1010 181 997 z "},"Ĭ":{"ha":758,"x_min":0,"x_max":0,"o":"m 120 0 l 639 0 b 674 35 662 0 674 13 l 674 107 b 639 143 674 130 662 143 l 479 143 b 471 150 473 143 471 145 l 471 746 b 479 754 471 751 475 754 l 639 754 b 674 789 662 754 674 766 l 674 861 b 639 896 674 884 662 896 l 120 896 b 85 861 97 896 85 884 l 85 789 b 120 754 85 766 97 754 l 280 754 b 288 746 285 754 288 751 l 288 150 b 280 143 288 145 284 143 l 120 143 b 85 107 97 143 85 130 l 85 35 b 120 0 85 13 97 0 z m 153 1149 b 378 977 181 1028 279 977 b 605 1149 476 977 574 1028 b 572 1188 610 1173 596 1188 l 496 1188 b 457 1158 476 1188 466 1178 b 379 1120 443 1130 417 1120 b 299 1157 340 1120 312 1130 b 261 1188 290 1177 282 1188 l 184 1188 b 153 1149 160 1188 146 1174 z "},"Į":{"ha":758,"x_min":0,"x_max":0,"o":"m 120 0 l 307 0 b 311 -9 313 0 316 -4 b 222 -202 259 -62 222 -130 b 367 -338 222 -298 289 -338 b 456 -323 400 -338 429 -333 b 481 -280 476 -316 482 -301 l 476 -227 b 436 -207 473 -201 461 -198 b 413 -211 428 -210 420 -211 b 376 -165 391 -211 376 -197 b 448 -4 376 -122 394 -68 b 457 0 451 -1 453 0 l 639 0 b 674 35 662 0 674 13 l 674 107 b 639 143 674 130 662 143 l 479 143 b 471 150 473 143 471 145 l 471 746 b 479 754 471 751 475 754 l 639 754 b 674 789 662 754 674 766 l 674 861 b 639 896 674 884 662 896 l 120 896 b 85 861 97 896 85 884 l 85 789 b 120 754 85 766 97 754 l 280 754 b 288 746 285 754 288 751 l 288 150 b 280 143 288 145 284 143 l 120 143 b 85 107 97 143 85 130 l 85 35 b 120 0 85 13 97 0 z "},"İ":{"ha":758,"x_min":0,"x_max":0,"o":"m 120 0 l 639 0 b 674 35 662 0 674 13 l 674 107 b 639 143 674 130 662 143 l 479 143 b 471 150 473 143 471 145 l 471 746 b 479 754 471 751 475 754 l 639 754 b 674 789 662 754 674 766 l 674 861 b 639 896 674 884 662 896 l 120 896 b 85 861 97 896 85 884 l 85 789 b 120 754 85 766 97 754 l 280 754 b 288 746 285 754 288 751 l 288 150 b 280 143 288 145 284 143 l 120 143 b 85 107 97 143 85 130 l 85 35 b 120 0 85 13 97 0 z m 268 1091 b 380 977 268 1030 318 977 b 491 1091 439 977 491 1030 b 380 1203 491 1152 439 1203 b 268 1091 318 1203 268 1152 z "},"J":{"ha":758,"x_min":0,"x_max":0,"o":"m 360 -16 b 672 311 562 -16 672 107 l 672 861 b 636 896 672 884 659 896 l 524 896 b 489 861 501 896 489 884 l 489 316 b 360 140 489 211 443 140 b 236 355 297 140 250 198 b 197 388 234 379 221 391 l 82 372 b 49 333 61 370 48 357 b 360 -16 67 91 186 -16 z "},"Ĵ":{"ha":758,"x_min":0,"x_max":0,"o":"m 360 -16 b 672 311 562 -16 672 107 l 672 861 b 636 896 672 884 659 896 l 524 896 b 489 861 501 896 489 884 l 489 316 b 360 140 489 211 443 140 b 236 355 297 140 250 198 b 197 388 234 379 221 391 l 82 372 b 49 333 61 370 48 357 b 360 -16 67 91 186 -16 z m 378 997 l 475 997 b 518 1015 492 997 505 1001 l 576 1074 b 586 1074 578 1078 583 1078 l 643 1016 b 686 997 655 1003 668 997 l 787 997 b 807 1040 817 997 826 1018 l 681 1189 b 638 1210 669 1203 655 1210 l 528 1210 b 485 1189 510 1210 496 1203 l 357 1040 b 378 997 338 1018 347 997 z "},"K":{"ha":758,"x_min":0,"x_max":0,"o":"m 128 0 l 240 0 b 275 35 263 0 275 13 l 275 255 b 278 264 275 259 277 261 l 356 374 b 367 374 359 378 365 379 l 549 25 b 591 0 558 8 572 0 l 720 0 b 745 42 747 0 758 16 l 482 542 b 484 552 481 545 481 549 l 699 854 b 677 896 716 878 706 896 l 558 896 b 515 874 539 896 525 889 l 284 539 b 275 542 280 533 275 535 l 275 861 b 240 896 275 884 263 896 l 128 896 b 92 861 105 896 92 884 l 92 35 b 128 0 92 13 105 0 z "},"Ķ":{"ha":758,"x_min":0,"x_max":0,"o":"m 128 0 l 240 0 b 275 35 263 0 275 13 l 275 255 b 278 264 275 259 277 261 l 356 374 b 367 374 359 378 365 379 l 549 25 b 591 0 558 8 572 0 l 720 0 b 745 42 747 0 758 16 l 482 542 b 484 552 481 545 481 549 l 699 854 b 677 896 716 878 706 896 l 558 896 b 515 874 539 896 525 889 l 284 539 b 275 542 280 533 275 535 l 275 861 b 240 896 275 884 263 896 l 128 896 b 92 861 105 896 92 884 l 92 35 b 128 0 92 13 105 0 z m 287 -452 l 317 -481 b 367 -481 333 -497 351 -497 b 508 -215 467 -383 508 -311 b 398 -90 508 -135 456 -90 b 289 -196 337 -90 289 -131 b 356 -288 289 -232 311 -277 b 361 -297 361 -289 362 -292 b 287 -402 346 -333 322 -366 b 287 -452 270 -418 270 -436 z "},"L":{"ha":758,"x_min":0,"x_max":0,"o":"m 157 0 l 653 0 b 688 35 676 0 688 13 l 688 116 b 653 152 688 139 676 152 l 312 152 b 304 159 307 152 304 154 l 304 861 b 269 896 304 884 292 896 l 157 896 b 121 861 134 896 121 884 l 121 35 b 157 0 121 13 134 0 z "},"Ĺ":{"ha":758,"x_min":0,"x_max":0,"o":"m 157 0 l 653 0 b 688 35 676 0 688 13 l 688 116 b 653 152 688 139 676 152 l 312 152 b 304 159 307 152 304 154 l 304 861 b 269 896 304 884 292 896 l 157 896 b 121 861 134 896 121 884 l 121 35 b 157 0 121 13 134 0 z m 173 997 l 290 997 b 335 1015 308 997 322 1003 l 473 1146 b 457 1189 497 1169 489 1189 l 298 1189 b 255 1169 280 1189 266 1183 l 153 1040 b 173 997 134 1018 144 997 z "},"Ļ":{"ha":758,"x_min":0,"x_max":0,"o":"m 157 0 l 653 0 b 688 35 676 0 688 13 l 688 116 b 653 152 688 139 676 152 l 312 152 b 304 159 307 152 304 154 l 304 861 b 269 896 304 884 292 896 l 157 896 b 121 861 134 896 121 884 l 121 35 b 157 0 121 13 134 0 z m 323 -452 l 354 -481 b 404 -481 370 -497 388 -497 b 544 -215 504 -383 544 -311 b 434 -90 544 -135 492 -90 b 326 -196 374 -90 326 -131 b 393 -288 326 -232 347 -277 b 398 -297 398 -289 399 -292 b 323 -402 383 -333 359 -366 b 323 -452 307 -418 307 -436 z "},"Ľ":{"ha":758,"x_min":0,"x_max":0,"o":"m 157 0 l 653 0 b 688 35 676 0 688 13 l 688 116 b 653 152 688 139 676 152 l 312 152 b 304 159 307 152 304 154 l 304 861 b 269 896 304 884 292 896 l 157 896 b 121 861 134 896 121 884 l 121 35 b 157 0 121 13 134 0 z m 475 654 l 566 654 b 602 687 587 654 600 664 l 624 860 b 591 898 626 883 615 898 l 475 898 b 439 862 452 898 439 885 l 439 689 b 475 654 439 667 452 654 z "},"M":{"ha":758,"x_min":0,"x_max":0,"o":"m 96 0 l 181 0 b 216 35 203 0 216 13 l 216 529 b 225 530 216 535 222 538 l 290 332 b 328 237 301 303 316 268 b 369 211 336 220 348 211 l 385 211 b 426 237 405 211 418 218 b 462 331 438 265 451 298 l 528 532 b 537 530 530 539 537 537 l 537 35 b 572 0 537 13 549 0 l 662 0 b 697 35 684 0 697 13 l 697 861 b 662 896 697 884 684 896 l 572 896 b 529 874 553 896 539 890 b 482 764 510 840 496 803 l 386 479 b 376 479 384 471 379 471 l 280 769 b 237 874 265 816 251 848 b 194 896 227 890 213 896 l 96 896 b 61 861 73 896 61 884 l 61 35 b 96 0 61 13 73 0 z "},"N":{"ha":758,"x_min":0,"x_max":0,"o":"m 116 0 l 202 0 b 237 35 225 0 237 13 l 237 561 b 246 562 237 568 244 568 l 427 158 b 500 21 452 101 473 59 b 543 0 511 6 524 0 l 641 0 b 677 35 664 0 677 13 l 677 861 b 641 896 677 884 664 896 l 556 896 b 520 861 533 896 520 884 l 520 341 b 511 340 520 333 514 332 l 324 763 b 263 876 304 811 283 850 b 220 896 251 891 237 896 l 116 896 b 81 861 93 896 81 884 l 81 35 b 116 0 81 13 93 0 z "},"Ñ":{"ha":758,"x_min":0,"x_max":0,"o":"m 116 0 l 202 0 b 237 35 225 0 237 13 l 237 561 b 246 562 237 568 244 568 l 427 158 b 500 21 452 101 473 59 b 543 0 511 6 524 0 l 641 0 b 677 35 664 0 677 13 l 677 861 b 641 896 677 884 664 896 l 556 896 b 520 861 533 896 520 884 l 520 341 b 511 340 520 333 514 332 l 324 763 b 263 876 304 811 283 850 b 220 896 251 891 237 896 l 116 896 b 81 861 93 896 81 884 l 81 35 b 116 0 81 13 93 0 z m 176 990 l 236 990 b 274 1024 258 990 268 1001 b 312 1058 280 1051 294 1058 b 482 986 351 1058 400 986 b 638 1164 559 986 621 1032 b 604 1202 640 1188 626 1202 l 544 1202 b 506 1167 523 1202 511 1189 b 470 1131 500 1140 487 1131 b 294 1205 432 1131 372 1205 b 141 1028 206 1205 154 1155 b 176 990 139 1004 153 990 z "},"Ń":{"ha":758,"x_min":0,"x_max":0,"o":"m 116 0 l 202 0 b 237 35 225 0 237 13 l 237 561 b 246 562 237 568 244 568 l 427 158 b 500 21 452 101 473 59 b 543 0 511 6 524 0 l 641 0 b 677 35 664 0 677 13 l 677 861 b 641 896 677 884 664 896 l 556 896 b 520 861 533 896 520 884 l 520 341 b 511 340 520 333 514 332 l 324 763 b 263 876 304 811 283 850 b 220 896 251 891 237 896 l 116 896 b 81 861 93 896 81 884 l 81 35 b 116 0 81 13 93 0 z m 340 997 l 457 997 b 501 1015 475 997 489 1003 l 640 1146 b 624 1189 664 1169 655 1189 l 465 1189 b 422 1169 447 1189 433 1183 l 319 1040 b 340 997 301 1018 311 997 z "},"Ņ":{"ha":758,"x_min":0,"x_max":0,"o":"m 116 0 l 202 0 b 237 35 225 0 237 13 l 237 561 b 246 562 237 568 244 568 l 427 158 b 500 21 452 101 473 59 b 543 0 511 6 524 0 l 641 0 b 677 35 664 0 677 13 l 677 861 b 641 896 677 884 664 896 l 556 896 b 520 861 533 896 520 884 l 520 341 b 511 340 520 333 514 332 l 324 763 b 263 876 304 811 283 850 b 220 896 251 891 237 896 l 116 896 b 81 861 93 896 81 884 l 81 35 b 116 0 81 13 93 0 z m 277 -452 l 307 -481 b 357 -481 323 -497 341 -497 b 497 -215 457 -383 497 -311 b 388 -90 497 -135 446 -90 b 279 -196 327 -90 279 -131 b 346 -288 279 -232 301 -277 b 351 -297 351 -289 352 -292 b 277 -402 336 -333 312 -366 b 277 -452 260 -418 260 -436 z "},"Ň":{"ha":758,"x_min":0,"x_max":0,"o":"m 116 0 l 202 0 b 237 35 225 0 237 13 l 237 561 b 246 562 237 568 244 568 l 427 158 b 500 21 452 101 473 59 b 543 0 511 6 524 0 l 641 0 b 677 35 664 0 677 13 l 677 861 b 641 896 677 884 664 896 l 556 896 b 520 861 533 896 520 884 l 520 341 b 511 340 520 333 514 332 l 324 763 b 263 876 304 811 283 850 b 220 896 251 891 237 896 l 116 896 b 81 861 93 896 81 884 l 81 35 b 116 0 81 13 93 0 z m 162 1164 l 288 1015 b 331 995 299 1001 313 995 l 441 995 b 484 1015 458 995 472 1001 l 611 1164 b 591 1207 630 1187 621 1207 l 494 1207 b 451 1189 476 1207 463 1203 l 393 1130 b 383 1130 390 1126 385 1126 l 326 1188 b 283 1207 313 1202 301 1207 l 182 1207 b 162 1164 152 1207 143 1187 z "},"O":{"ha":758,"x_min":0,"x_max":0,"o":"m 378 140 b 229 449 282 140 229 264 b 378 758 229 635 282 758 b 529 449 476 758 529 635 b 378 140 529 264 476 140 z m 38 449 b 378 -16 38 169 165 -16 b 720 449 592 -16 720 169 b 378 913 720 727 592 913 b 38 449 165 913 38 727 z "},"Ò":{"ha":758,"x_min":0,"x_max":0,"o":"m 378 140 b 229 449 282 140 229 264 b 378 758 229 635 282 758 b 529 449 476 758 529 635 b 378 140 529 264 476 140 z m 38 449 b 378 -16 38 169 165 -16 b 720 449 592 -16 720 169 b 378 913 720 727 592 913 b 38 449 165 913 38 727 z m 125 1146 l 264 1015 b 308 997 277 1003 290 997 l 426 997 b 447 1040 455 997 466 1018 l 343 1169 b 301 1189 332 1184 318 1189 l 141 1189 b 125 1146 110 1189 101 1169 z "},"Ó":{"ha":758,"x_min":0,"x_max":0,"o":"m 378 140 b 229 449 282 140 229 264 b 378 758 229 635 282 758 b 529 449 476 758 529 635 b 378 140 529 264 476 140 z m 38 449 b 378 -16 38 169 165 -16 b 720 449 592 -16 720 169 b 378 913 720 727 592 913 b 38 449 165 913 38 727 z m 332 997 l 449 997 b 494 1015 467 997 481 1003 l 633 1146 b 616 1189 657 1169 648 1189 l 457 1189 b 414 1169 439 1189 426 1183 l 312 1040 b 332 997 293 1018 303 997 z "},"Ô":{"ha":758,"x_min":0,"x_max":0,"o":"m 378 140 b 229 449 282 140 229 264 b 378 758 229 635 282 758 b 529 449 476 758 529 635 b 378 140 529 264 476 140 z m 38 449 b 378 -16 38 169 165 -16 b 720 449 592 -16 720 169 b 378 913 720 727 592 913 b 38 449 165 913 38 727 z m 174 997 l 271 997 b 314 1015 289 997 302 1001 l 372 1074 b 383 1074 375 1078 380 1078 l 439 1016 b 482 997 452 1003 465 997 l 583 997 b 604 1040 614 997 622 1018 l 477 1189 b 434 1210 466 1203 452 1210 l 324 1210 b 282 1189 307 1210 293 1203 l 154 1040 b 174 997 135 1018 144 997 z "},"Õ":{"ha":758,"x_min":0,"x_max":0,"o":"m 378 140 b 229 449 282 140 229 264 b 378 758 229 635 282 758 b 529 449 476 758 529 635 b 378 140 529 264 476 140 z m 38 449 b 378 -16 38 169 165 -16 b 720 449 592 -16 720 169 b 378 913 720 727 592 913 b 38 449 165 913 38 727 z m 168 990 l 229 990 b 266 1024 250 990 260 1001 b 304 1058 273 1051 287 1058 b 475 986 343 1058 393 986 b 630 1164 552 986 614 1032 b 596 1202 633 1188 619 1202 l 537 1202 b 499 1167 515 1202 504 1189 b 462 1131 492 1140 480 1131 b 287 1205 424 1131 365 1205 b 134 1028 198 1205 146 1155 b 168 990 131 1004 145 990 z "},"Ö":{"ha":758,"x_min":0,"x_max":0,"o":"m 378 140 b 229 449 282 140 229 264 b 378 758 229 635 282 758 b 529 449 476 758 529 635 b 378 140 529 264 476 140 z m 38 449 b 378 -16 38 169 165 -16 b 720 449 592 -16 720 169 b 378 913 720 727 592 913 b 38 449 165 913 38 727 z m 122 1091 b 235 977 122 1030 173 977 b 346 1091 294 977 346 1030 b 235 1203 346 1152 294 1203 b 122 1091 173 1203 122 1152 z m 412 1091 b 524 977 412 1030 462 977 b 635 1091 583 977 635 1030 b 524 1203 635 1152 583 1203 b 412 1091 462 1203 412 1152 z "},"Ō":{"ha":758,"x_min":0,"x_max":0,"o":"m 378 140 b 229 449 282 140 229 264 b 378 758 229 635 282 758 b 529 449 476 758 529 635 b 378 140 529 264 476 140 z m 38 449 b 378 -16 38 169 165 -16 b 720 449 592 -16 720 169 b 378 913 720 727 592 913 b 38 449 165 913 38 727 z m 203 997 l 554 997 b 590 1033 577 997 590 1010 l 590 1115 b 554 1150 590 1138 577 1150 l 203 1150 b 168 1115 181 1150 168 1138 l 168 1033 b 203 997 168 1010 181 997 z "},"Ŏ":{"ha":758,"x_min":0,"x_max":0,"o":"m 378 140 b 229 449 282 140 229 264 b 378 758 229 635 282 758 b 529 449 476 758 529 635 b 378 140 529 264 476 140 z m 38 449 b 378 -16 38 169 165 -16 b 720 449 592 -16 720 169 b 378 913 720 727 592 913 b 38 449 165 913 38 727 z m 153 1149 b 378 977 181 1028 279 977 b 605 1149 476 977 574 1028 b 572 1188 610 1173 596 1188 l 496 1188 b 457 1158 476 1188 466 1178 b 379 1120 443 1130 417 1120 b 299 1157 340 1120 312 1130 b 261 1188 290 1177 282 1188 l 184 1188 b 153 1149 160 1188 146 1174 z "},"Ő":{"ha":758,"x_min":0,"x_max":0,"o":"m 378 140 b 229 449 282 140 229 264 b 378 758 229 635 282 758 b 529 449 476 758 529 635 b 378 140 529 264 476 140 z m 38 449 b 378 -16 38 169 165 -16 b 720 449 592 -16 720 169 b 378 913 720 727 592 913 b 38 449 165 913 38 727 z m 181 997 l 283 997 b 326 1018 301 997 314 1004 l 432 1146 b 412 1189 451 1170 442 1189 l 271 1189 b 230 1165 253 1189 240 1183 l 157 1040 b 181 997 143 1016 153 997 z m 476 997 l 576 997 b 619 1016 593 997 606 1004 l 742 1146 b 723 1189 764 1169 754 1189 l 586 1189 b 544 1168 567 1189 554 1183 l 453 1040 b 476 997 437 1016 447 997 z "},"P":{"ha":758,"x_min":0,"x_max":0,"o":"m 136 0 l 249 0 b 284 35 271 0 284 13 l 284 306 b 292 313 284 311 287 313 l 414 313 b 711 606 605 313 711 404 b 414 896 711 807 605 896 l 136 896 b 101 861 114 896 101 884 l 101 35 b 136 0 101 13 114 0 z m 284 472 l 284 739 b 292 746 284 744 288 746 l 396 746 b 518 606 481 746 518 706 b 396 465 518 504 481 465 l 292 465 b 284 472 287 465 284 468 z "},"Q":{"ha":758,"x_min":0,"x_max":0,"o":"m 495 -258 b 635 -237 549 -258 595 -251 b 655 -197 653 -232 659 -218 l 638 -100 b 593 -77 634 -76 617 -69 b 521 -88 571 -85 547 -88 b 444 -27 471 -88 444 -68 l 444 -16 b 451 -9 444 -13 447 -10 b 720 449 621 30 720 203 b 378 913 720 727 592 913 b 38 449 165 913 38 727 b 302 -8 38 205 135 32 b 308 -16 306 -9 308 -11 b 307 -49 307 -27 307 -37 b 495 -258 307 -202 395 -258 z m 229 449 b 378 758 229 635 282 758 b 529 449 476 758 529 635 b 378 140 529 264 476 140 b 229 449 282 140 229 264 z "},"R":{"ha":758,"x_min":0,"x_max":0,"o":"m 136 0 l 249 0 b 284 35 271 0 284 13 l 284 340 b 292 347 284 345 288 347 l 380 347 b 389 341 384 347 388 345 l 528 27 b 568 0 535 8 548 0 l 688 0 b 715 42 715 0 726 16 l 631 218 b 553 366 605 277 577 327 b 556 375 549 370 551 374 b 691 621 644 414 691 494 b 395 896 691 813 586 896 l 136 896 b 101 861 114 896 101 884 l 101 35 b 136 0 101 13 114 0 z m 284 505 l 284 739 b 292 746 284 744 288 746 l 378 746 b 500 621 462 746 500 711 b 378 497 500 534 462 497 l 292 497 b 284 505 287 497 284 501 z "},"Ŕ":{"ha":758,"x_min":0,"x_max":0,"o":"m 136 0 l 249 0 b 284 35 271 0 284 13 l 284 340 b 292 347 284 345 288 347 l 380 347 b 389 341 384 347 388 345 l 528 27 b 568 0 535 8 548 0 l 688 0 b 715 42 715 0 726 16 l 631 218 b 553 366 605 277 577 327 b 556 375 549 370 551 374 b 691 621 644 414 691 494 b 395 896 691 813 586 896 l 136 896 b 101 861 114 896 101 884 l 101 35 b 136 0 101 13 114 0 z m 330 997 l 447 997 b 491 1015 465 997 479 1003 l 630 1146 b 614 1189 654 1169 645 1189 l 455 1189 b 412 1169 437 1189 423 1183 l 309 1040 b 330 997 290 1018 301 997 z m 284 505 l 284 739 b 292 746 284 744 288 746 l 378 746 b 500 621 462 746 500 711 b 378 497 500 534 462 497 l 292 497 b 284 505 287 497 284 501 z "},"Ŗ":{"ha":758,"x_min":0,"x_max":0,"o":"m 136 0 l 249 0 b 284 35 271 0 284 13 l 284 340 b 292 347 284 345 288 347 l 380 347 b 389 341 384 347 388 345 l 528 27 b 568 0 535 8 548 0 l 688 0 b 715 42 715 0 726 16 l 631 218 b 553 366 605 277 577 327 b 556 375 549 370 551 374 b 691 621 644 414 691 494 b 395 896 691 813 586 896 l 136 896 b 101 861 114 896 101 884 l 101 35 b 136 0 101 13 114 0 z m 292 -452 l 322 -481 b 372 -481 338 -497 356 -497 b 513 -215 472 -383 513 -311 b 403 -90 513 -135 461 -90 b 294 -196 342 -90 294 -131 b 361 -288 294 -232 316 -277 b 366 -297 366 -289 367 -292 b 292 -402 351 -333 327 -366 b 292 -452 275 -418 275 -436 z m 284 505 l 284 739 b 292 746 284 744 288 746 l 378 746 b 500 621 462 746 500 711 b 378 497 500 534 462 497 l 292 497 b 284 505 287 497 284 501 z "},"Ř":{"ha":758,"x_min":0,"x_max":0,"o":"m 136 0 l 249 0 b 284 35 271 0 284 13 l 284 340 b 292 347 284 345 288 347 l 380 347 b 389 341 384 347 388 345 l 528 27 b 568 0 535 8 548 0 l 688 0 b 715 42 715 0 726 16 l 631 218 b 553 366 605 277 577 327 b 556 375 549 370 551 374 b 691 621 644 414 691 494 b 395 896 691 813 586 896 l 136 896 b 101 861 114 896 101 884 l 101 35 b 136 0 101 13 114 0 z m 152 1164 l 278 1015 b 321 995 289 1001 303 995 l 431 995 b 473 1015 448 995 462 1001 l 601 1164 b 581 1207 620 1187 611 1207 l 484 1207 b 441 1189 466 1207 453 1203 l 383 1130 b 372 1130 380 1126 375 1126 l 316 1188 b 273 1207 303 1202 290 1207 l 172 1207 b 152 1164 141 1207 133 1187 z m 284 505 l 284 739 b 292 746 284 744 288 746 l 378 746 b 500 621 462 746 500 711 b 378 497 500 534 462 497 l 292 497 b 284 505 287 497 284 501 z "},"S":{"ha":758,"x_min":0,"x_max":0,"o":"m 376 -16 b 688 244 600 -16 688 128 b 431 543 688 396 593 460 b 270 684 338 591 270 624 b 362 764 270 734 303 764 b 492 657 415 764 456 737 b 539 636 503 635 518 628 l 654 681 b 672 727 676 689 683 706 b 365 914 607 852 514 914 b 82 681 162 914 82 789 b 313 391 82 521 189 449 b 499 235 405 346 499 312 b 376 134 499 173 456 134 b 229 251 307 134 258 168 b 184 274 221 274 206 283 l 77 234 b 54 189 57 226 48 211 b 376 -16 96 61 203 -16 z "},"Ś":{"ha":758,"x_min":0,"x_max":0,"o":"m 376 -16 b 688 244 600 -16 688 128 b 431 543 688 396 593 460 b 270 684 338 591 270 624 b 362 764 270 734 303 764 b 492 657 415 764 456 737 b 539 636 503 635 518 628 l 654 681 b 672 727 676 689 683 706 b 365 914 607 852 514 914 b 82 681 162 914 82 789 b 313 391 82 521 189 449 b 499 235 405 346 499 312 b 376 134 499 173 456 134 b 229 251 307 134 258 168 b 184 274 221 274 206 283 l 77 234 b 54 189 57 226 48 211 b 376 -16 96 61 203 -16 z m 326 997 l 443 997 b 487 1015 461 997 475 1003 l 626 1146 b 610 1189 650 1169 641 1189 l 451 1189 b 408 1169 433 1189 419 1183 l 306 1040 b 326 997 287 1018 297 997 z "},"Ŝ":{"ha":758,"x_min":0,"x_max":0,"o":"m 376 -16 b 688 244 600 -16 688 128 b 431 543 688 396 593 460 b 270 684 338 591 270 624 b 362 764 270 734 303 764 b 492 657 415 764 456 737 b 539 636 503 635 518 628 l 654 681 b 672 727 676 689 683 706 b 365 914 607 852 514 914 b 82 681 162 914 82 789 b 313 391 82 521 189 449 b 499 235 405 346 499 312 b 376 134 499 173 456 134 b 229 251 307 134 258 168 b 184 274 221 274 206 283 l 77 234 b 54 189 57 226 48 211 b 376 -16 96 61 203 -16 z m 168 997 l 265 997 b 308 1015 283 997 295 1001 l 366 1074 b 376 1074 369 1078 374 1078 l 433 1016 b 476 997 446 1003 458 997 l 577 997 b 597 1040 607 997 616 1018 l 471 1189 b 428 1210 460 1203 446 1210 l 318 1210 b 275 1189 301 1210 287 1203 l 148 1040 b 168 997 129 1018 138 997 z "},"Ş":{"ha":758,"x_min":0,"x_max":0,"o":"m 346 -365 b 518 -217 434 -365 518 -328 b 383 -74 518 -129 468 -82 b 376 -64 376 -73 374 -69 l 399 -20 b 408 -15 400 -16 404 -15 b 688 244 607 -3 688 134 b 431 543 688 396 593 460 b 270 684 338 591 270 624 b 362 764 270 734 303 764 b 492 657 415 764 456 737 b 539 636 503 635 518 628 l 654 681 b 672 727 676 689 683 706 b 365 914 607 852 514 914 b 82 681 162 914 82 789 b 313 391 82 521 189 449 b 499 235 405 346 499 312 b 376 134 499 173 456 134 b 229 251 307 134 258 168 b 184 274 221 274 206 283 l 77 234 b 54 189 57 226 48 211 b 287 -9 88 85 167 14 b 292 -18 292 -10 294 -13 l 259 -82 b 255 -129 251 -98 250 -112 l 256 -135 b 299 -162 263 -154 277 -163 b 386 -211 367 -160 386 -177 b 343 -254 386 -236 372 -254 b 287 -240 327 -254 307 -249 b 241 -260 264 -231 249 -237 l 226 -306 b 246 -351 218 -327 225 -343 b 346 -365 275 -360 308 -365 z "},"Š":{"ha":758,"x_min":0,"x_max":0,"o":"m 376 -16 b 688 244 600 -16 688 128 b 431 543 688 396 593 460 b 270 684 338 591 270 624 b 362 764 270 734 303 764 b 492 657 415 764 456 737 b 539 636 503 635 518 628 l 654 681 b 672 727 676 689 683 706 b 365 914 607 852 514 914 b 82 681 162 914 82 789 b 313 391 82 521 189 449 b 499 235 405 346 499 312 b 376 134 499 173 456 134 b 229 251 307 134 258 168 b 184 274 221 274 206 283 l 77 234 b 54 189 57 226 48 211 b 376 -16 96 61 203 -16 z m 148 1164 l 274 1015 b 317 995 285 1001 299 995 l 427 995 b 470 1015 444 995 458 1001 l 597 1164 b 577 1207 616 1187 607 1207 l 480 1207 b 437 1189 462 1207 449 1203 l 379 1130 b 369 1130 376 1126 371 1126 l 312 1188 b 269 1207 299 1202 287 1207 l 168 1207 b 148 1164 138 1207 129 1187 z "},"Ș":{"ha":758,"x_min":0,"x_max":0,"o":"m 376 -16 b 688 244 600 -16 688 128 b 431 543 688 396 593 460 b 270 684 338 591 270 624 b 362 764 270 734 303 764 b 492 657 415 764 456 737 b 539 636 503 635 518 628 l 654 681 b 672 727 676 689 683 706 b 365 914 607 852 514 914 b 82 681 162 914 82 789 b 313 391 82 521 189 449 b 499 235 405 346 499 312 b 376 134 499 173 456 134 b 229 251 307 134 258 168 b 184 274 221 274 206 283 l 77 234 b 54 189 57 226 48 211 b 376 -16 96 61 203 -16 z m 249 -452 l 279 -481 b 330 -481 295 -497 313 -497 b 470 -215 429 -383 470 -311 b 360 -90 470 -135 418 -90 b 251 -196 299 -90 251 -131 b 318 -288 251 -232 273 -277 b 323 -297 323 -289 324 -292 b 249 -402 308 -333 284 -366 b 249 -452 232 -418 232 -436 z "},"T":{"ha":758,"x_min":0,"x_max":0,"o":"m 323 0 l 434 0 b 470 35 457 0 470 13 l 470 737 b 477 745 470 742 473 745 l 653 745 b 688 780 676 745 688 758 l 688 861 b 653 896 688 884 676 896 l 105 896 b 69 861 82 896 69 884 l 69 780 b 105 745 69 758 82 745 l 280 745 b 288 737 285 745 288 742 l 288 35 b 323 0 288 13 301 0 z "},"Ț":{"ha":758,"x_min":0,"x_max":0,"o":"m 323 0 l 434 0 b 470 35 457 0 470 13 l 470 737 b 477 745 470 742 473 745 l 653 745 b 688 780 676 745 688 758 l 688 861 b 653 896 688 884 676 896 l 105 896 b 69 861 82 896 69 884 l 69 780 b 105 745 69 758 82 745 l 280 745 b 288 737 285 745 288 742 l 288 35 b 323 0 288 13 301 0 z m 269 -452 l 299 -481 b 350 -481 316 -497 333 -497 b 490 -215 449 -383 490 -311 b 380 -90 490 -135 438 -90 b 271 -196 319 -90 271 -131 b 338 -288 271 -232 293 -277 b 343 -297 343 -289 345 -292 b 269 -402 328 -333 304 -366 b 269 -452 253 -418 253 -436 z "},"Ť":{"ha":758,"x_min":0,"x_max":0,"o":"m 323 0 l 434 0 b 470 35 457 0 470 13 l 470 737 b 477 745 470 742 473 745 l 653 745 b 688 780 676 745 688 758 l 688 861 b 653 896 688 884 676 896 l 105 896 b 69 861 82 896 69 884 l 69 780 b 105 745 69 758 82 745 l 280 745 b 288 737 285 745 288 742 l 288 35 b 323 0 288 13 301 0 z m 154 1164 l 280 1015 b 323 995 292 1001 306 995 l 433 995 b 476 1015 451 995 465 1001 l 604 1164 b 583 1207 622 1187 614 1207 l 486 1207 b 443 1189 468 1207 456 1203 l 385 1130 b 375 1130 383 1126 378 1126 l 318 1188 b 275 1207 306 1202 293 1207 l 174 1207 b 154 1164 144 1207 135 1187 z "},"U":{"ha":758,"x_min":0,"x_max":0,"o":"m 379 -16 b 673 331 569 -16 673 109 l 673 861 b 638 896 673 884 660 896 l 525 896 b 490 861 503 896 490 884 l 490 340 b 379 140 490 212 449 140 b 268 340 308 140 268 212 l 268 861 b 232 896 268 884 255 896 l 120 896 b 85 861 97 896 85 884 l 85 331 b 379 -16 85 109 187 -16 z "},"Ù":{"ha":758,"x_min":0,"x_max":0,"o":"m 379 -16 b 673 331 569 -16 673 109 l 673 861 b 638 896 673 884 660 896 l 525 896 b 490 861 503 896 490 884 l 490 340 b 379 140 490 212 449 140 b 268 340 308 140 268 212 l 268 861 b 232 896 268 884 255 896 l 120 896 b 85 861 97 896 85 884 l 85 331 b 379 -16 85 109 187 -16 z m 125 1146 l 264 1015 b 308 997 277 1003 290 997 l 426 997 b 447 1040 455 997 466 1018 l 343 1169 b 301 1189 332 1184 318 1189 l 141 1189 b 125 1146 110 1189 101 1169 z "},"Ú":{"ha":758,"x_min":0,"x_max":0,"o":"m 379 -16 b 673 331 569 -16 673 109 l 673 861 b 638 896 673 884 660 896 l 525 896 b 490 861 503 896 490 884 l 490 340 b 379 140 490 212 449 140 b 268 340 308 140 268 212 l 268 861 b 232 896 268 884 255 896 l 120 896 b 85 861 97 896 85 884 l 85 331 b 379 -16 85 109 187 -16 z m 332 997 l 449 997 b 494 1015 467 997 481 1003 l 633 1146 b 616 1189 657 1169 648 1189 l 457 1189 b 414 1169 439 1189 426 1183 l 312 1040 b 332 997 293 1018 303 997 z "},"Û":{"ha":758,"x_min":0,"x_max":0,"o":"m 379 -16 b 673 331 569 -16 673 109 l 673 861 b 638 896 673 884 660 896 l 525 896 b 490 861 503 896 490 884 l 490 340 b 379 140 490 212 449 140 b 268 340 308 140 268 212 l 268 861 b 232 896 268 884 255 896 l 120 896 b 85 861 97 896 85 884 l 85 331 b 379 -16 85 109 187 -16 z m 174 997 l 271 997 b 314 1015 289 997 302 1001 l 372 1074 b 383 1074 375 1078 380 1078 l 439 1016 b 482 997 452 1003 465 997 l 583 997 b 604 1040 614 997 622 1018 l 477 1189 b 434 1210 466 1203 452 1210 l 324 1210 b 282 1189 307 1210 293 1203 l 154 1040 b 174 997 135 1018 144 997 z "},"Ü":{"ha":758,"x_min":0,"x_max":0,"o":"m 379 -16 b 673 331 569 -16 673 109 l 673 861 b 638 896 673 884 660 896 l 525 896 b 490 861 503 896 490 884 l 490 340 b 379 140 490 212 449 140 b 268 340 308 140 268 212 l 268 861 b 232 896 268 884 255 896 l 120 896 b 85 861 97 896 85 884 l 85 331 b 379 -16 85 109 187 -16 z m 122 1091 b 235 977 122 1030 173 977 b 346 1091 294 977 346 1030 b 235 1203 346 1152 294 1203 b 122 1091 173 1203 122 1152 z m 412 1091 b 524 977 412 1030 462 977 b 635 1091 583 977 635 1030 b 524 1203 635 1152 583 1203 b 412 1091 462 1203 412 1152 z "},"Ũ":{"ha":758,"x_min":0,"x_max":0,"o":"m 379 -16 b 673 331 569 -16 673 109 l 673 861 b 638 896 673 884 660 896 l 525 896 b 490 861 503 896 490 884 l 490 340 b 379 140 490 212 449 140 b 268 340 308 140 268 212 l 268 861 b 232 896 268 884 255 896 l 120 896 b 85 861 97 896 85 884 l 85 331 b 379 -16 85 109 187 -16 z m 168 990 l 229 990 b 266 1024 250 990 260 1001 b 304 1058 273 1051 287 1058 b 475 986 343 1058 393 986 b 630 1164 552 986 614 1032 b 596 1202 633 1188 619 1202 l 537 1202 b 499 1167 515 1202 504 1189 b 462 1131 492 1140 480 1131 b 287 1205 424 1131 365 1205 b 134 1028 198 1205 146 1155 b 168 990 131 1004 145 990 z "},"Ū":{"ha":758,"x_min":0,"x_max":0,"o":"m 379 -16 b 673 331 569 -16 673 109 l 673 861 b 638 896 673 884 660 896 l 525 896 b 490 861 503 896 490 884 l 490 340 b 379 140 490 212 449 140 b 268 340 308 140 268 212 l 268 861 b 232 896 268 884 255 896 l 120 896 b 85 861 97 896 85 884 l 85 331 b 379 -16 85 109 187 -16 z m 203 997 l 554 997 b 590 1033 577 997 590 1010 l 590 1115 b 554 1150 590 1138 577 1150 l 203 1150 b 168 1115 181 1150 168 1138 l 168 1033 b 203 997 168 1010 181 997 z "},"Ŭ":{"ha":758,"x_min":0,"x_max":0,"o":"m 379 -16 b 673 331 569 -16 673 109 l 673 861 b 638 896 673 884 660 896 l 525 896 b 490 861 503 896 490 884 l 490 340 b 379 140 490 212 449 140 b 268 340 308 140 268 212 l 268 861 b 232 896 268 884 255 896 l 120 896 b 85 861 97 896 85 884 l 85 331 b 379 -16 85 109 187 -16 z m 153 1149 b 378 977 181 1028 279 977 b 605 1149 476 977 574 1028 b 572 1188 610 1173 596 1188 l 496 1188 b 457 1158 476 1188 466 1178 b 379 1120 443 1130 417 1120 b 299 1157 340 1120 312 1130 b 261 1188 290 1177 282 1188 l 184 1188 b 153 1149 160 1188 146 1174 z "},"Ů":{"ha":758,"x_min":0,"x_max":0,"o":"m 379 -16 b 673 331 569 -16 673 109 l 673 861 b 638 896 673 884 660 896 l 525 896 b 490 861 503 896 490 884 l 490 340 b 379 140 490 212 449 140 b 268 340 308 140 268 212 l 268 861 b 232 896 268 884 255 896 l 120 896 b 85 861 97 896 85 884 l 85 331 b 379 -16 85 109 187 -16 z m 216 1117 b 379 970 216 1034 289 970 b 542 1117 468 970 542 1035 b 379 1265 542 1201 468 1265 b 216 1117 289 1265 216 1201 z m 323 1117 b 379 1173 323 1149 348 1173 b 434 1117 409 1173 434 1148 b 379 1063 434 1087 409 1063 b 323 1117 348 1063 323 1087 z "},"Ű":{"ha":758,"x_min":0,"x_max":0,"o":"m 379 -16 b 673 331 569 -16 673 109 l 673 861 b 638 896 673 884 660 896 l 525 896 b 490 861 503 896 490 884 l 490 340 b 379 140 490 212 449 140 b 268 340 308 140 268 212 l 268 861 b 232 896 268 884 255 896 l 120 896 b 85 861 97 896 85 884 l 85 331 b 379 -16 85 109 187 -16 z m 181 997 l 283 997 b 326 1018 301 997 314 1004 l 432 1146 b 412 1189 451 1170 442 1189 l 271 1189 b 230 1165 253 1189 240 1183 l 157 1040 b 181 997 143 1016 153 997 z m 476 997 l 576 997 b 619 1016 593 997 606 1004 l 742 1146 b 723 1189 764 1169 754 1189 l 586 1189 b 544 1168 567 1189 554 1183 l 453 1040 b 476 997 437 1016 447 997 z "},"Ų":{"ha":758,"x_min":0,"x_max":0,"o":"m 438 -338 b 528 -322 472 -338 500 -333 b 551 -280 545 -316 552 -301 l 545 -227 b 505 -207 543 -201 530 -198 b 482 -211 497 -210 490 -211 b 447 -165 462 -211 447 -197 b 561 39 447 -112 471 -44 b 673 331 634 96 673 194 l 673 861 b 638 896 673 884 660 896 l 525 896 b 490 861 503 896 490 884 l 490 340 b 379 140 490 212 449 140 b 268 340 308 140 268 212 l 268 861 b 232 896 268 884 255 896 l 120 896 b 85 861 97 896 85 884 l 85 331 b 362 -16 85 116 182 -9 b 366 -25 369 -16 370 -20 b 292 -202 321 -76 292 -138 b 438 -338 292 -298 359 -338 z "},"V":{"ha":758,"x_min":0,"x_max":0,"o":"m 346 0 l 422 0 b 463 24 441 0 453 8 b 543 226 492 77 521 141 l 716 857 b 686 896 722 883 711 896 l 585 896 b 545 866 564 896 551 888 l 391 246 b 381 246 390 239 383 240 l 221 866 b 182 896 216 888 202 896 l 72 896 b 42 857 47 896 35 881 l 221 225 b 304 24 244 144 275 77 b 346 0 314 8 327 0 z "},"W":{"ha":758,"x_min":0,"x_max":0,"o":"m 174 0 l 231 0 b 271 28 251 0 264 9 b 322 189 289 72 306 120 l 378 458 b 388 458 379 466 386 465 l 446 187 b 494 27 463 114 477 68 b 534 0 501 8 514 0 l 592 0 b 633 28 612 0 626 9 b 669 229 650 81 662 153 l 729 860 b 696 896 731 883 718 896 l 620 896 b 583 862 598 896 585 884 l 545 345 b 537 343 545 337 538 337 l 481 606 b 446 732 467 665 458 702 b 405 759 439 751 424 759 l 362 759 b 322 732 342 759 330 751 b 289 607 312 702 303 664 l 234 342 b 225 342 232 336 225 335 l 183 862 b 146 896 182 884 168 896 l 62 896 b 29 860 39 896 27 883 l 91 231 b 134 28 97 164 115 83 b 174 0 140 9 154 0 z "},"Ŵ":{"ha":758,"x_min":0,"x_max":0,"o":"m 174 0 l 231 0 b 271 28 251 0 264 9 b 322 189 289 72 306 120 l 378 458 b 388 458 379 466 386 465 l 446 187 b 494 27 463 114 477 68 b 534 0 501 8 514 0 l 592 0 b 633 28 612 0 626 9 b 669 229 650 81 662 153 l 729 860 b 696 896 731 883 718 896 l 620 896 b 583 862 598 896 585 884 l 545 345 b 537 343 545 337 538 337 l 481 606 b 446 732 467 665 458 702 b 405 759 439 751 424 759 l 362 759 b 322 732 342 759 330 751 b 289 607 312 702 303 664 l 234 342 b 225 342 232 336 225 335 l 183 862 b 146 896 182 884 168 896 l 62 896 b 29 860 39 896 27 883 l 91 231 b 134 28 97 164 115 83 b 174 0 140 9 154 0 z m 174 997 l 271 997 b 314 1015 289 997 302 1001 l 372 1074 b 383 1074 375 1078 380 1078 l 439 1016 b 482 997 452 1003 465 997 l 583 997 b 604 1040 614 997 622 1018 l 477 1189 b 434 1210 466 1203 452 1210 l 324 1210 b 282 1189 307 1210 293 1203 l 154 1040 b 174 997 135 1018 144 997 z "},"Ẁ":{"ha":758,"x_min":0,"x_max":0,"o":"m 174 0 l 231 0 b 271 28 251 0 264 9 b 322 189 289 72 306 120 l 378 458 b 388 458 379 466 386 465 l 446 187 b 494 27 463 114 477 68 b 534 0 501 8 514 0 l 592 0 b 633 28 612 0 626 9 b 669 229 650 81 662 153 l 729 860 b 696 896 731 883 718 896 l 620 896 b 583 862 598 896 585 884 l 545 345 b 537 343 545 337 538 337 l 481 606 b 446 732 467 665 458 702 b 405 759 439 751 424 759 l 362 759 b 322 732 342 759 330 751 b 289 607 312 702 303 664 l 234 342 b 225 342 232 336 225 335 l 183 862 b 146 896 182 884 168 896 l 62 896 b 29 860 39 896 27 883 l 91 231 b 134 28 97 164 115 83 b 174 0 140 9 154 0 z m 125 1146 l 264 1015 b 308 997 277 1003 290 997 l 426 997 b 447 1040 455 997 466 1018 l 343 1169 b 301 1189 332 1184 318 1189 l 141 1189 b 125 1146 110 1189 101 1169 z "},"Ẃ":{"ha":758,"x_min":0,"x_max":0,"o":"m 174 0 l 231 0 b 271 28 251 0 264 9 b 322 189 289 72 306 120 l 378 458 b 388 458 379 466 386 465 l 446 187 b 494 27 463 114 477 68 b 534 0 501 8 514 0 l 592 0 b 633 28 612 0 626 9 b 669 229 650 81 662 153 l 729 860 b 696 896 731 883 718 896 l 620 896 b 583 862 598 896 585 884 l 545 345 b 537 343 545 337 538 337 l 481 606 b 446 732 467 665 458 702 b 405 759 439 751 424 759 l 362 759 b 322 732 342 759 330 751 b 289 607 312 702 303 664 l 234 342 b 225 342 232 336 225 335 l 183 862 b 146 896 182 884 168 896 l 62 896 b 29 860 39 896 27 883 l 91 231 b 134 28 97 164 115 83 b 174 0 140 9 154 0 z m 332 997 l 449 997 b 494 1015 467 997 481 1003 l 633 1146 b 616 1189 657 1169 648 1189 l 457 1189 b 414 1169 439 1189 426 1183 l 312 1040 b 332 997 293 1018 303 997 z "},"Ẅ":{"ha":758,"x_min":0,"x_max":0,"o":"m 174 0 l 231 0 b 271 28 251 0 264 9 b 322 189 289 72 306 120 l 378 458 b 388 458 379 466 386 465 l 446 187 b 494 27 463 114 477 68 b 534 0 501 8 514 0 l 592 0 b 633 28 612 0 626 9 b 669 229 650 81 662 153 l 729 860 b 696 896 731 883 718 896 l 620 896 b 583 862 598 896 585 884 l 545 345 b 537 343 545 337 538 337 l 481 606 b 446 732 467 665 458 702 b 405 759 439 751 424 759 l 362 759 b 322 732 342 759 330 751 b 289 607 312 702 303 664 l 234 342 b 225 342 232 336 225 335 l 183 862 b 146 896 182 884 168 896 l 62 896 b 29 860 39 896 27 883 l 91 231 b 134 28 97 164 115 83 b 174 0 140 9 154 0 z m 122 1091 b 235 977 122 1030 173 977 b 346 1091 294 977 346 1030 b 235 1203 346 1152 294 1203 b 122 1091 173 1203 122 1152 z m 412 1091 b 524 977 412 1030 462 977 b 635 1091 583 977 635 1030 b 524 1203 635 1152 583 1203 b 412 1091 462 1203 412 1152 z "},"X":{"ha":758,"x_min":0,"x_max":0,"o":"m 551 0 l 676 0 b 702 42 703 0 715 16 l 486 455 b 486 465 485 458 485 461 l 691 855 b 665 896 703 880 693 896 l 549 896 b 508 870 530 896 516 889 l 385 617 b 375 617 383 612 378 612 l 250 871 b 208 896 241 889 227 896 l 83 896 b 58 855 56 896 45 879 l 266 462 b 266 452 268 460 268 456 l 58 42 b 83 0 45 16 57 0 l 202 0 b 244 27 221 0 235 8 l 369 292 b 379 293 371 297 376 298 l 509 27 b 551 0 518 8 532 0 z "},"Y":{"ha":758,"x_min":0,"x_max":0,"o":"m 333 0 l 446 0 b 481 35 468 0 481 13 l 481 308 b 484 318 481 311 482 316 l 721 855 b 693 896 731 879 720 896 l 585 896 b 544 869 564 896 552 886 l 393 506 b 383 505 390 500 385 499 l 227 870 b 187 896 220 888 207 896 l 67 896 b 40 855 40 896 29 880 l 295 313 b 298 303 297 311 298 306 l 298 35 b 333 0 298 13 311 0 z "},"Ý":{"ha":758,"x_min":0,"x_max":0,"o":"m 333 0 l 446 0 b 481 35 468 0 481 13 l 481 308 b 484 318 481 311 482 316 l 721 855 b 693 896 731 879 720 896 l 585 896 b 544 869 564 896 552 886 l 393 506 b 383 505 390 500 385 499 l 227 870 b 187 896 220 888 207 896 l 67 896 b 40 855 40 896 29 880 l 295 313 b 298 303 297 311 298 306 l 298 35 b 333 0 298 13 311 0 z m 335 997 l 452 997 b 496 1015 470 997 484 1003 l 635 1146 b 619 1189 659 1169 650 1189 l 460 1189 b 417 1169 442 1189 428 1183 l 314 1040 b 335 997 295 1018 306 997 z "},"Ŷ":{"ha":758,"x_min":0,"x_max":0,"o":"m 333 0 l 446 0 b 481 35 468 0 481 13 l 481 308 b 484 318 481 311 482 316 l 721 855 b 693 896 731 879 720 896 l 585 896 b 544 869 564 896 552 886 l 393 506 b 383 505 390 500 385 499 l 227 870 b 187 896 220 888 207 896 l 67 896 b 40 855 40 896 29 880 l 295 313 b 298 303 297 311 298 306 l 298 35 b 333 0 298 13 311 0 z m 177 997 l 274 997 b 317 1015 292 997 304 1001 l 375 1074 b 385 1074 378 1078 383 1078 l 442 1016 b 485 997 455 1003 467 997 l 586 997 b 606 1040 616 997 625 1018 l 480 1189 b 437 1210 468 1203 455 1210 l 327 1210 b 284 1189 309 1210 295 1203 l 157 1040 b 177 997 138 1018 146 997 z "},"Ÿ":{"ha":758,"x_min":0,"x_max":0,"o":"m 333 0 l 446 0 b 481 35 468 0 481 13 l 481 308 b 484 318 481 311 482 316 l 721 855 b 693 896 731 879 720 896 l 585 896 b 544 869 564 896 552 886 l 393 506 b 383 505 390 500 385 499 l 227 870 b 187 896 220 888 207 896 l 67 896 b 40 855 40 896 29 880 l 295 313 b 298 303 297 311 298 306 l 298 35 b 333 0 298 13 311 0 z m 125 1091 b 237 977 125 1030 176 977 b 348 1091 297 977 348 1030 b 237 1203 348 1152 297 1203 b 125 1091 176 1203 125 1152 z m 414 1091 b 527 977 414 1030 465 977 b 638 1091 586 977 638 1030 b 527 1203 638 1152 586 1203 b 414 1091 465 1203 414 1152 z "},"Ỳ":{"ha":758,"x_min":0,"x_max":0,"o":"m 333 0 l 446 0 b 481 35 468 0 481 13 l 481 308 b 484 318 481 311 482 316 l 721 855 b 693 896 731 879 720 896 l 585 896 b 544 869 564 896 552 886 l 393 506 b 383 505 390 500 385 499 l 227 870 b 187 896 220 888 207 896 l 67 896 b 40 855 40 896 29 880 l 295 313 b 298 303 297 311 298 306 l 298 35 b 333 0 298 13 311 0 z m 128 1146 l 266 1015 b 311 997 279 1003 293 997 l 428 997 b 449 1040 457 997 468 1018 l 346 1169 b 303 1189 335 1184 321 1189 l 144 1189 b 128 1146 112 1189 104 1169 z "},"Z":{"ha":758,"x_min":0,"x_max":0,"o":"m 96 101 l 96 35 b 131 0 96 13 109 0 l 635 0 b 670 35 658 0 670 13 l 670 115 b 635 150 670 138 658 150 l 309 150 b 304 159 304 150 302 154 l 601 672 b 645 764 619 703 634 735 b 652 806 650 779 652 790 l 652 861 b 616 896 652 884 639 896 l 154 896 b 119 861 131 896 119 884 l 119 782 b 154 746 119 759 131 746 l 442 746 b 447 737 447 746 449 742 l 169 265 b 105 145 149 232 126 189 b 96 101 98 129 96 117 z "},"Ź":{"ha":758,"x_min":0,"x_max":0,"o":"m 96 101 l 96 35 b 131 0 96 13 109 0 l 635 0 b 670 35 658 0 670 13 l 670 115 b 635 150 670 138 658 150 l 309 150 b 304 159 304 150 302 154 l 601 672 b 645 764 619 703 634 735 b 652 806 650 779 652 790 l 652 861 b 616 896 652 884 639 896 l 154 896 b 119 861 131 896 119 884 l 119 782 b 154 746 119 759 131 746 l 442 746 b 447 737 447 746 449 742 l 169 265 b 105 145 149 232 126 189 b 96 101 98 129 96 117 z m 337 997 l 455 997 b 499 1015 472 997 486 1003 l 638 1146 b 621 1189 662 1169 653 1189 l 462 1189 b 419 1169 444 1189 431 1183 l 317 1040 b 337 997 298 1018 308 997 z "},"Ż":{"ha":758,"x_min":0,"x_max":0,"o":"m 96 101 l 96 35 b 131 0 96 13 109 0 l 635 0 b 670 35 658 0 670 13 l 670 115 b 635 150 670 138 658 150 l 309 150 b 304 159 304 150 302 154 l 601 672 b 645 764 619 703 634 735 b 652 806 650 779 652 790 l 652 861 b 616 896 652 884 639 896 l 154 896 b 119 861 131 896 119 884 l 119 782 b 154 746 119 759 131 746 l 442 746 b 447 737 447 746 449 742 l 169 265 b 105 145 149 232 126 189 b 96 101 98 129 96 117 z m 273 1091 b 385 977 273 1030 323 977 b 496 1091 444 977 496 1030 b 385 1203 496 1152 444 1203 b 273 1091 323 1203 273 1152 z "},"Ž":{"ha":758,"x_min":0,"x_max":0,"o":"m 96 101 l 96 35 b 131 0 96 13 109 0 l 635 0 b 670 35 658 0 670 13 l 670 115 b 635 150 670 138 658 150 l 309 150 b 304 159 304 150 302 154 l 601 672 b 645 764 619 703 634 735 b 652 806 650 779 652 790 l 652 861 b 616 896 652 884 639 896 l 154 896 b 119 861 131 896 119 884 l 119 782 b 154 746 119 759 131 746 l 442 746 b 447 737 447 746 449 742 l 169 265 b 105 145 149 232 126 189 b 96 101 98 129 96 117 z m 159 1164 l 285 1015 b 328 995 297 1001 311 995 l 438 995 b 481 1015 456 995 470 1001 l 609 1164 b 588 1207 628 1187 619 1207 l 491 1207 b 448 1189 473 1207 461 1203 l 390 1130 b 380 1130 388 1126 383 1126 l 323 1188 b 280 1207 311 1202 298 1207 l 179 1207 b 159 1164 149 1207 140 1187 z "},"Æ":{"ha":758,"x_min":0,"x_max":0,"o":"m 705 896 l 313 896 b 273 870 293 896 280 889 b 221 721 256 830 237 780 l 21 40 b 52 0 14 15 27 0 l 139 0 b 179 30 159 0 174 10 l 218 170 b 226 177 220 176 222 177 l 371 177 b 379 169 376 177 379 174 l 379 35 b 414 0 379 13 391 0 l 705 0 b 740 35 727 0 740 13 l 740 106 b 705 141 740 129 727 141 l 544 141 b 537 149 539 141 537 145 l 537 383 b 544 390 537 388 540 390 l 646 390 b 682 426 669 390 682 403 l 682 499 b 646 534 682 521 669 534 l 544 534 b 537 542 539 534 537 538 l 537 753 b 544 760 537 758 540 760 l 705 760 b 740 795 727 760 740 773 l 740 861 b 705 896 740 884 727 896 z m 260 322 l 327 562 b 371 754 342 617 357 688 b 379 753 371 758 379 755 l 379 321 b 371 313 379 316 375 313 l 266 313 b 260 322 261 313 259 316 z "},"Ǽ":{"ha":758,"x_min":0,"x_max":0,"o":"m 705 896 l 313 896 b 273 870 293 896 280 889 b 221 721 256 830 237 780 l 21 40 b 52 0 14 15 27 0 l 139 0 b 179 30 159 0 174 10 l 218 170 b 226 177 220 176 222 177 l 371 177 b 379 169 376 177 379 174 l 379 35 b 414 0 379 13 391 0 l 705 0 b 740 35 727 0 740 13 l 740 106 b 705 141 740 129 727 141 l 544 141 b 537 149 539 141 537 145 l 537 383 b 544 390 537 388 540 390 l 646 390 b 682 426 669 390 682 403 l 682 499 b 646 534 682 521 669 534 l 544 534 b 537 542 539 534 537 538 l 537 753 b 544 760 537 758 540 760 l 705 760 b 740 795 727 760 740 773 l 740 861 b 705 896 740 884 727 896 z m 260 322 l 327 562 b 371 754 342 617 357 688 b 379 753 371 758 379 755 l 379 321 b 371 313 379 316 375 313 l 266 313 b 260 322 261 313 259 316 z m 355 997 l 472 997 b 516 1015 490 997 504 1003 l 655 1146 b 639 1189 679 1169 670 1189 l 480 1189 b 437 1169 462 1189 448 1183 l 335 1040 b 355 997 316 1018 326 997 z "},"Ð":{"ha":758,"x_min":0,"x_max":0,"o":"m 376 521 l 292 521 b 284 529 287 521 284 525 l 284 740 b 292 747 284 745 287 747 l 340 747 b 533 448 463 747 533 662 b 340 149 533 234 463 149 l 292 149 b 284 157 287 149 284 152 l 284 376 b 292 384 284 381 288 384 l 376 384 b 412 419 399 384 412 396 l 412 486 b 376 521 412 509 399 521 z m 59 384 l 110 384 b 117 376 115 384 117 381 l 117 35 b 153 0 117 13 130 0 l 357 0 b 710 448 571 0 710 138 b 357 896 710 760 571 896 l 153 896 b 117 861 130 896 117 884 l 117 529 b 110 521 117 524 114 521 l 59 521 b 24 486 37 521 24 509 l 24 419 b 59 384 24 396 37 384 z "},"Ø":{"ha":758,"x_min":0,"x_max":0,"o":"m 68 0 l 139 0 b 182 23 158 0 172 8 l 191 37 b 201 38 193 42 197 42 b 378 -16 250 4 309 -16 b 720 449 592 -16 720 169 b 654 746 720 567 697 668 b 655 756 653 750 653 754 l 717 854 b 694 896 732 878 722 896 l 621 896 b 578 874 602 896 588 890 l 568 859 b 558 857 566 854 562 854 b 378 913 509 893 448 913 b 38 449 165 913 38 727 b 106 146 38 328 62 226 b 105 136 107 143 107 139 l 45 43 b 68 0 30 19 40 0 z m 229 449 b 378 758 229 635 282 758 b 467 711 413 758 443 741 b 467 701 470 707 470 705 l 244 352 b 234 354 240 347 235 347 b 229 449 230 383 229 415 z m 292 194 l 515 539 b 524 537 519 544 524 544 b 529 449 528 510 529 481 b 378 140 529 264 476 140 b 292 184 345 140 316 155 b 292 194 289 188 289 191 z "},"Ǿ":{"ha":758,"x_min":0,"x_max":0,"o":"m 68 0 l 139 0 b 182 23 158 0 172 8 l 191 37 b 201 38 193 42 197 42 b 378 -16 250 4 309 -16 b 720 449 592 -16 720 169 b 654 746 720 567 697 668 b 655 756 653 750 653 754 l 717 854 b 694 896 732 878 722 896 l 621 896 b 578 874 602 896 588 890 l 568 859 b 558 857 566 854 562 854 b 378 913 509 893 448 913 b 38 449 165 913 38 727 b 106 146 38 328 62 226 b 105 136 107 143 107 139 l 45 43 b 68 0 30 19 40 0 z m 229 449 b 378 758 229 635 282 758 b 467 711 413 758 443 741 b 467 701 470 707 470 705 l 244 352 b 234 354 240 347 235 347 b 229 449 230 383 229 415 z m 332 997 l 449 997 b 494 1015 467 997 481 1003 l 633 1146 b 616 1189 657 1169 648 1189 l 457 1189 b 414 1169 439 1189 426 1183 l 312 1040 b 332 997 293 1018 303 997 z m 292 194 l 515 539 b 524 537 519 544 524 544 b 529 449 528 510 529 481 b 378 140 529 264 476 140 b 292 184 345 140 316 155 b 292 194 289 188 289 191 z "},"Þ":{"ha":758,"x_min":0,"x_max":0,"o":"m 145 0 l 259 0 b 294 35 282 0 294 13 l 294 162 b 302 169 294 167 298 169 l 414 169 b 711 462 605 169 711 260 b 414 753 711 664 605 753 l 302 753 b 294 760 297 753 294 755 l 294 861 b 259 896 294 884 282 896 l 145 896 b 110 861 122 896 110 884 l 110 35 b 145 0 110 13 122 0 z m 294 328 l 294 595 b 302 602 294 600 297 602 l 396 602 b 518 462 481 602 518 563 b 396 321 518 361 481 321 l 302 321 b 294 328 297 321 294 324 z "},"Đ":{"ha":758,"x_min":0,"x_max":0,"o":"m 376 521 l 292 521 b 284 529 287 521 284 525 l 284 740 b 292 747 284 745 287 747 l 340 747 b 533 448 463 747 533 662 b 340 149 533 234 463 149 l 292 149 b 284 157 287 149 284 152 l 284 376 b 292 384 284 381 288 384 l 376 384 b 412 419 399 384 412 396 l 412 486 b 376 521 412 509 399 521 z m 59 384 l 110 384 b 117 376 115 384 117 381 l 117 35 b 153 0 117 13 130 0 l 357 0 b 710 448 571 0 710 138 b 357 896 710 760 571 896 l 153 896 b 117 861 130 896 117 884 l 117 529 b 110 521 117 524 114 521 l 59 521 b 24 486 37 521 24 509 l 24 419 b 59 384 24 396 37 384 z "},"Ħ":{"ha":758,"x_min":0,"x_max":0,"o":"m 712 779 l 664 779 b 657 787 659 779 657 782 l 657 861 b 621 896 657 884 644 896 l 527 896 b 491 861 504 896 491 884 l 491 787 b 484 779 491 782 489 779 l 274 779 b 266 787 269 779 266 782 l 266 861 b 231 896 266 884 254 896 l 136 896 b 101 861 114 896 101 884 l 101 787 b 93 779 101 782 98 779 l 45 779 b 10 744 23 779 10 766 l 10 684 b 45 649 10 662 23 649 l 93 649 b 101 641 98 649 101 646 l 101 35 b 136 0 101 13 114 0 l 231 0 b 266 35 254 0 266 13 l 266 370 b 274 378 266 375 269 378 l 484 378 b 491 370 489 378 491 375 l 491 35 b 527 0 491 13 504 0 l 621 0 b 657 35 644 0 657 13 l 657 641 b 664 649 657 646 659 649 l 712 649 b 747 684 735 649 747 662 l 747 744 b 712 779 747 766 735 779 z m 266 538 l 266 641 b 274 649 266 646 269 649 l 484 649 b 491 641 489 649 491 646 l 491 538 b 484 530 491 533 489 530 l 274 530 b 266 538 269 530 266 533 z "},"Ĳ":{"ha":758,"x_min":0,"x_max":0,"o":"m 119 448 l 231 448 b 266 484 254 448 266 461 l 266 861 b 231 896 266 884 254 896 l 119 896 b 83 861 96 896 83 884 l 83 484 b 119 448 83 461 96 448 z m 85 280 b 388 -16 101 76 216 -16 b 684 303 578 -16 684 104 l 684 861 b 649 896 684 884 672 896 l 537 896 b 501 861 514 896 501 884 l 501 308 b 388 140 501 207 461 140 b 269 282 323 140 282 177 b 232 317 266 304 254 317 l 120 317 b 85 280 97 317 83 304 z "},"Ŀ":{"ha":758,"x_min":0,"x_max":0,"o":"m 157 0 l 653 0 b 688 35 676 0 688 13 l 688 116 b 653 152 688 139 676 152 l 312 152 b 304 159 307 152 304 154 l 304 861 b 269 896 304 884 292 896 l 157 896 b 121 861 134 896 121 884 l 121 35 b 157 0 121 13 134 0 z m 482 544 b 595 431 482 484 533 431 b 706 544 654 431 706 484 b 595 657 706 605 654 657 b 482 544 533 657 482 605 z "},"Ł":{"ha":758,"x_min":0,"x_max":0,"o":"m 165 0 l 653 0 b 688 35 676 0 688 13 l 688 116 b 653 152 688 139 676 152 l 321 152 b 313 159 316 152 313 154 l 313 447 b 319 455 313 451 316 453 l 439 489 b 470 529 460 494 470 509 l 470 612 b 431 643 470 638 456 650 l 322 612 b 313 619 317 611 313 614 l 313 861 b 278 896 313 884 301 896 l 165 896 b 130 861 143 896 130 884 l 130 564 b 124 557 130 561 128 558 l 56 537 b 25 496 35 532 25 516 l 25 413 b 66 383 25 388 42 375 l 121 399 b 130 393 126 400 130 398 l 130 35 b 165 0 130 13 143 0 z "},"Ŋ":{"ha":758,"x_min":0,"x_max":0,"o":"m 115 0 l 202 0 b 237 35 225 0 237 13 l 237 561 b 246 563 237 568 244 569 l 437 145 b 514 8 461 90 486 45 b 518 -1 516 5 518 3 l 518 -8 b 424 -139 518 -95 480 -139 b 299 -112 380 -139 336 -126 b 254 -134 278 -105 260 -111 l 230 -216 b 250 -260 223 -236 230 -253 b 420 -290 299 -279 357 -290 b 678 -28 574 -290 678 -197 l 678 861 b 643 896 678 884 665 896 l 554 896 b 519 861 532 896 519 884 l 519 342 b 510 341 519 335 513 333 l 324 763 b 261 876 304 808 284 847 b 218 896 250 891 236 896 l 115 896 b 80 861 92 896 80 884 l 80 35 b 115 0 80 13 92 0 z "},"Œ":{"ha":758,"x_min":0,"x_max":0,"o":"m 25 448 b 319 0 25 138 141 0 l 699 0 b 735 35 722 0 735 13 l 735 109 b 699 144 735 131 722 144 l 537 144 b 529 152 532 144 529 146 l 529 386 b 537 394 529 391 533 394 l 641 394 b 677 429 664 394 677 407 l 677 499 b 641 534 677 521 664 534 l 537 534 b 529 542 532 534 529 537 l 529 750 b 537 758 529 755 532 758 l 699 758 b 735 793 722 758 735 770 l 735 861 b 699 896 735 884 722 896 l 319 896 b 25 448 141 896 25 760 z m 201 448 b 337 758 201 668 250 758 l 361 758 b 369 750 366 758 369 754 l 369 146 b 361 139 369 141 365 139 l 337 139 b 201 448 250 139 201 227 z "},"Ŧ":{"ha":758,"x_min":0,"x_max":0,"o":"m 582 487 l 477 487 b 470 495 472 487 470 490 l 470 737 b 477 745 470 742 473 745 l 653 745 b 688 780 676 745 688 758 l 688 861 b 653 896 688 884 676 896 l 105 896 b 69 861 82 896 69 884 l 69 780 b 105 745 69 758 82 745 l 280 745 b 288 737 285 745 288 742 l 288 495 b 280 487 288 490 284 487 l 176 487 b 140 452 153 487 140 475 l 140 370 b 176 335 140 347 153 335 l 280 335 b 288 327 285 335 288 332 l 288 35 b 323 0 288 13 301 0 l 434 0 b 470 35 457 0 470 13 l 470 327 b 477 335 470 332 473 335 l 582 335 b 617 370 605 335 617 347 l 617 452 b 582 487 617 475 605 487 z "},"a":{"ha":758,"x_min":0,"x_max":0,"o":"m 625 -16 b 732 5 672 -16 702 -10 b 746 48 747 13 751 27 l 731 111 b 686 130 725 136 710 139 b 664 126 679 128 672 126 b 641 189 648 126 641 154 l 641 475 b 372 720 641 630 548 720 b 98 588 259 720 158 679 b 110 539 86 568 91 551 l 194 485 b 244 497 213 472 230 477 b 372 572 279 551 323 572 b 463 482 427 572 463 538 l 463 447 b 456 438 463 443 461 439 b 63 186 221 403 63 350 b 284 -16 63 64 153 -16 b 477 67 354 -16 417 10 b 487 66 481 71 485 71 b 625 -16 516 16 566 -16 z m 247 191 b 449 322 247 268 326 299 b 463 316 458 323 463 321 l 463 210 b 460 201 463 206 462 203 b 312 116 420 154 360 116 b 247 191 274 116 247 146 z "},"à":{"ha":758,"x_min":0,"x_max":0,"o":"m 625 -16 b 732 5 672 -16 702 -10 b 746 48 747 13 751 27 l 731 111 b 686 130 725 136 710 139 b 664 126 679 128 672 126 b 641 189 648 126 641 154 l 641 475 b 372 720 641 630 548 720 b 98 588 259 720 158 679 b 110 539 86 568 91 551 l 194 485 b 244 497 213 472 230 477 b 372 572 279 551 323 572 b 463 482 427 572 463 538 l 463 447 b 456 438 463 443 461 439 b 63 186 221 403 63 350 b 284 -16 63 64 153 -16 b 477 67 354 -16 417 10 b 487 66 481 71 485 71 b 625 -16 516 16 566 -16 z m 153 1000 l 271 842 b 314 821 283 827 295 821 l 419 821 b 444 862 447 821 457 838 l 359 1018 b 317 1043 350 1035 336 1043 l 174 1043 b 153 1000 145 1043 135 1023 z m 247 191 b 449 322 247 268 326 299 b 463 316 458 323 463 321 l 463 210 b 460 201 463 206 462 203 b 312 116 420 154 360 116 b 247 191 274 116 247 146 z "},"á":{"ha":758,"x_min":0,"x_max":0,"o":"m 625 -16 b 732 5 672 -16 702 -10 b 746 48 747 13 751 27 l 731 111 b 686 130 725 136 710 139 b 664 126 679 128 672 126 b 641 189 648 126 641 154 l 641 475 b 372 720 641 630 548 720 b 98 588 259 720 158 679 b 110 539 86 568 91 551 l 194 485 b 244 497 213 472 230 477 b 372 572 279 551 323 572 b 463 482 427 572 463 538 l 463 447 b 456 438 463 443 461 439 b 63 186 221 403 63 350 b 284 -16 63 64 153 -16 b 477 67 354 -16 417 10 b 487 66 481 71 485 71 b 625 -16 516 16 566 -16 z m 247 191 b 449 322 247 268 326 299 b 463 316 458 323 463 321 l 463 210 b 460 201 463 206 462 203 b 312 116 420 154 360 116 b 247 191 274 116 247 146 z m 338 821 l 443 821 b 486 842 462 821 475 827 l 604 1000 b 582 1043 621 1024 611 1043 l 441 1043 b 399 1018 422 1043 408 1034 l 313 862 b 338 821 301 838 311 821 z "},"â":{"ha":758,"x_min":0,"x_max":0,"o":"m 625 -16 b 732 5 672 -16 702 -10 b 746 48 747 13 751 27 l 731 111 b 686 130 725 136 710 139 b 664 126 679 128 672 126 b 641 189 648 126 641 154 l 641 475 b 372 720 641 630 548 720 b 98 588 259 720 158 679 b 110 539 86 568 91 551 l 194 485 b 244 497 213 472 230 477 b 372 572 279 551 323 572 b 463 482 427 572 463 538 l 463 447 b 456 438 463 443 461 439 b 63 186 221 403 63 350 b 284 -16 63 64 153 -16 b 477 67 354 -16 417 10 b 487 66 481 71 485 71 b 625 -16 516 16 566 -16 z m 172 818 l 263 818 b 306 836 280 818 293 823 l 371 900 b 381 900 374 903 379 903 l 447 836 b 490 818 460 823 472 818 l 583 818 b 604 861 614 818 622 837 l 465 1030 b 422 1051 453 1044 439 1051 l 332 1051 b 289 1030 314 1051 301 1044 l 152 861 b 172 818 133 838 141 818 z m 247 191 b 449 322 247 268 326 299 b 463 316 458 323 463 321 l 463 210 b 460 201 463 206 462 203 b 312 116 420 154 360 116 b 247 191 274 116 247 146 z "},"ã":{"ha":758,"x_min":0,"x_max":0,"o":"m 625 -16 b 732 5 672 -16 702 -10 b 746 48 747 13 751 27 l 731 111 b 686 130 725 136 710 139 b 664 126 679 128 672 126 b 641 189 648 126 641 154 l 641 475 b 372 720 641 630 548 720 b 98 588 259 720 158 679 b 110 539 86 568 91 551 l 194 485 b 244 497 213 472 230 477 b 372 572 279 551 323 572 b 463 482 427 572 463 538 l 463 447 b 456 438 463 443 461 439 b 63 186 221 403 63 350 b 284 -16 63 64 153 -16 b 477 67 354 -16 417 10 b 487 66 481 71 485 71 b 625 -16 516 16 566 -16 z m 172 811 l 235 811 b 273 845 256 811 268 822 b 303 878 278 870 288 878 b 477 807 343 878 398 807 b 630 984 547 807 615 852 b 596 1021 633 1008 619 1021 l 534 1021 b 497 987 513 1021 503 1010 b 466 953 491 962 479 953 b 292 1025 428 953 369 1025 b 138 848 206 1025 152 976 b 172 811 135 824 149 811 z m 247 191 b 449 322 247 268 326 299 b 463 316 458 323 463 321 l 463 210 b 460 201 463 206 462 203 b 312 116 420 154 360 116 b 247 191 274 116 247 146 z "},"ä":{"ha":758,"x_min":0,"x_max":0,"o":"m 625 -16 b 732 5 672 -16 702 -10 b 746 48 747 13 751 27 l 731 111 b 686 130 725 136 710 139 b 664 126 679 128 672 126 b 641 189 648 126 641 154 l 641 475 b 372 720 641 630 548 720 b 98 588 259 720 158 679 b 110 539 86 568 91 551 l 194 485 b 244 497 213 472 230 477 b 372 572 279 551 323 572 b 463 482 427 572 463 538 l 463 447 b 456 438 463 443 461 439 b 63 186 221 403 63 350 b 284 -16 63 64 153 -16 b 477 67 354 -16 417 10 b 487 66 481 71 485 71 b 625 -16 516 16 566 -16 z m 102 924 b 226 801 102 857 158 801 b 348 924 292 801 348 857 b 226 1048 348 991 292 1048 b 102 924 158 1048 102 991 z m 247 191 b 449 322 247 268 326 299 b 463 316 458 323 463 321 l 463 210 b 460 201 463 206 462 203 b 312 116 420 154 360 116 b 247 191 274 116 247 146 z m 407 924 b 530 801 407 857 462 801 b 653 924 596 801 653 857 b 530 1048 653 991 596 1048 b 407 924 462 1048 407 991 z "},"å":{"ha":758,"x_min":0,"x_max":0,"o":"m 625 -16 b 732 5 672 -16 702 -10 b 746 48 747 13 751 27 l 731 111 b 686 130 725 136 710 139 b 664 126 679 128 672 126 b 641 189 648 126 641 154 l 641 475 b 372 720 641 630 548 720 b 98 588 259 720 158 679 b 110 539 86 568 91 551 l 194 485 b 244 497 213 472 230 477 b 372 572 279 551 323 572 b 463 482 427 572 463 538 l 463 447 b 456 438 463 443 461 439 b 63 186 221 403 63 350 b 284 -16 63 64 153 -16 b 477 67 354 -16 417 10 b 487 66 481 71 485 71 b 625 -16 516 16 566 -16 z m 215 941 b 378 788 215 855 288 788 b 540 941 467 788 540 856 b 378 1091 540 1024 467 1091 b 215 941 288 1091 215 1024 z m 247 191 b 449 322 247 268 326 299 b 463 316 458 323 463 321 l 463 210 b 460 201 463 206 462 203 b 312 116 420 154 360 116 b 247 191 274 116 247 146 z m 322 941 b 378 999 322 972 347 999 b 433 941 408 999 433 972 b 378 883 433 908 408 883 b 322 941 347 883 322 908 z "},"ā":{"ha":758,"x_min":0,"x_max":0,"o":"m 625 -16 b 732 5 672 -16 702 -10 b 746 48 747 13 751 27 l 731 111 b 686 130 725 136 710 139 b 664 126 679 128 672 126 b 641 189 648 126 641 154 l 641 475 b 372 720 641 630 548 720 b 98 588 259 720 158 679 b 110 539 86 568 91 551 l 194 485 b 244 497 213 472 230 477 b 372 572 279 551 323 572 b 463 482 427 572 463 538 l 463 447 b 456 438 463 443 461 439 b 63 186 221 403 63 350 b 284 -16 63 64 153 -16 b 477 67 354 -16 417 10 b 487 66 481 71 485 71 b 625 -16 516 16 566 -16 z m 206 813 l 549 813 b 585 848 572 813 585 826 l 585 926 b 549 961 585 948 572 961 l 206 961 b 170 926 183 961 170 948 l 170 848 b 206 813 170 826 183 813 z m 247 191 b 449 322 247 268 326 299 b 463 316 458 323 463 321 l 463 210 b 460 201 463 206 462 203 b 312 116 420 154 360 116 b 247 191 274 116 247 146 z "},"ă":{"ha":758,"x_min":0,"x_max":0,"o":"m 625 -16 b 732 5 672 -16 702 -10 b 746 48 747 13 751 27 l 731 111 b 686 130 725 136 710 139 b 664 126 679 128 672 126 b 641 189 648 126 641 154 l 641 475 b 372 720 641 630 548 720 b 98 588 259 720 158 679 b 110 539 86 568 91 551 l 194 485 b 244 497 213 472 230 477 b 372 572 279 551 323 572 b 463 482 427 572 463 538 l 463 447 b 456 438 463 443 461 439 b 63 186 221 403 63 350 b 284 -16 63 64 153 -16 b 477 67 354 -16 417 10 b 487 66 481 71 485 71 b 625 -16 516 16 566 -16 z m 146 987 b 378 795 173 859 265 795 b 607 987 490 795 581 859 b 576 1025 612 1011 600 1025 l 497 1025 b 458 994 476 1025 465 1014 b 378 941 447 957 422 941 b 297 994 333 941 308 957 b 258 1025 290 1014 279 1025 l 179 1025 b 146 987 155 1025 143 1011 z m 247 191 b 449 322 247 268 326 299 b 463 316 458 323 463 321 l 463 210 b 460 201 463 206 462 203 b 312 116 420 154 360 116 b 247 191 274 116 247 146 z "},"ą":{"ha":758,"x_min":0,"x_max":0,"o":"m 284 -16 b 476 66 354 -16 415 9 b 487 66 481 71 485 71 b 581 -10 510 30 542 3 b 583 -20 586 -11 587 -15 b 486 -202 528 -68 486 -134 b 633 -338 486 -298 553 -338 b 720 -323 665 -338 693 -333 b 745 -280 740 -316 746 -301 l 740 -227 b 699 -207 737 -201 725 -198 b 677 -211 692 -210 684 -211 b 641 -165 657 -211 641 -197 b 732 -3 641 -121 663 -68 b 747 45 746 13 753 25 l 731 111 b 686 130 725 136 710 139 b 664 126 679 128 672 126 b 641 189 648 126 641 154 l 641 475 b 372 720 641 630 548 720 b 98 588 259 720 158 679 b 110 539 86 568 91 551 l 194 485 b 244 497 213 472 230 477 b 372 572 279 551 323 572 b 463 482 427 572 463 538 l 463 447 b 456 438 463 443 461 439 b 63 186 221 403 63 350 b 284 -16 63 64 153 -16 z m 247 191 b 449 322 247 268 326 299 b 463 316 458 323 463 321 l 463 210 b 460 201 463 206 462 203 b 312 116 420 154 360 116 b 247 191 274 116 247 146 z "},"ǻ":{"ha":758,"x_min":0,"x_max":0,"o":"m 372 1078 l 455 1078 b 497 1096 472 1078 485 1083 l 586 1181 b 568 1223 609 1203 600 1223 l 460 1223 b 417 1203 442 1223 428 1218 l 351 1121 b 372 1078 332 1098 343 1078 z m 63 186 b 284 -16 63 64 153 -16 b 477 67 354 -16 417 10 b 487 66 481 71 485 71 b 625 -16 516 16 566 -16 b 727 3 669 -16 698 -10 b 746 48 746 11 751 27 l 731 111 b 686 130 725 136 710 139 b 664 126 679 128 672 126 b 641 189 648 126 641 154 l 641 475 b 372 720 641 630 548 720 b 98 588 259 720 158 679 b 110 539 86 568 91 551 l 194 485 b 244 497 213 472 230 477 b 372 572 279 551 323 572 b 463 482 427 572 463 538 l 463 447 b 456 438 463 443 461 439 b 63 186 221 403 63 350 z m 245 894 b 395 761 245 819 312 761 b 543 894 477 761 543 819 b 395 1027 543 968 477 1027 b 245 894 313 1027 245 968 z m 247 191 b 449 322 247 268 326 299 b 463 316 458 323 463 321 l 463 210 b 460 201 463 206 462 203 b 312 116 420 154 360 116 b 247 191 274 116 247 146 z m 345 894 b 395 943 345 922 367 943 b 444 894 420 943 444 922 b 395 847 444 867 420 847 b 345 894 367 847 345 867 z "},"b":{"ha":758,"x_min":0,"x_max":0,"o":"m 426 -16 b 696 352 572 -16 696 101 b 426 720 696 601 563 720 b 279 650 362 720 316 698 b 270 653 275 644 270 646 l 270 912 b 235 947 270 934 258 947 l 126 947 b 91 912 104 947 91 934 l 91 35 b 126 0 91 13 104 0 l 188 0 b 227 29 208 0 221 10 l 244 78 b 254 80 245 83 250 85 b 426 -16 294 19 350 -16 z m 270 259 l 270 446 b 271 456 270 448 270 452 b 402 569 304 538 352 569 b 510 352 470 569 510 489 b 402 133 510 207 468 133 b 271 249 356 133 306 150 b 270 259 270 253 270 256 z "},"c":{"ha":758,"x_min":0,"x_max":0,"o":"m 405 -16 b 684 148 523 -16 622 37 b 668 198 698 172 691 189 l 564 236 b 518 215 544 244 528 236 b 405 134 489 158 453 134 b 274 352 326 134 274 226 b 405 569 274 479 326 569 b 515 473 458 569 491 530 b 559 451 523 452 538 443 l 665 485 b 687 530 687 492 697 509 b 405 720 638 640 549 720 b 88 352 213 720 88 568 b 405 -16 88 135 213 -16 z "},"ç":{"ha":758,"x_min":0,"x_max":0,"o":"m 383 -365 b 554 -217 471 -365 554 -328 b 419 -74 554 -129 505 -82 b 414 -64 413 -73 412 -69 l 437 -20 b 446 -15 438 -16 441 -15 b 687 152 547 -4 633 52 b 668 198 698 173 691 189 l 564 236 b 518 215 544 244 528 236 b 405 134 489 158 453 134 b 274 352 326 134 274 226 b 405 569 274 479 326 569 b 515 473 458 569 491 530 b 559 451 523 452 538 443 l 665 485 b 687 530 687 492 697 509 b 405 720 638 640 549 720 b 88 352 213 720 88 568 b 324 -6 88 168 179 29 b 330 -16 330 -8 332 -13 l 295 -82 b 292 -129 288 -97 287 -112 l 293 -135 b 336 -162 299 -154 313 -163 b 423 -211 404 -160 423 -177 b 380 -254 423 -236 409 -254 b 323 -240 364 -254 343 -249 b 278 -260 301 -231 285 -237 l 263 -306 b 283 -351 255 -327 261 -343 b 383 -365 312 -360 345 -365 z "},"ć":{"ha":758,"x_min":0,"x_max":0,"o":"m 405 -16 b 684 148 523 -16 622 37 b 668 198 698 172 691 189 l 564 236 b 518 215 544 244 528 236 b 405 134 489 158 453 134 b 274 352 326 134 274 226 b 405 569 274 479 326 569 b 515 473 458 569 491 530 b 559 451 523 452 538 443 l 665 485 b 687 530 687 492 697 509 b 405 720 638 640 549 720 b 88 352 213 720 88 568 b 405 -16 88 135 213 -16 z m 367 821 l 472 821 b 515 842 491 821 504 827 l 633 1000 b 611 1043 650 1024 640 1043 l 470 1043 b 428 1018 451 1043 437 1034 l 342 862 b 367 821 330 838 340 821 z "},"ĉ":{"ha":758,"x_min":0,"x_max":0,"o":"m 405 -16 b 684 148 523 -16 622 37 b 668 198 698 172 691 189 l 564 236 b 518 215 544 244 528 236 b 405 134 489 158 453 134 b 274 352 326 134 274 226 b 405 569 274 479 326 569 b 515 473 458 569 491 530 b 559 451 523 452 538 443 l 665 485 b 687 530 687 492 697 509 b 405 720 638 640 549 720 b 88 352 213 720 88 568 b 405 -16 88 135 213 -16 z m 201 818 l 292 818 b 335 836 309 818 322 823 l 400 900 b 410 900 403 903 408 903 l 476 836 b 519 818 489 823 501 818 l 612 818 b 633 861 643 818 652 837 l 494 1030 b 451 1051 482 1044 468 1051 l 361 1051 b 318 1030 343 1051 330 1044 l 181 861 b 201 818 162 838 170 818 z "},"ċ":{"ha":758,"x_min":0,"x_max":0,"o":"m 405 -16 b 684 148 523 -16 622 37 b 668 198 698 172 691 189 l 564 236 b 518 215 544 244 528 236 b 405 134 489 158 453 134 b 274 352 326 134 274 226 b 405 569 274 479 326 569 b 515 473 458 569 491 530 b 559 451 523 452 538 443 l 665 485 b 687 530 687 492 697 509 b 405 720 638 640 549 720 b 88 352 213 720 88 568 b 405 -16 88 135 213 -16 z m 284 924 b 408 801 284 857 340 801 b 530 924 473 801 530 857 b 408 1048 530 991 473 1048 b 284 924 340 1048 284 991 z "},"č":{"ha":758,"x_min":0,"x_max":0,"o":"m 405 -16 b 684 148 523 -16 622 37 b 668 198 698 172 691 189 l 564 236 b 518 215 544 244 528 236 b 405 134 489 158 453 134 b 274 352 326 134 274 226 b 405 569 274 479 326 569 b 515 473 458 569 491 530 b 559 451 523 452 538 443 l 665 485 b 687 530 687 492 697 509 b 405 720 638 640 549 720 b 88 352 213 720 88 568 b 405 -16 88 135 213 -16 z m 181 997 l 319 828 b 362 808 331 814 345 808 l 452 808 b 495 828 470 808 484 814 l 633 997 b 612 1040 652 1020 643 1040 l 521 1040 b 479 1023 504 1040 491 1035 l 413 958 b 403 958 410 956 405 956 l 337 1023 b 294 1040 324 1035 312 1040 l 201 1040 b 181 997 170 1040 162 1020 z "},"d":{"ha":758,"x_min":0,"x_max":0,"o":"m 332 -16 b 504 80 408 -16 463 19 b 514 78 508 85 513 83 l 530 29 b 569 0 537 10 549 0 l 631 0 b 667 35 654 0 667 13 l 667 912 b 631 947 667 934 654 947 l 523 947 b 487 912 500 947 487 934 l 487 653 b 479 650 487 646 482 644 b 332 720 442 698 395 720 b 62 352 194 720 62 601 b 332 -16 62 101 186 -16 z m 247 352 b 356 569 247 489 288 569 b 486 456 405 569 453 538 b 487 446 487 452 487 448 l 487 259 b 486 249 487 256 487 253 b 356 133 452 150 402 133 b 247 352 289 133 247 207 z "},"ď":{"ha":758,"x_min":0,"x_max":0,"o":"m 289 -16 b 455 80 374 -16 420 20 b 463 76 457 83 462 82 l 479 29 b 519 0 485 10 499 0 l 557 0 b 592 35 580 0 592 13 l 592 912 b 557 947 592 934 580 947 l 472 947 b 437 912 449 947 437 934 l 437 665 b 428 663 437 659 432 658 b 298 720 398 702 357 720 b 43 352 160 720 43 601 b 289 -16 43 101 143 -16 z m 207 352 b 314 586 207 489 246 586 b 436 457 364 586 404 543 b 437 447 437 453 437 449 l 437 261 b 436 251 437 259 437 255 b 314 119 404 146 360 119 b 207 352 247 119 207 208 z m 703 705 l 774 705 b 811 737 795 705 808 715 l 832 909 b 799 947 835 932 823 947 l 703 947 b 668 912 681 947 668 934 l 668 740 b 703 705 668 717 681 705 z "},"e":{"ha":758,"x_min":0,"x_max":0,"o":"m 405 -16 b 681 91 514 -16 610 11 b 673 141 697 110 693 129 l 583 196 b 535 184 564 207 548 203 b 409 122 504 141 461 122 b 256 282 319 122 270 176 b 263 289 255 287 258 289 l 664 289 b 702 321 686 289 698 299 b 708 414 707 352 708 386 b 399 720 708 582 591 720 b 64 352 199 720 64 568 b 405 -16 64 109 194 -16 z m 255 419 b 399 581 268 515 309 581 b 532 427 475 581 527 516 b 532 418 532 424 532 422 b 523 412 532 414 527 412 l 261 412 b 255 419 256 412 254 414 z "},"è":{"ha":758,"x_min":0,"x_max":0,"o":"m 405 -16 b 681 91 514 -16 610 11 b 673 141 697 110 693 129 l 583 196 b 535 184 564 207 548 203 b 409 122 504 141 461 122 b 256 282 319 122 270 176 b 263 289 255 287 258 289 l 664 289 b 702 321 686 289 698 299 b 708 414 707 352 708 386 b 399 720 708 582 591 720 b 64 352 199 720 64 568 b 405 -16 64 109 194 -16 z m 169 1000 l 288 842 b 331 821 299 827 312 821 l 436 821 b 461 862 463 821 473 838 l 375 1018 b 333 1043 366 1035 352 1043 l 191 1043 b 169 1000 162 1043 152 1023 z m 255 419 b 399 581 268 515 309 581 b 532 427 475 581 527 516 b 532 418 532 424 532 422 b 523 412 532 414 527 412 l 261 412 b 255 419 256 412 254 414 z "},"é":{"ha":758,"x_min":0,"x_max":0,"o":"m 405 -16 b 681 91 514 -16 610 11 b 673 141 697 110 693 129 l 583 196 b 535 184 564 207 548 203 b 409 122 504 141 461 122 b 256 282 319 122 270 176 b 263 289 255 287 258 289 l 664 289 b 702 321 686 289 698 299 b 708 414 707 352 708 386 b 399 720 708 582 591 720 b 64 352 199 720 64 568 b 405 -16 64 109 194 -16 z m 255 419 b 399 581 268 515 309 581 b 532 427 475 581 527 516 b 532 418 532 424 532 422 b 523 412 532 414 527 412 l 261 412 b 255 419 256 412 254 414 z m 355 821 l 460 821 b 503 842 479 821 491 827 l 620 1000 b 598 1043 638 1024 628 1043 l 457 1043 b 415 1018 438 1043 424 1034 l 330 862 b 355 821 317 838 327 821 z "},"ê":{"ha":758,"x_min":0,"x_max":0,"o":"m 405 -16 b 681 91 514 -16 610 11 b 673 141 697 110 693 129 l 583 196 b 535 184 564 207 548 203 b 409 122 504 141 461 122 b 256 282 319 122 270 176 b 263 289 255 287 258 289 l 664 289 b 702 321 686 289 698 299 b 708 414 707 352 708 386 b 399 720 708 582 591 720 b 64 352 199 720 64 568 b 405 -16 64 109 194 -16 z m 188 818 l 279 818 b 322 836 297 818 309 823 l 388 900 b 398 900 390 903 395 903 l 463 836 b 506 818 476 823 489 818 l 600 818 b 620 861 630 818 639 837 l 481 1030 b 438 1051 470 1044 456 1051 l 348 1051 b 306 1030 331 1051 317 1044 l 168 861 b 188 818 149 838 158 818 z m 255 419 b 399 581 268 515 309 581 b 532 427 475 581 527 516 b 532 418 532 424 532 422 b 523 412 532 414 527 412 l 261 412 b 255 419 256 412 254 414 z "},"ë":{"ha":758,"x_min":0,"x_max":0,"o":"m 405 -16 b 681 91 514 -16 610 11 b 673 141 697 110 693 129 l 583 196 b 535 184 564 207 548 203 b 409 122 504 141 461 122 b 256 282 319 122 270 176 b 263 289 255 287 258 289 l 664 289 b 702 321 686 289 698 299 b 708 414 707 352 708 386 b 399 720 708 582 591 720 b 64 352 199 720 64 568 b 405 -16 64 109 194 -16 z m 119 924 b 242 801 119 857 174 801 b 365 924 308 801 365 857 b 242 1048 365 991 308 1048 b 119 924 174 1048 119 991 z m 255 419 b 399 581 268 515 309 581 b 532 427 475 581 527 516 b 532 418 532 424 532 422 b 523 412 532 414 527 412 l 261 412 b 255 419 256 412 254 414 z m 423 924 b 547 801 423 857 479 801 b 669 924 612 801 669 857 b 547 1048 669 991 612 1048 b 423 924 479 1048 423 991 z "},"ē":{"ha":758,"x_min":0,"x_max":0,"o":"m 405 -16 b 681 91 514 -16 610 11 b 673 141 697 110 693 129 l 583 196 b 535 184 564 207 548 203 b 409 122 504 141 461 122 b 256 282 319 122 270 176 b 263 289 255 287 258 289 l 664 289 b 702 321 686 289 698 299 b 708 414 707 352 708 386 b 399 720 708 582 591 720 b 64 352 199 720 64 568 b 405 -16 64 109 194 -16 z m 222 813 l 566 813 b 601 848 588 813 601 826 l 601 926 b 566 961 601 948 588 961 l 222 961 b 187 926 199 961 187 948 l 187 848 b 222 813 187 826 199 813 z m 255 419 b 399 581 268 515 309 581 b 532 427 475 581 527 516 b 532 418 532 424 532 422 b 523 412 532 414 527 412 l 261 412 b 255 419 256 412 254 414 z "},"ĕ":{"ha":758,"x_min":0,"x_max":0,"o":"m 405 -16 b 681 91 514 -16 610 11 b 673 141 697 110 693 129 l 583 196 b 535 184 564 207 548 203 b 409 122 504 141 461 122 b 256 282 319 122 270 176 b 263 289 255 287 258 289 l 664 289 b 702 321 686 289 698 299 b 708 414 707 352 708 386 b 399 720 708 582 591 720 b 64 352 199 720 64 568 b 405 -16 64 109 194 -16 z m 163 987 b 394 795 189 859 282 795 b 624 987 506 795 597 859 b 592 1025 629 1011 616 1025 l 514 1025 b 475 994 492 1025 481 1014 b 394 941 463 957 438 941 b 313 994 350 941 324 957 b 274 1025 307 1014 295 1025 l 196 1025 b 163 987 172 1025 159 1011 z m 255 419 b 399 581 268 515 309 581 b 532 427 475 581 527 516 b 532 418 532 424 532 422 b 523 412 532 414 527 412 l 261 412 b 255 419 256 412 254 414 z "},"ė":{"ha":758,"x_min":0,"x_max":0,"o":"m 405 -16 b 681 91 514 -16 610 11 b 673 141 697 110 693 129 l 583 196 b 535 184 564 207 548 203 b 409 122 504 141 461 122 b 256 282 319 122 270 176 b 263 289 255 287 258 289 l 664 289 b 702 321 686 289 698 299 b 708 414 707 352 708 386 b 399 720 708 582 591 720 b 64 352 199 720 64 568 b 405 -16 64 109 194 -16 z m 255 419 b 399 581 268 515 309 581 b 532 427 475 581 527 516 b 532 418 532 424 532 422 b 523 412 532 414 527 412 l 261 412 b 255 419 256 412 254 414 z m 271 924 b 395 801 271 857 327 801 b 518 924 461 801 518 857 b 395 1048 518 991 461 1048 b 271 924 327 1048 271 991 z "},"ę":{"ha":758,"x_min":0,"x_max":0,"o":"m 405 -16 b 448 -15 420 -16 434 -15 b 453 -24 455 -14 457 -18 b 398 -192 419 -74 398 -133 b 547 -338 398 -292 458 -338 b 636 -323 582 -338 610 -333 b 662 -280 657 -316 663 -301 l 657 -227 b 616 -207 654 -201 641 -198 b 593 -211 609 -210 601 -211 b 552 -159 569 -211 552 -197 b 672 81 552 -101 577 -29 b 689 101 678 87 683 93 b 673 141 699 114 693 129 l 583 196 b 535 184 564 207 548 203 b 409 122 504 141 461 122 b 256 282 319 122 270 176 b 263 289 255 287 258 289 l 664 289 b 702 321 686 289 698 299 b 708 414 707 352 708 386 b 399 720 708 582 591 720 b 64 352 199 720 64 568 b 405 -16 64 109 194 -16 z m 255 419 b 399 581 268 515 309 581 b 532 427 475 581 527 516 b 532 418 532 424 532 422 b 523 412 532 414 527 412 l 261 412 b 255 419 256 412 254 414 z "},"ě":{"ha":758,"x_min":0,"x_max":0,"o":"m 405 -16 b 681 91 514 -16 610 11 b 673 141 697 110 693 129 l 583 196 b 535 184 564 207 548 203 b 409 122 504 141 461 122 b 256 282 319 122 270 176 b 263 289 255 287 258 289 l 664 289 b 702 321 686 289 698 299 b 708 414 707 352 708 386 b 399 720 708 582 591 720 b 64 352 199 720 64 568 b 405 -16 64 109 194 -16 z m 168 997 l 307 828 b 350 808 318 814 332 808 l 439 808 b 482 828 457 808 471 814 l 620 997 b 600 1040 639 1020 630 1040 l 509 1040 b 466 1023 491 1040 479 1035 l 400 958 b 390 958 398 956 393 956 l 324 1023 b 282 1040 312 1035 299 1040 l 188 1040 b 168 997 158 1040 149 1020 z m 255 419 b 399 581 268 515 309 581 b 532 427 475 581 527 516 b 532 418 532 424 532 422 b 523 412 532 414 527 412 l 261 412 b 255 419 256 412 254 414 z "},"f":{"ha":758,"x_min":0,"x_max":0,"o":"m 240 735 l 240 711 b 232 703 240 706 237 703 l 125 703 b 90 668 102 703 90 691 l 90 592 b 125 557 90 569 102 557 l 232 557 b 240 549 237 557 240 554 l 240 35 b 275 0 240 13 253 0 l 384 0 b 419 35 407 0 419 13 l 419 549 b 427 557 419 554 422 557 l 653 557 b 688 592 676 557 688 569 l 688 668 b 653 703 688 691 676 703 l 427 703 b 419 711 422 703 419 707 l 419 735 b 500 826 419 789 451 826 b 624 798 543 826 582 816 b 670 816 645 788 662 793 l 701 893 b 682 939 708 913 702 931 b 494 976 625 962 568 976 b 240 735 326 976 240 884 z "},"g":{"ha":758,"x_min":0,"x_max":0,"o":"m 376 -268 b 715 -39 573 -268 715 -189 b 465 163 715 87 598 148 l 341 177 b 254 223 278 184 254 196 b 277 266 254 239 261 253 b 287 269 280 269 283 270 b 383 259 317 263 348 259 b 678 489 563 259 678 348 b 638 612 678 535 663 577 b 640 622 634 616 636 620 l 746 684 b 755 734 768 696 770 715 l 686 814 b 636 816 670 833 653 833 l 524 702 b 514 699 521 699 519 698 b 383 720 476 713 432 720 b 90 489 207 720 90 622 b 177 317 90 417 121 356 b 177 307 181 314 181 309 b 98 191 129 275 98 237 b 163 85 98 144 120 111 b 163 74 168 82 168 77 b 56 -76 101 38 56 -11 b 376 -268 56 -191 164 -268 z m 223 -53 b 289 42 223 -24 246 11 b 302 45 294 45 298 47 b 422 32 337 42 378 37 b 549 -40 524 21 549 -14 b 378 -138 549 -101 490 -138 b 223 -53 266 -138 223 -101 z m 263 489 b 383 590 263 544 311 590 b 505 489 457 590 505 544 b 383 386 505 433 457 386 b 263 489 311 386 263 433 z "},"ĝ":{"ha":758,"x_min":0,"x_max":0,"o":"m 378 -312 b 715 -73 573 -312 715 -231 b 465 143 715 62 598 128 l 341 157 b 254 207 278 164 254 178 b 278 253 254 223 261 239 b 288 255 282 255 284 256 b 375 245 316 249 345 245 b 662 482 548 245 662 347 b 635 586 662 520 653 556 b 639 596 633 591 635 595 l 735 636 b 750 684 758 646 763 663 l 702 765 b 654 774 689 787 673 789 l 544 684 b 534 683 542 682 538 682 b 375 720 489 707 436 720 b 90 482 205 720 90 615 b 181 303 90 410 124 346 b 179 293 186 301 184 297 b 98 176 130 263 98 223 b 164 64 98 128 122 91 b 164 54 169 62 169 57 b 56 -106 101 15 56 -39 b 378 -312 56 -231 167 -312 z m 177 818 l 268 818 b 311 836 285 818 298 823 l 376 900 b 386 900 379 903 384 903 l 452 836 b 495 818 465 823 477 818 l 588 818 b 609 861 619 818 628 837 l 470 1030 b 427 1051 458 1044 444 1051 l 337 1051 b 294 1030 319 1051 306 1044 l 157 861 b 177 818 138 838 146 818 z m 223 -86 b 290 20 223 -53 246 -14 b 303 25 295 24 299 25 l 422 11 b 549 -74 524 1 549 -43 b 378 -182 549 -140 490 -182 b 223 -86 266 -182 223 -141 z m 263 482 b 375 590 263 540 307 590 b 487 482 443 590 487 540 b 375 372 487 422 443 372 b 263 482 307 372 263 422 z "},"ğ":{"ha":758,"x_min":0,"x_max":0,"o":"m 378 -312 b 715 -73 573 -312 715 -231 b 465 143 715 62 598 128 l 341 157 b 254 207 278 164 254 178 b 278 253 254 223 261 239 b 288 255 282 255 284 256 b 375 245 316 249 345 245 b 662 482 548 245 662 347 b 635 586 662 520 653 556 b 639 596 633 591 635 595 l 735 636 b 750 684 758 646 763 663 l 702 765 b 654 774 689 787 673 789 l 544 684 b 534 683 542 682 538 682 b 375 720 489 707 436 720 b 90 482 205 720 90 615 b 181 303 90 410 124 346 b 179 293 186 301 184 297 b 98 176 130 263 98 223 b 164 64 98 128 122 91 b 164 54 169 62 169 57 b 56 -106 101 15 56 -39 b 378 -312 56 -231 167 -312 z m 159 987 b 390 795 186 859 278 795 b 620 987 503 795 593 859 b 588 1025 625 1011 612 1025 l 510 1025 b 471 994 489 1025 477 1014 b 390 941 460 957 434 941 b 309 994 346 941 321 957 b 270 1025 303 1014 292 1025 l 192 1025 b 159 987 168 1025 155 1011 z m 223 -86 b 290 20 223 -53 246 -14 b 303 25 295 24 299 25 l 422 11 b 549 -74 524 1 549 -43 b 378 -182 549 -140 490 -182 b 223 -86 266 -182 223 -141 z m 263 482 b 375 590 263 540 307 590 b 487 482 443 590 487 540 b 375 372 487 422 443 372 b 263 482 307 372 263 422 z "},"ġ":{"ha":758,"x_min":0,"x_max":0,"o":"m 376 -268 b 715 -39 573 -268 715 -189 b 465 163 715 87 598 148 l 341 177 b 254 223 278 184 254 196 b 277 266 254 239 261 253 b 287 269 280 269 283 270 b 383 259 317 263 348 259 b 678 489 563 259 678 348 b 638 612 678 535 663 577 b 640 622 634 616 636 620 l 746 684 b 755 734 768 696 770 715 l 686 814 b 636 816 670 833 653 833 l 524 702 b 514 699 521 699 519 698 b 383 720 476 713 432 720 b 90 489 207 720 90 622 b 177 317 90 417 121 356 b 177 307 181 314 181 309 b 98 191 129 275 98 237 b 163 85 98 144 120 111 b 163 74 168 82 168 77 b 56 -76 101 38 56 -11 b 376 -268 56 -191 164 -268 z m 223 -53 b 289 42 223 -24 246 11 b 302 45 294 45 298 47 b 422 32 337 42 378 37 b 549 -40 524 21 549 -14 b 378 -138 549 -101 490 -138 b 223 -53 266 -138 223 -101 z m 263 489 b 383 590 263 544 311 590 b 505 489 457 590 505 544 b 383 386 505 433 457 386 b 263 489 311 386 263 433 z m 280 924 b 404 801 280 857 336 801 b 527 924 470 801 527 857 b 404 1048 527 991 470 1048 b 280 924 336 1048 280 991 z "},"ģ":{"ha":758,"x_min":0,"x_max":0,"o":"m 376 -268 b 715 -39 573 -268 715 -189 b 465 163 715 87 598 148 l 341 177 b 254 223 278 184 254 196 b 277 266 254 239 261 253 b 287 269 280 269 283 270 b 383 259 317 263 348 259 b 678 489 563 259 678 348 b 638 612 678 535 663 577 b 640 622 634 616 636 620 l 746 684 b 755 734 768 696 770 715 l 686 814 b 636 816 670 833 653 833 l 524 702 b 514 699 521 699 519 698 b 383 720 476 713 432 720 b 90 489 207 720 90 622 b 177 317 90 417 121 356 b 177 307 181 314 181 309 b 98 191 129 275 98 237 b 163 85 98 144 120 111 b 163 74 168 82 168 77 b 56 -76 101 38 56 -11 b 376 -268 56 -191 164 -268 z m 223 -53 b 289 42 223 -24 246 11 b 302 45 294 45 298 47 b 422 32 337 42 378 37 b 549 -40 524 21 549 -14 b 378 -138 549 -101 490 -138 b 223 -53 266 -138 223 -101 z m 263 489 b 383 590 263 544 311 590 b 505 489 457 590 505 544 b 383 386 505 433 457 386 b 263 489 311 386 263 433 z m 288 915 b 398 790 288 836 340 790 b 506 896 458 790 506 832 b 439 989 506 933 485 977 b 434 997 434 990 433 992 b 509 1102 449 1034 473 1067 b 509 1153 525 1119 525 1136 l 479 1182 b 428 1182 462 1198 444 1198 b 288 915 328 1083 288 1011 z "},"h":{"ha":758,"x_min":0,"x_max":0,"o":"m 487 455 l 487 35 b 523 0 487 13 500 0 l 631 0 b 667 35 654 0 667 13 l 667 481 b 453 720 667 652 577 720 b 290 630 390 720 332 689 b 282 633 287 624 282 626 l 282 912 b 246 947 282 934 269 947 l 138 947 b 102 912 115 947 102 934 l 102 35 b 138 0 102 13 115 0 l 246 0 b 282 35 269 0 282 13 l 282 405 b 283 415 282 408 282 412 b 419 567 311 505 366 567 b 487 455 457 567 487 529 z "},"ĥ":{"ha":758,"x_min":0,"x_max":0,"o":"m 487 455 l 487 35 b 523 0 487 13 500 0 l 631 0 b 667 35 654 0 667 13 l 667 481 b 453 720 667 652 577 720 b 290 630 390 720 332 689 b 282 633 287 624 282 626 l 282 912 b 246 947 282 934 269 947 l 138 947 b 102 912 115 947 102 934 l 102 35 b 138 0 102 13 115 0 l 246 0 b 282 35 269 0 282 13 l 282 405 b 283 415 282 408 282 412 b 419 567 311 505 366 567 b 487 455 457 567 487 529 z m -10 1009 l 81 1009 b 124 1027 98 1009 111 1014 l 189 1091 b 199 1091 192 1093 197 1093 l 265 1027 b 308 1009 278 1014 290 1009 l 402 1009 b 422 1052 432 1009 441 1028 l 283 1221 b 240 1241 271 1235 258 1241 l 150 1241 b 107 1221 133 1241 119 1235 l -30 1052 b -10 1009 -49 1029 -40 1009 z "},"i":{"ha":758,"x_min":0,"x_max":0,"o":"m 152 0 l 645 0 b 681 35 668 0 681 13 l 681 110 b 645 145 681 133 668 145 l 501 145 b 494 153 496 145 494 148 l 494 668 b 458 703 494 691 481 703 l 172 703 b 136 668 149 703 136 691 l 136 592 b 172 557 136 569 149 557 l 307 557 b 314 549 312 557 314 554 l 314 153 b 307 145 314 148 311 145 l 152 145 b 116 110 129 145 116 133 l 116 35 b 152 0 116 13 129 0 z m 277 924 b 400 801 277 857 332 801 b 523 924 466 801 523 857 b 400 1048 523 991 466 1048 b 277 924 332 1048 277 991 z "},"ì":{"ha":758,"x_min":0,"x_max":0,"o":"m 152 0 l 645 0 b 681 35 668 0 681 13 l 681 110 b 645 145 681 133 668 145 l 501 145 b 494 153 496 145 494 148 l 494 668 b 458 703 494 691 481 703 l 172 703 b 136 668 149 703 136 691 l 136 592 b 172 557 136 569 149 557 l 307 557 b 314 549 312 557 314 554 l 314 153 b 307 145 314 148 311 145 l 152 145 b 116 110 129 145 116 133 l 116 35 b 152 0 116 13 129 0 z m 174 1000 l 293 842 b 336 821 304 827 317 821 l 441 821 b 466 862 468 821 479 838 l 380 1018 b 338 1043 371 1035 357 1043 l 196 1043 b 174 1000 167 1043 157 1023 z "},"í":{"ha":758,"x_min":0,"x_max":0,"o":"m 152 0 l 645 0 b 681 35 668 0 681 13 l 681 110 b 645 145 681 133 668 145 l 501 145 b 494 153 496 145 494 148 l 494 668 b 458 703 494 691 481 703 l 172 703 b 136 668 149 703 136 691 l 136 592 b 172 557 136 569 149 557 l 307 557 b 314 549 312 557 314 554 l 314 153 b 307 145 314 148 311 145 l 152 145 b 116 110 129 145 116 133 l 116 35 b 152 0 116 13 129 0 z m 360 821 l 465 821 b 508 842 484 821 496 827 l 625 1000 b 604 1043 643 1024 633 1043 l 462 1043 b 420 1018 443 1043 429 1034 l 335 862 b 360 821 322 838 332 821 z "},"î":{"ha":758,"x_min":0,"x_max":0,"o":"m 152 0 l 645 0 b 681 35 668 0 681 13 l 681 110 b 645 145 681 133 668 145 l 501 145 b 494 153 496 145 494 148 l 494 668 b 458 703 494 691 481 703 l 172 703 b 136 668 149 703 136 691 l 136 592 b 172 557 136 569 149 557 l 307 557 b 314 549 312 557 314 554 l 314 153 b 307 145 314 148 311 145 l 152 145 b 116 110 129 145 116 133 l 116 35 b 152 0 116 13 129 0 z m 193 818 l 284 818 b 327 836 302 818 314 823 l 393 900 b 403 900 395 903 400 903 l 468 836 b 511 818 481 823 494 818 l 605 818 b 625 861 635 818 644 837 l 486 1030 b 443 1051 475 1044 461 1051 l 354 1051 b 311 1030 336 1051 322 1044 l 173 861 b 193 818 154 838 163 818 z "},"ï":{"ha":758,"x_min":0,"x_max":0,"o":"m 152 0 l 645 0 b 681 35 668 0 681 13 l 681 110 b 645 145 681 133 668 145 l 501 145 b 494 153 496 145 494 148 l 494 668 b 458 703 494 691 481 703 l 172 703 b 136 668 149 703 136 691 l 136 592 b 172 557 136 569 149 557 l 307 557 b 314 549 312 557 314 554 l 314 153 b 307 145 314 148 311 145 l 152 145 b 116 110 129 145 116 133 l 116 35 b 152 0 116 13 129 0 z m 124 924 b 247 801 124 857 179 801 b 370 924 313 801 370 857 b 247 1048 370 991 313 1048 b 124 924 179 1048 124 991 z m 428 924 b 552 801 428 857 484 801 b 674 924 617 801 674 857 b 552 1048 674 991 617 1048 b 428 924 484 1048 428 991 z "},"ĩ":{"ha":758,"x_min":0,"x_max":0,"o":"m 152 0 l 645 0 b 681 35 668 0 681 13 l 681 110 b 645 145 681 133 668 145 l 501 145 b 494 153 496 145 494 148 l 494 668 b 458 703 494 691 481 703 l 172 703 b 136 668 149 703 136 691 l 136 592 b 172 557 136 569 149 557 l 307 557 b 314 549 312 557 314 554 l 314 153 b 307 145 314 148 311 145 l 152 145 b 116 110 129 145 116 133 l 116 35 b 152 0 116 13 129 0 z m 193 811 l 256 811 b 294 845 278 811 289 822 b 324 878 299 870 309 878 b 499 807 365 878 419 807 b 652 984 568 807 636 852 b 617 1021 654 1008 640 1021 l 556 1021 b 519 987 534 1021 524 1010 b 487 953 513 962 500 953 b 313 1025 449 953 390 1025 b 159 848 227 1025 173 976 b 193 811 157 824 170 811 z "},"ī":{"ha":758,"x_min":0,"x_max":0,"o":"m 152 0 l 645 0 b 681 35 668 0 681 13 l 681 110 b 645 145 681 133 668 145 l 501 145 b 494 153 496 145 494 148 l 494 668 b 458 703 494 691 481 703 l 172 703 b 136 668 149 703 136 691 l 136 592 b 172 557 136 569 149 557 l 307 557 b 314 549 312 557 314 554 l 314 153 b 307 145 314 148 311 145 l 152 145 b 116 110 129 145 116 133 l 116 35 b 152 0 116 13 129 0 z m 227 813 l 571 813 b 606 848 593 813 606 826 l 606 926 b 571 961 606 948 593 961 l 227 961 b 192 926 205 961 192 948 l 192 848 b 227 813 192 826 205 813 z "},"ĭ":{"ha":758,"x_min":0,"x_max":0,"o":"m 152 0 l 645 0 b 681 35 668 0 681 13 l 681 110 b 645 145 681 133 668 145 l 501 145 b 494 153 496 145 494 148 l 494 668 b 458 703 494 691 481 703 l 172 703 b 136 668 149 703 136 691 l 136 592 b 172 557 136 569 149 557 l 307 557 b 314 549 312 557 314 554 l 314 153 b 307 145 314 148 311 145 l 152 145 b 116 110 129 145 116 133 l 116 35 b 152 0 116 13 129 0 z m 168 987 b 399 795 194 859 287 795 b 629 987 511 795 602 859 b 597 1025 634 1011 621 1025 l 519 1025 b 480 994 497 1025 486 1014 b 399 941 468 957 443 941 b 318 994 355 941 330 957 b 279 1025 312 1014 301 1025 l 201 1025 b 168 987 177 1025 164 1011 z "},"į":{"ha":758,"x_min":0,"x_max":0,"o":"m 152 0 l 327 0 b 331 -9 333 0 336 -4 b 242 -202 279 -62 242 -130 b 388 -338 242 -298 309 -338 b 476 -323 420 -338 449 -333 b 501 -280 496 -316 503 -301 l 496 -227 b 456 -207 494 -201 481 -198 b 433 -211 448 -210 441 -211 b 396 -165 412 -211 396 -197 b 468 -4 396 -122 414 -68 b 477 0 471 -1 473 0 l 645 0 b 681 35 668 0 681 13 l 681 110 b 645 145 681 133 668 145 l 501 145 b 494 153 496 145 494 148 l 494 668 b 458 703 494 691 481 703 l 172 703 b 136 668 149 703 136 691 l 136 592 b 172 557 136 569 149 557 l 307 557 b 314 549 312 557 314 554 l 314 153 b 307 145 314 148 311 145 l 152 145 b 116 110 129 145 116 133 l 116 35 b 152 0 116 13 129 0 z "},"j":{"ha":758,"x_min":0,"x_max":0,"o":"m 301 -255 b 595 10 479 -255 595 -163 l 595 668 b 559 703 595 691 582 703 l 193 703 b 158 668 170 703 158 691 l 158 592 b 193 557 158 569 170 557 l 408 557 b 415 549 413 557 415 554 l 415 30 b 294 -104 415 -62 370 -104 b 163 -78 250 -104 203 -93 b 117 -98 140 -69 124 -76 l 93 -178 b 114 -222 87 -198 93 -215 b 301 -255 165 -242 227 -255 z m 378 924 b 501 801 378 857 433 801 b 624 924 567 801 624 857 b 501 1048 624 991 567 1048 b 378 924 433 1048 378 991 z "},"ĵ":{"ha":758,"x_min":0,"x_max":0,"o":"m 301 -255 b 595 10 479 -255 595 -163 l 595 668 b 559 703 595 691 582 703 l 193 703 b 158 668 170 703 158 691 l 158 592 b 193 557 158 569 170 557 l 408 557 b 415 549 413 557 415 554 l 415 30 b 294 -104 415 -62 370 -104 b 163 -78 250 -104 203 -93 b 117 -98 140 -69 124 -76 l 93 -178 b 114 -222 87 -198 93 -215 b 301 -255 165 -242 227 -255 z m 294 818 l 385 818 b 428 836 403 818 415 823 l 494 900 b 504 900 496 903 501 903 l 569 836 b 612 818 582 823 595 818 l 706 818 b 726 861 736 818 745 837 l 587 1030 b 544 1051 576 1044 562 1051 l 455 1051 b 412 1030 437 1051 423 1044 l 274 861 b 294 818 255 838 264 818 z "},"k":{"ha":758,"x_min":0,"x_max":0,"o":"m 145 0 l 254 0 b 289 35 277 0 289 13 l 289 212 b 293 221 289 216 290 217 l 360 298 b 371 297 364 303 369 302 l 524 24 b 566 0 533 8 547 0 l 691 0 b 716 43 718 0 730 18 l 491 437 b 491 447 489 441 489 443 l 681 660 b 662 703 701 683 692 703 l 548 703 b 504 683 530 703 515 697 l 298 444 b 289 447 294 439 289 441 l 289 912 b 254 947 289 934 277 947 l 145 947 b 110 912 122 947 110 934 l 110 35 b 145 0 110 13 122 0 z "},"ķ":{"ha":758,"x_min":0,"x_max":0,"o":"m 145 0 l 254 0 b 289 35 277 0 289 13 l 289 212 b 293 221 289 216 290 217 l 360 298 b 371 297 364 303 369 302 l 524 24 b 566 0 533 8 547 0 l 691 0 b 716 43 718 0 730 18 l 491 437 b 491 447 489 441 489 443 l 681 660 b 662 703 701 683 692 703 l 548 703 b 504 683 530 703 515 697 l 298 444 b 289 447 294 439 289 441 l 289 912 b 254 947 289 934 277 947 l 145 947 b 110 912 122 947 110 934 l 110 35 b 145 0 110 13 122 0 z m 278 -452 l 308 -481 b 359 -481 324 -497 342 -497 b 499 -215 458 -383 499 -311 b 389 -90 499 -135 447 -90 b 280 -196 328 -90 280 -131 b 347 -288 280 -232 302 -277 b 352 -297 352 -289 354 -292 b 278 -402 337 -333 313 -366 b 278 -452 261 -418 261 -436 z "},"l":{"ha":758,"x_min":0,"x_max":0,"o":"m 120 0 l 636 0 b 672 35 659 0 672 13 l 672 110 b 636 145 672 133 659 145 l 473 145 b 466 153 468 145 466 148 l 466 912 b 431 947 466 934 453 947 l 140 947 b 105 912 117 947 105 934 l 105 837 b 140 802 105 814 117 802 l 279 802 b 287 794 284 802 287 798 l 287 153 b 279 145 287 148 284 145 l 120 145 b 85 110 97 145 85 133 l 85 35 b 120 0 85 13 97 0 z "},"ĺ":{"ha":758,"x_min":0,"x_max":0,"o":"m 120 0 l 636 0 b 672 35 659 0 672 13 l 672 110 b 636 145 672 133 659 145 l 473 145 b 466 153 468 145 466 148 l 466 912 b 431 947 466 934 453 947 l 140 947 b 105 912 117 947 105 934 l 105 837 b 140 802 105 814 117 802 l 279 802 b 287 794 284 802 287 798 l 287 153 b 279 145 287 148 284 145 l 120 145 b 85 110 97 145 85 133 l 85 35 b 120 0 85 13 97 0 z m 336 1014 l 453 1014 b 497 1032 471 1014 485 1019 l 636 1163 b 620 1206 660 1186 652 1206 l 461 1206 b 418 1186 443 1206 429 1199 l 316 1057 b 336 1014 297 1034 307 1014 z "},"ļ":{"ha":758,"x_min":0,"x_max":0,"o":"m 120 0 l 636 0 b 672 35 659 0 672 13 l 672 110 b 636 145 672 133 659 145 l 473 145 b 466 153 468 145 466 148 l 466 912 b 431 947 466 934 453 947 l 140 947 b 105 912 117 947 105 934 l 105 837 b 140 802 105 814 117 802 l 279 802 b 287 794 284 802 287 798 l 287 153 b 279 145 287 148 284 145 l 120 145 b 85 110 97 145 85 133 l 85 35 b 120 0 85 13 97 0 z m 264 -452 l 294 -481 b 345 -481 311 -497 328 -497 b 485 -215 444 -383 485 -311 b 375 -90 485 -135 433 -90 b 266 -196 314 -90 266 -131 b 333 -288 266 -232 288 -277 b 338 -297 338 -289 340 -292 b 264 -402 323 -333 299 -366 b 264 -452 247 -418 247 -436 z "},"ľ":{"ha":758,"x_min":0,"x_max":0,"o":"m 120 0 l 636 0 b 672 35 659 0 672 13 l 672 110 b 636 145 672 133 659 145 l 473 145 b 466 153 468 145 466 148 l 466 912 b 431 947 466 934 453 947 l 140 947 b 105 912 117 947 105 934 l 105 837 b 140 802 105 814 117 802 l 279 802 b 287 794 284 802 287 798 l 287 153 b 279 145 287 148 284 145 l 120 145 b 85 110 97 145 85 133 l 85 35 b 120 0 85 13 97 0 z m 606 705 l 697 705 b 734 737 718 705 731 715 l 755 910 b 722 948 758 933 746 948 l 606 948 b 571 913 583 948 571 936 l 571 740 b 606 705 571 717 583 705 z "},"m":{"ha":758,"x_min":0,"x_max":0,"o":"m 572 451 l 572 35 b 607 0 572 13 585 0 l 686 0 b 721 35 708 0 721 13 l 721 485 b 566 720 721 628 681 720 b 443 634 521 720 477 693 b 434 634 441 629 437 629 b 303 718 412 687 370 718 b 181 630 258 718 213 692 b 170 630 177 624 172 624 l 157 674 b 117 703 150 693 138 703 l 81 703 b 45 668 58 703 45 691 l 45 35 b 81 0 45 13 58 0 l 160 0 b 196 35 183 0 196 13 l 196 433 b 197 443 196 436 196 439 b 274 577 218 524 249 577 b 308 449 297 577 308 553 l 308 34 b 343 -1 308 11 321 -1 l 423 -1 b 458 34 446 -1 458 11 l 458 433 b 460 443 458 436 458 439 b 537 578 481 525 511 578 b 572 451 559 578 572 554 z "},"n":{"ha":758,"x_min":0,"x_max":0,"o":"m 487 455 l 487 35 b 523 0 487 13 500 0 l 631 0 b 667 35 654 0 667 13 l 667 481 b 468 720 667 652 577 720 b 275 604 385 720 316 679 b 265 605 271 597 268 598 l 242 674 b 203 703 236 693 223 703 l 138 703 b 102 668 115 703 102 691 l 102 35 b 138 0 102 13 115 0 l 246 0 b 282 35 269 0 282 13 l 282 407 b 283 417 282 409 282 413 b 419 567 311 506 366 567 b 487 455 457 567 487 529 z "},"ñ":{"ha":758,"x_min":0,"x_max":0,"o":"m 487 455 l 487 35 b 523 0 487 13 500 0 l 631 0 b 667 35 654 0 667 13 l 667 481 b 468 720 667 652 577 720 b 275 604 385 720 316 679 b 265 605 271 597 268 598 l 242 674 b 203 703 236 693 223 703 l 138 703 b 102 668 115 703 102 691 l 102 35 b 138 0 102 13 115 0 l 246 0 b 282 35 269 0 282 13 l 282 407 b 283 417 282 409 282 413 b 419 567 311 506 366 567 b 487 455 457 567 487 529 z m 189 811 l 253 811 b 290 845 274 811 285 822 b 321 878 295 870 306 878 b 495 807 361 878 415 807 b 648 984 564 807 633 852 b 614 1021 650 1008 636 1021 l 552 1021 b 515 987 530 1021 520 1010 b 484 953 509 962 496 953 b 309 1025 446 953 386 1025 b 155 848 223 1025 169 976 b 189 811 153 824 167 811 z "},"ń":{"ha":758,"x_min":0,"x_max":0,"o":"m 487 455 l 487 35 b 523 0 487 13 500 0 l 631 0 b 667 35 654 0 667 13 l 667 481 b 468 720 667 652 577 720 b 275 604 385 720 316 679 b 265 605 271 597 268 598 l 242 674 b 203 703 236 693 223 703 l 138 703 b 102 668 115 703 102 691 l 102 35 b 138 0 102 13 115 0 l 246 0 b 282 35 269 0 282 13 l 282 407 b 283 417 282 409 282 413 b 419 567 311 506 366 567 b 487 455 457 567 487 529 z m 356 821 l 461 821 b 504 842 480 821 492 827 l 621 1000 b 600 1043 639 1024 629 1043 l 458 1043 b 417 1018 439 1043 426 1034 l 331 862 b 356 821 318 838 328 821 z "},"ņ":{"ha":758,"x_min":0,"x_max":0,"o":"m 487 455 l 487 35 b 523 0 487 13 500 0 l 631 0 b 667 35 654 0 667 13 l 667 481 b 468 720 667 652 577 720 b 275 604 385 720 316 679 b 265 605 271 597 268 598 l 242 674 b 203 703 236 693 223 703 l 138 703 b 102 668 115 703 102 691 l 102 35 b 138 0 102 13 115 0 l 246 0 b 282 35 269 0 282 13 l 282 407 b 283 417 282 409 282 413 b 419 567 311 506 366 567 b 487 455 457 567 487 529 z m 275 -452 l 306 -481 b 356 -481 322 -497 340 -497 b 496 -215 456 -383 496 -311 b 386 -90 496 -135 444 -90 b 278 -196 326 -90 278 -131 b 345 -288 278 -232 299 -277 b 350 -297 350 -289 351 -292 b 275 -402 335 -333 311 -366 b 275 -452 259 -418 259 -436 z "},"ň":{"ha":758,"x_min":0,"x_max":0,"o":"m 487 455 l 487 35 b 523 0 487 13 500 0 l 631 0 b 667 35 654 0 667 13 l 667 481 b 468 720 667 652 577 720 b 275 604 385 720 316 679 b 265 605 271 597 268 598 l 242 674 b 203 703 236 693 223 703 l 138 703 b 102 668 115 703 102 691 l 102 35 b 138 0 102 13 115 0 l 246 0 b 282 35 269 0 282 13 l 282 407 b 283 417 282 409 282 413 b 419 567 311 506 366 567 b 487 455 457 567 487 529 z m 169 997 l 308 828 b 351 808 319 814 333 808 l 441 808 b 484 828 458 808 472 814 l 621 997 b 601 1040 640 1020 631 1040 l 510 1040 b 467 1023 492 1040 480 1035 l 402 958 b 391 958 399 956 394 956 l 326 1023 b 283 1040 313 1035 301 1040 l 189 1040 b 169 997 159 1040 150 1020 z "},"o":{"ha":758,"x_min":0,"x_max":0,"o":"m 378 134 b 235 352 292 134 235 226 b 378 569 235 479 292 569 b 523 352 466 569 523 479 b 378 134 523 226 466 134 z m 49 352 b 378 -16 49 135 181 -16 b 708 352 577 -16 708 135 b 378 720 708 568 577 720 b 49 352 181 720 49 568 z "},"ò":{"ha":758,"x_min":0,"x_max":0,"o":"m 378 134 b 235 352 292 134 235 226 b 378 569 235 479 292 569 b 523 352 466 569 523 479 b 378 134 523 226 466 134 z m 49 352 b 378 -16 49 135 181 -16 b 708 352 577 -16 708 135 b 378 720 708 568 577 720 b 49 352 181 720 49 568 z m 154 1000 l 273 842 b 316 821 284 827 297 821 l 420 821 b 446 862 448 821 458 838 l 360 1018 b 318 1043 351 1035 337 1043 l 176 1043 b 154 1000 146 1043 136 1023 z "},"ó":{"ha":758,"x_min":0,"x_max":0,"o":"m 378 134 b 235 352 292 134 235 226 b 378 569 235 479 292 569 b 523 352 466 569 523 479 b 378 134 523 226 466 134 z m 49 352 b 378 -16 49 135 181 -16 b 708 352 577 -16 708 135 b 378 720 708 568 577 720 b 49 352 181 720 49 568 z m 340 821 l 444 821 b 487 842 463 821 476 827 l 605 1000 b 583 1043 622 1024 612 1043 l 442 1043 b 400 1018 423 1043 409 1034 l 314 862 b 340 821 302 838 312 821 z "},"ô":{"ha":758,"x_min":0,"x_max":0,"o":"m 378 134 b 235 352 292 134 235 226 b 378 569 235 479 292 569 b 523 352 466 569 523 479 b 378 134 523 226 466 134 z m 49 352 b 378 -16 49 135 181 -16 b 708 352 577 -16 708 135 b 378 720 708 568 577 720 b 49 352 181 720 49 568 z m 173 818 l 264 818 b 307 836 282 818 294 823 l 372 900 b 383 900 375 903 380 903 l 448 836 b 491 818 461 823 473 818 l 585 818 b 605 861 615 818 624 837 l 466 1030 b 423 1051 455 1044 441 1051 l 333 1051 b 290 1030 316 1051 302 1044 l 153 861 b 173 818 134 838 143 818 z "},"õ":{"ha":758,"x_min":0,"x_max":0,"o":"m 378 134 b 235 352 292 134 235 226 b 378 569 235 479 292 569 b 523 352 466 569 523 479 b 378 134 523 226 466 134 z m 49 352 b 378 -16 49 135 181 -16 b 708 352 577 -16 708 135 b 378 720 708 568 577 720 b 49 352 181 720 49 568 z m 173 811 l 236 811 b 274 845 258 811 269 822 b 304 878 279 870 289 878 b 479 807 345 878 399 807 b 631 984 548 807 616 852 b 597 1021 634 1008 620 1021 l 535 1021 b 499 987 514 1021 504 1010 b 467 953 492 962 480 953 b 293 1025 429 953 370 1025 b 139 848 207 1025 153 976 b 173 811 136 824 150 811 z "},"ö":{"ha":758,"x_min":0,"x_max":0,"o":"m 378 134 b 235 352 292 134 235 226 b 378 569 235 479 292 569 b 523 352 466 569 523 479 b 378 134 523 226 466 134 z m 49 352 b 378 -16 49 135 181 -16 b 708 352 577 -16 708 135 b 378 720 708 568 577 720 b 49 352 181 720 49 568 z m 104 924 b 227 801 104 857 159 801 b 350 924 293 801 350 857 b 227 1048 350 991 293 1048 b 104 924 159 1048 104 991 z m 408 924 b 532 801 408 857 463 801 b 654 924 597 801 654 857 b 532 1048 654 991 597 1048 b 408 924 463 1048 408 991 z "},"ō":{"ha":758,"x_min":0,"x_max":0,"o":"m 378 134 b 235 352 292 134 235 226 b 378 569 235 479 292 569 b 523 352 466 569 523 479 b 378 134 523 226 466 134 z m 49 352 b 378 -16 49 135 181 -16 b 708 352 577 -16 708 135 b 378 720 708 568 577 720 b 49 352 181 720 49 568 z m 207 813 l 551 813 b 586 848 573 813 586 826 l 586 926 b 551 961 586 948 573 961 l 207 961 b 172 926 184 961 172 948 l 172 848 b 207 813 172 826 184 813 z "},"ŏ":{"ha":758,"x_min":0,"x_max":0,"o":"m 378 134 b 235 352 292 134 235 226 b 378 569 235 479 292 569 b 523 352 466 569 523 479 b 378 134 523 226 466 134 z m 49 352 b 378 -16 49 135 181 -16 b 708 352 577 -16 708 135 b 378 720 708 568 577 720 b 49 352 181 720 49 568 z m 148 987 b 379 795 174 859 266 795 b 609 987 491 795 582 859 b 577 1025 614 1011 601 1025 l 499 1025 b 460 994 477 1025 466 1014 b 379 941 448 957 423 941 b 298 994 335 941 309 957 b 259 1025 292 1014 280 1025 l 181 1025 b 148 987 157 1025 144 1011 z "},"ő":{"ha":758,"x_min":0,"x_max":0,"o":"m 378 134 b 235 352 292 134 235 226 b 378 569 235 479 292 569 b 523 352 466 569 523 479 b 378 134 523 226 466 134 z m 49 352 b 378 -16 49 135 181 -16 b 708 352 577 -16 708 135 b 378 720 708 568 577 720 b 49 352 181 720 49 568 z m 207 813 l 293 813 b 335 837 312 813 324 821 l 428 990 b 405 1033 443 1015 433 1033 l 285 1033 b 245 1006 265 1033 253 1024 l 181 855 b 207 813 170 831 181 813 z m 475 813 l 562 813 b 605 835 581 813 593 819 l 718 990 b 697 1033 736 1014 726 1033 l 578 1033 b 537 1008 559 1033 545 1024 l 451 855 b 475 813 437 830 447 813 z "},"p":{"ha":758,"x_min":0,"x_max":0,"o":"m 426 -16 b 696 352 569 -16 696 101 b 434 720 696 602 566 720 b 258 615 356 720 298 686 b 247 616 254 609 250 610 l 229 674 b 188 703 222 693 208 703 l 126 703 b 91 668 104 703 91 691 l 91 -202 b 126 -237 91 -225 104 -237 l 235 -237 b 270 -202 258 -237 270 -225 l 270 44 b 279 47 270 51 275 52 b 426 -16 314 8 361 -16 z m 270 256 l 270 442 b 271 452 270 444 270 448 b 402 569 307 545 359 569 b 510 352 470 569 510 494 b 402 135 510 211 470 135 b 271 246 350 135 303 158 b 270 256 270 250 270 254 z "},"q":{"ha":758,"x_min":0,"x_max":0,"o":"m 332 -16 b 480 48 398 -16 444 8 b 487 44 484 53 487 51 l 487 -202 b 523 -237 487 -225 500 -237 l 631 -237 b 667 -202 654 -237 667 -225 l 667 668 b 631 703 667 691 654 703 l 569 703 b 529 674 549 703 535 693 l 510 616 b 500 615 508 610 504 609 b 323 720 460 686 402 720 b 62 352 192 720 62 602 b 332 -16 62 101 188 -16 z m 247 352 b 356 569 247 494 288 569 b 486 452 399 569 451 545 b 487 442 487 448 487 444 l 487 256 b 486 246 487 254 487 250 b 356 135 455 158 408 135 b 247 352 288 135 247 211 z "},"r":{"ha":758,"x_min":0,"x_max":0,"o":"m 168 0 l 277 0 b 312 35 299 0 312 13 l 312 402 b 313 412 312 404 312 408 b 449 569 346 508 402 569 b 523 413 492 569 514 529 b 561 379 525 389 538 376 l 673 389 b 706 428 694 391 707 404 b 481 720 698 624 624 720 b 301 611 407 720 343 688 b 290 612 297 606 292 606 l 273 673 b 232 703 266 693 253 703 l 168 703 b 133 668 145 703 133 691 l 133 35 b 168 0 133 13 145 0 z "},"ŕ":{"ha":758,"x_min":0,"x_max":0,"o":"m 168 0 l 277 0 b 312 35 299 0 312 13 l 312 402 b 313 412 312 404 312 408 b 449 569 346 508 402 569 b 523 413 492 569 514 529 b 561 379 525 389 538 376 l 673 389 b 706 428 694 391 707 404 b 481 720 698 624 624 720 b 301 611 407 720 343 688 b 290 612 297 606 292 606 l 273 673 b 232 703 266 693 253 703 l 168 703 b 133 668 145 703 133 691 l 133 35 b 168 0 133 13 145 0 z m 342 821 l 447 821 b 490 842 466 821 479 827 l 607 1000 b 586 1043 625 1024 615 1043 l 444 1043 b 403 1018 426 1043 412 1034 l 317 862 b 342 821 304 838 314 821 z "},"ŗ":{"ha":758,"x_min":0,"x_max":0,"o":"m 168 0 l 277 0 b 312 35 299 0 312 13 l 312 402 b 313 412 312 404 312 408 b 449 569 346 508 402 569 b 523 413 492 569 514 529 b 561 379 525 389 538 376 l 673 389 b 706 428 694 391 707 404 b 481 720 698 624 624 720 b 301 611 407 720 343 688 b 290 612 297 606 292 606 l 273 673 b 232 703 266 693 253 703 l 168 703 b 133 668 145 703 133 691 l 133 35 b 168 0 133 13 145 0 z m 102 -452 l 133 -481 b 183 -481 149 -497 167 -497 b 323 -215 283 -383 323 -311 b 213 -90 323 -135 271 -90 b 105 -196 153 -90 105 -131 b 172 -288 105 -232 126 -277 b 177 -297 177 -289 178 -292 b 102 -402 162 -333 138 -366 b 102 -452 86 -418 86 -436 z "},"ř":{"ha":758,"x_min":0,"x_max":0,"o":"m 168 0 l 277 0 b 312 35 299 0 312 13 l 312 402 b 313 412 312 404 312 408 b 449 569 346 508 402 569 b 523 413 492 569 514 529 b 561 379 525 389 538 376 l 673 389 b 706 428 694 391 707 404 b 481 720 698 624 624 720 b 301 611 407 720 343 688 b 290 612 297 606 292 606 l 273 673 b 232 703 266 693 253 703 l 168 703 b 133 668 145 703 133 691 l 133 35 b 168 0 133 13 145 0 z m 155 997 l 294 828 b 337 808 306 814 319 808 l 427 808 b 470 828 444 808 458 814 l 607 997 b 587 1040 626 1020 617 1040 l 496 1040 b 453 1023 479 1040 466 1035 l 388 958 b 378 958 385 956 380 956 l 312 1023 b 269 1040 299 1035 287 1040 l 176 1040 b 155 997 145 1040 136 1020 z "},"s":{"ha":758,"x_min":0,"x_max":0,"o":"m 383 -16 b 684 218 611 -16 684 102 b 279 514 684 481 279 386 b 372 581 279 557 314 581 b 510 513 433 581 473 559 b 559 504 524 494 542 490 l 638 562 b 645 611 655 576 659 593 b 380 720 588 683 506 720 b 109 506 193 720 109 617 b 513 189 109 223 513 335 b 385 115 513 141 473 115 b 239 199 328 115 274 146 b 191 211 226 218 210 223 l 105 155 b 95 107 86 143 81 126 b 383 -16 153 27 241 -16 z "},"ś":{"ha":758,"x_min":0,"x_max":0,"o":"m 383 -16 b 684 218 611 -16 684 102 b 279 514 684 481 279 386 b 372 581 279 557 314 581 b 510 513 433 581 473 559 b 559 504 524 494 542 490 l 638 562 b 645 611 655 576 659 593 b 380 720 588 683 506 720 b 109 506 193 720 109 617 b 513 189 109 223 513 335 b 385 115 513 141 473 115 b 239 199 328 115 274 146 b 191 211 226 218 210 223 l 105 155 b 95 107 86 143 81 126 b 383 -16 153 27 241 -16 z m 347 821 l 452 821 b 495 842 471 821 484 827 l 612 1000 b 591 1043 630 1024 620 1043 l 449 1043 b 408 1018 431 1043 417 1034 l 322 862 b 347 821 309 838 319 821 z "},"ŝ":{"ha":758,"x_min":0,"x_max":0,"o":"m 383 -16 b 684 218 611 -16 684 102 b 279 514 684 481 279 386 b 372 581 279 557 314 581 b 510 513 433 581 473 559 b 559 504 524 494 542 490 l 638 562 b 645 611 655 576 659 593 b 380 720 588 683 506 720 b 109 506 193 720 109 617 b 513 189 109 223 513 335 b 385 115 513 141 473 115 b 239 199 328 115 274 146 b 191 211 226 218 210 223 l 105 155 b 95 107 86 143 81 126 b 383 -16 153 27 241 -16 z m 181 818 l 271 818 b 314 836 289 818 302 823 l 380 900 b 390 900 383 903 388 903 l 456 836 b 499 818 468 823 481 818 l 592 818 b 612 861 622 818 631 837 l 473 1030 b 431 1051 462 1044 448 1051 l 341 1051 b 298 1030 323 1051 309 1044 l 160 861 b 181 818 141 838 150 818 z "},"ş":{"ha":758,"x_min":0,"x_max":0,"o":"m 371 -365 b 543 -217 460 -365 543 -328 b 408 -74 543 -129 494 -82 b 403 -64 402 -73 400 -69 l 426 -20 b 434 -15 427 -16 429 -15 b 684 218 622 3 684 111 b 279 514 684 481 279 386 b 372 581 279 557 314 581 b 510 513 433 581 473 559 b 559 504 524 494 542 490 l 638 562 b 645 611 655 576 659 593 b 380 720 588 683 506 720 b 109 506 193 720 109 617 b 513 189 109 223 513 335 b 385 115 513 141 473 115 b 239 199 328 115 274 146 b 191 211 226 218 210 223 l 105 155 b 95 107 86 143 82 126 b 311 -11 143 42 211 1 b 316 -21 316 -13 318 -16 l 284 -82 b 280 -129 277 -98 275 -112 l 282 -135 b 324 -162 288 -154 302 -163 b 412 -211 393 -160 412 -177 b 369 -254 412 -236 398 -254 b 312 -240 352 -254 332 -249 b 266 -260 289 -231 274 -237 l 251 -306 b 271 -351 244 -327 250 -343 b 371 -365 301 -360 333 -365 z "},"š":{"ha":758,"x_min":0,"x_max":0,"o":"m 383 -16 b 684 218 611 -16 684 102 b 279 514 684 481 279 386 b 372 581 279 557 314 581 b 510 513 433 581 473 559 b 559 504 524 494 542 490 l 638 562 b 645 611 655 576 659 593 b 380 720 588 683 506 720 b 109 506 193 720 109 617 b 513 189 109 223 513 335 b 385 115 513 141 473 115 b 239 199 328 115 274 146 b 191 211 226 218 210 223 l 105 155 b 95 107 86 143 81 126 b 383 -16 153 27 241 -16 z m 160 997 l 299 828 b 342 808 311 814 324 808 l 432 808 b 475 828 449 808 463 814 l 612 997 b 592 1040 631 1020 622 1040 l 501 1040 b 458 1023 484 1040 471 1035 l 393 958 b 383 958 390 956 385 956 l 317 1023 b 274 1040 304 1035 292 1040 l 181 1040 b 160 997 150 1040 141 1020 z "},"ș":{"ha":758,"x_min":0,"x_max":0,"o":"m 383 -16 b 684 218 611 -16 684 102 b 279 514 684 481 279 386 b 372 581 279 557 314 581 b 510 513 433 581 473 559 b 559 504 524 494 542 490 l 638 562 b 645 611 655 576 659 593 b 380 720 588 683 506 720 b 109 506 193 720 109 617 b 513 189 109 223 513 335 b 385 115 513 141 473 115 b 239 199 328 115 274 146 b 191 211 226 218 210 223 l 105 155 b 95 107 86 143 81 126 b 383 -16 153 27 241 -16 z m 270 -452 l 301 -481 b 351 -481 317 -497 335 -497 b 491 -215 451 -383 491 -311 b 381 -90 491 -135 439 -90 b 273 -196 321 -90 273 -131 b 340 -288 273 -232 294 -277 b 345 -297 345 -289 346 -292 b 270 -402 330 -333 306 -366 b 270 -452 254 -418 254 -436 z "},"t":{"ha":758,"x_min":0,"x_max":0,"o":"m 452 -16 b 654 33 535 -16 591 -3 b 667 80 673 43 676 59 l 629 160 b 581 172 619 183 601 186 b 470 134 544 146 508 134 b 381 253 413 134 381 181 l 381 549 b 389 557 381 554 385 557 l 612 557 b 648 592 635 557 648 569 l 648 668 b 612 703 648 691 635 703 l 389 703 b 381 711 384 703 381 706 l 381 840 b 346 875 381 862 369 875 l 239 875 b 203 840 216 875 203 862 l 203 711 b 196 703 203 706 201 703 l 95 703 b 59 668 72 703 59 691 l 59 592 b 95 557 59 569 72 557 l 196 557 b 203 549 201 557 203 554 l 203 234 b 452 -16 203 64 292 -16 z "},"ț":{"ha":758,"x_min":0,"x_max":0,"o":"m 452 -16 b 654 33 535 -16 591 -3 b 667 80 673 43 676 59 l 629 160 b 581 172 619 183 601 186 b 470 134 544 146 508 134 b 381 253 413 134 381 181 l 381 549 b 389 557 381 554 385 557 l 612 557 b 648 592 635 557 648 569 l 648 668 b 612 703 648 691 635 703 l 389 703 b 381 711 384 703 381 706 l 381 840 b 346 875 381 862 369 875 l 239 875 b 203 840 216 875 203 862 l 203 711 b 196 703 203 706 201 703 l 95 703 b 59 668 72 703 59 691 l 59 592 b 95 557 59 569 72 557 l 196 557 b 203 549 201 557 203 554 l 203 234 b 452 -16 203 64 292 -16 z m 292 -452 l 322 -481 b 372 -481 338 -497 356 -497 b 513 -215 472 -383 513 -311 b 403 -90 513 -135 461 -90 b 294 -196 342 -90 294 -131 b 361 -288 294 -232 316 -277 b 366 -297 366 -289 367 -292 b 292 -402 351 -333 327 -366 b 292 -452 275 -418 275 -436 z "},"ť":{"ha":758,"x_min":0,"x_max":0,"o":"m 452 -16 b 654 33 535 -16 591 -3 b 667 80 673 43 676 59 l 629 160 b 581 172 619 183 601 186 b 470 134 544 146 508 134 b 381 253 413 134 381 181 l 381 549 b 389 557 381 554 385 557 l 612 557 b 648 592 635 557 648 569 l 648 668 b 612 703 648 691 635 703 l 389 703 b 381 711 384 703 381 706 l 381 840 b 346 875 381 862 369 875 l 239 875 b 203 840 216 875 203 862 l 203 711 b 196 703 203 706 201 703 l 95 703 b 59 668 72 703 59 691 l 59 592 b 95 557 59 569 72 557 l 196 557 b 203 549 201 557 203 554 l 203 234 b 452 -16 203 64 292 -16 z m 500 790 l 591 790 b 628 823 612 790 625 801 l 649 996 b 616 1034 652 1019 640 1034 l 500 1034 b 465 999 477 1034 465 1021 l 465 826 b 500 790 465 803 477 790 z "},"u":{"ha":758,"x_min":0,"x_max":0,"o":"m 290 -16 b 482 98 370 -16 439 23 b 492 98 486 105 490 105 l 515 29 b 554 0 521 10 534 0 l 620 0 b 655 35 643 0 655 13 l 655 668 b 620 703 655 691 643 703 l 511 703 b 476 668 489 703 476 691 l 476 297 b 475 287 476 294 476 290 b 338 135 447 197 391 135 b 270 249 301 135 270 173 l 270 668 b 235 703 270 691 258 703 l 126 703 b 91 668 104 703 91 691 l 91 222 b 290 -16 91 49 178 -16 z "},"ù":{"ha":758,"x_min":0,"x_max":0,"o":"m 290 -16 b 482 98 370 -16 439 23 b 492 98 486 105 490 105 l 515 29 b 554 0 521 10 534 0 l 620 0 b 655 35 643 0 655 13 l 655 668 b 620 703 655 691 643 703 l 511 703 b 476 668 489 703 476 691 l 476 297 b 475 287 476 294 476 290 b 338 135 447 197 391 135 b 270 249 301 135 270 173 l 270 668 b 235 703 270 691 258 703 l 126 703 b 91 668 104 703 91 691 l 91 222 b 290 -16 91 49 178 -16 z m 154 1000 l 273 842 b 316 821 284 827 297 821 l 420 821 b 446 862 448 821 458 838 l 360 1018 b 318 1043 351 1035 337 1043 l 176 1043 b 154 1000 146 1043 136 1023 z "},"ú":{"ha":758,"x_min":0,"x_max":0,"o":"m 290 -16 b 482 98 370 -16 439 23 b 492 98 486 105 490 105 l 515 29 b 554 0 521 10 534 0 l 620 0 b 655 35 643 0 655 13 l 655 668 b 620 703 655 691 643 703 l 511 703 b 476 668 489 703 476 691 l 476 297 b 475 287 476 294 476 290 b 338 135 447 197 391 135 b 270 249 301 135 270 173 l 270 668 b 235 703 270 691 258 703 l 126 703 b 91 668 104 703 91 691 l 91 222 b 290 -16 91 49 178 -16 z m 340 821 l 444 821 b 487 842 463 821 476 827 l 605 1000 b 583 1043 622 1024 612 1043 l 442 1043 b 400 1018 423 1043 409 1034 l 314 862 b 340 821 302 838 312 821 z "},"û":{"ha":758,"x_min":0,"x_max":0,"o":"m 290 -16 b 482 98 370 -16 439 23 b 492 98 486 105 490 105 l 515 29 b 554 0 521 10 534 0 l 620 0 b 655 35 643 0 655 13 l 655 668 b 620 703 655 691 643 703 l 511 703 b 476 668 489 703 476 691 l 476 297 b 475 287 476 294 476 290 b 338 135 447 197 391 135 b 270 249 301 135 270 173 l 270 668 b 235 703 270 691 258 703 l 126 703 b 91 668 104 703 91 691 l 91 222 b 290 -16 91 49 178 -16 z m 173 818 l 264 818 b 307 836 282 818 294 823 l 372 900 b 383 900 375 903 380 903 l 448 836 b 491 818 461 823 473 818 l 585 818 b 605 861 615 818 624 837 l 466 1030 b 423 1051 455 1044 441 1051 l 333 1051 b 290 1030 316 1051 302 1044 l 153 861 b 173 818 134 838 143 818 z "},"ü":{"ha":758,"x_min":0,"x_max":0,"o":"m 290 -16 b 482 98 370 -16 439 23 b 492 98 486 105 490 105 l 515 29 b 554 0 521 10 534 0 l 620 0 b 655 35 643 0 655 13 l 655 668 b 620 703 655 691 643 703 l 511 703 b 476 668 489 703 476 691 l 476 297 b 475 287 476 294 476 290 b 338 135 447 197 391 135 b 270 249 301 135 270 173 l 270 668 b 235 703 270 691 258 703 l 126 703 b 91 668 104 703 91 691 l 91 222 b 290 -16 91 49 178 -16 z m 104 924 b 227 801 104 857 159 801 b 350 924 293 801 350 857 b 227 1048 350 991 293 1048 b 104 924 159 1048 104 991 z m 408 924 b 532 801 408 857 463 801 b 654 924 597 801 654 857 b 532 1048 654 991 597 1048 b 408 924 463 1048 408 991 z "},"ũ":{"ha":758,"x_min":0,"x_max":0,"o":"m 290 -16 b 482 98 370 -16 439 23 b 492 98 486 105 490 105 l 515 29 b 554 0 521 10 534 0 l 620 0 b 655 35 643 0 655 13 l 655 668 b 620 703 655 691 643 703 l 511 703 b 476 668 489 703 476 691 l 476 297 b 475 287 476 294 476 290 b 338 135 447 197 391 135 b 270 249 301 135 270 173 l 270 668 b 235 703 270 691 258 703 l 126 703 b 91 668 104 703 91 691 l 91 222 b 290 -16 91 49 178 -16 z m 173 811 l 236 811 b 274 845 258 811 269 822 b 304 878 279 870 289 878 b 479 807 345 878 399 807 b 631 984 548 807 616 852 b 597 1021 634 1008 620 1021 l 535 1021 b 499 987 514 1021 504 1010 b 467 953 492 962 480 953 b 293 1025 429 953 370 1025 b 139 848 207 1025 153 976 b 173 811 136 824 150 811 z "},"ū":{"ha":758,"x_min":0,"x_max":0,"o":"m 290 -16 b 482 98 370 -16 439 23 b 492 98 486 105 490 105 l 515 29 b 554 0 521 10 534 0 l 620 0 b 655 35 643 0 655 13 l 655 668 b 620 703 655 691 643 703 l 511 703 b 476 668 489 703 476 691 l 476 297 b 475 287 476 294 476 290 b 338 135 447 197 391 135 b 270 249 301 135 270 173 l 270 668 b 235 703 270 691 258 703 l 126 703 b 91 668 104 703 91 691 l 91 222 b 290 -16 91 49 178 -16 z m 207 813 l 551 813 b 586 848 573 813 586 826 l 586 926 b 551 961 586 948 573 961 l 207 961 b 172 926 184 961 172 948 l 172 848 b 207 813 172 826 184 813 z "},"ŭ":{"ha":758,"x_min":0,"x_max":0,"o":"m 290 -16 b 482 98 370 -16 439 23 b 492 98 486 105 490 105 l 515 29 b 554 0 521 10 534 0 l 620 0 b 655 35 643 0 655 13 l 655 668 b 620 703 655 691 643 703 l 511 703 b 476 668 489 703 476 691 l 476 297 b 475 287 476 294 476 290 b 338 135 447 197 391 135 b 270 249 301 135 270 173 l 270 668 b 235 703 270 691 258 703 l 126 703 b 91 668 104 703 91 691 l 91 222 b 290 -16 91 49 178 -16 z m 148 987 b 379 795 174 859 266 795 b 609 987 491 795 582 859 b 577 1025 614 1011 601 1025 l 499 1025 b 460 994 477 1025 466 1014 b 379 941 448 957 423 941 b 298 994 335 941 309 957 b 259 1025 292 1014 280 1025 l 181 1025 b 148 987 157 1025 144 1011 z "},"ů":{"ha":758,"x_min":0,"x_max":0,"o":"m 290 -16 b 482 98 370 -16 439 23 b 492 98 486 105 490 105 l 515 29 b 554 0 521 10 534 0 l 620 0 b 655 35 643 0 655 13 l 655 668 b 620 703 655 691 643 703 l 511 703 b 476 668 489 703 476 691 l 476 297 b 475 287 476 294 476 290 b 338 135 447 197 391 135 b 270 249 301 135 270 173 l 270 668 b 235 703 270 691 258 703 l 126 703 b 91 668 104 703 91 691 l 91 222 b 290 -16 91 49 178 -16 z m 216 941 b 379 788 216 855 289 788 b 542 941 468 788 542 856 b 379 1091 542 1024 468 1091 b 216 941 289 1091 216 1024 z m 323 941 b 379 999 323 972 348 999 b 434 941 409 999 434 972 b 379 883 434 908 409 883 b 323 941 348 883 323 908 z "},"ű":{"ha":758,"x_min":0,"x_max":0,"o":"m 290 -16 b 482 98 370 -16 439 23 b 492 98 486 105 490 105 l 515 29 b 554 0 521 10 534 0 l 620 0 b 655 35 643 0 655 13 l 655 668 b 620 703 655 691 643 703 l 511 703 b 476 668 489 703 476 691 l 476 297 b 475 287 476 294 476 290 b 338 135 447 197 391 135 b 270 249 301 135 270 173 l 270 668 b 235 703 270 691 258 703 l 126 703 b 91 668 104 703 91 691 l 91 222 b 290 -16 91 49 178 -16 z m 207 813 l 293 813 b 335 837 312 813 324 821 l 428 990 b 405 1033 443 1015 433 1033 l 285 1033 b 245 1006 265 1033 253 1024 l 181 855 b 207 813 170 831 181 813 z m 475 813 l 562 813 b 605 835 581 813 593 819 l 718 990 b 697 1033 736 1014 726 1033 l 578 1033 b 537 1008 559 1033 545 1024 l 451 855 b 475 813 437 830 447 813 z "},"ų":{"ha":758,"x_min":0,"x_max":0,"o":"m 290 -16 b 482 98 370 -16 439 23 b 492 98 486 105 491 105 l 521 6 b 519 -4 523 1 523 -1 b 407 -202 461 -52 407 -125 b 553 -338 407 -298 473 -338 b 640 -323 586 -338 614 -333 b 665 -280 660 -316 667 -301 l 660 -227 b 620 -207 658 -201 645 -198 b 597 -211 612 -210 605 -211 b 562 -165 577 -211 562 -197 b 636 -19 562 -126 580 -77 b 655 25 649 -5 655 8 l 655 668 b 620 703 655 691 643 703 l 511 703 b 476 668 489 703 476 691 l 476 297 b 475 287 476 294 476 290 b 338 135 447 197 391 135 b 270 249 301 135 270 173 l 270 668 b 235 703 270 691 258 703 l 126 703 b 91 668 104 703 91 691 l 91 222 b 290 -16 91 49 178 -16 z "},"v":{"ha":758,"x_min":0,"x_max":0,"o":"m 337 0 l 422 0 b 463 25 441 0 455 8 b 543 217 490 76 516 135 l 688 663 b 659 703 696 688 684 703 l 564 703 b 524 673 544 703 530 693 l 390 210 b 380 210 388 203 383 203 l 246 673 b 206 703 240 693 226 703 l 100 703 b 71 663 74 703 63 688 l 216 217 b 295 25 242 134 268 76 b 337 0 304 8 318 0 z "},"w":{"ha":758,"x_min":0,"x_max":0,"o":"m 199 0 l 246 0 b 288 27 265 0 279 8 b 328 154 304 67 319 112 l 374 371 b 384 371 375 378 383 378 l 427 160 b 467 27 437 106 449 66 b 508 0 475 8 489 0 l 566 0 b 607 27 585 0 600 8 b 646 178 625 68 636 112 l 727 665 b 694 703 731 689 718 703 l 616 703 b 578 670 595 703 581 693 l 525 292 b 516 292 524 285 518 285 l 471 492 b 436 596 462 533 449 566 b 394 621 428 614 413 621 l 367 621 b 326 595 348 621 335 614 b 294 496 313 567 303 535 l 245 292 b 236 293 244 285 237 287 l 184 670 b 146 703 182 693 168 703 l 62 703 b 29 665 38 703 25 689 l 116 165 b 158 25 124 120 139 68 b 199 0 165 8 181 0 z "},"ŵ":{"ha":758,"x_min":0,"x_max":0,"o":"m 199 0 l 246 0 b 288 27 265 0 279 8 b 328 154 304 67 319 112 l 374 371 b 384 371 375 378 383 378 l 427 160 b 467 27 437 106 449 66 b 508 0 475 8 489 0 l 566 0 b 607 27 585 0 600 8 b 646 178 625 68 636 112 l 727 665 b 694 703 731 689 718 703 l 616 703 b 578 670 595 703 581 693 l 525 292 b 516 292 524 285 518 285 l 471 492 b 436 596 462 533 449 566 b 394 621 428 614 413 621 l 367 621 b 326 595 348 621 335 614 b 294 496 313 567 303 535 l 245 292 b 236 293 244 285 237 287 l 184 670 b 146 703 182 693 168 703 l 62 703 b 29 665 38 703 25 689 l 116 165 b 158 25 124 120 139 68 b 199 0 165 8 181 0 z m 173 818 l 264 818 b 307 836 282 818 294 823 l 372 900 b 383 900 375 903 380 903 l 448 836 b 491 818 461 823 473 818 l 585 818 b 605 861 615 818 624 837 l 466 1030 b 423 1051 455 1044 441 1051 l 333 1051 b 290 1030 316 1051 302 1044 l 153 861 b 173 818 134 838 143 818 z "},"ẁ":{"ha":758,"x_min":0,"x_max":0,"o":"m 199 0 l 246 0 b 288 27 265 0 279 8 b 328 154 304 67 319 112 l 374 371 b 384 371 375 378 383 378 l 427 160 b 467 27 437 106 449 66 b 508 0 475 8 489 0 l 566 0 b 607 27 585 0 600 8 b 646 178 625 68 636 112 l 727 665 b 694 703 731 689 718 703 l 616 703 b 578 670 595 703 581 693 l 525 292 b 516 292 524 285 518 285 l 471 492 b 436 596 462 533 449 566 b 394 621 428 614 413 621 l 367 621 b 326 595 348 621 335 614 b 294 496 313 567 303 535 l 245 292 b 236 293 244 285 237 287 l 184 670 b 146 703 182 693 168 703 l 62 703 b 29 665 38 703 25 689 l 116 165 b 158 25 124 120 139 68 b 199 0 165 8 181 0 z m 154 1000 l 273 842 b 316 821 284 827 297 821 l 420 821 b 446 862 448 821 458 838 l 360 1018 b 318 1043 351 1035 337 1043 l 176 1043 b 154 1000 146 1043 136 1023 z "},"ẃ":{"ha":758,"x_min":0,"x_max":0,"o":"m 199 0 l 246 0 b 288 27 265 0 279 8 b 328 154 304 67 319 112 l 374 371 b 384 371 375 378 383 378 l 427 160 b 467 27 437 106 449 66 b 508 0 475 8 489 0 l 566 0 b 607 27 585 0 600 8 b 646 178 625 68 636 112 l 727 665 b 694 703 731 689 718 703 l 616 703 b 578 670 595 703 581 693 l 525 292 b 516 292 524 285 518 285 l 471 492 b 436 596 462 533 449 566 b 394 621 428 614 413 621 l 367 621 b 326 595 348 621 335 614 b 294 496 313 567 303 535 l 245 292 b 236 293 244 285 237 287 l 184 670 b 146 703 182 693 168 703 l 62 703 b 29 665 38 703 25 689 l 116 165 b 158 25 124 120 139 68 b 199 0 165 8 181 0 z m 340 821 l 444 821 b 487 842 463 821 476 827 l 605 1000 b 583 1043 622 1024 612 1043 l 442 1043 b 400 1018 423 1043 409 1034 l 314 862 b 340 821 302 838 312 821 z "},"ẅ":{"ha":758,"x_min":0,"x_max":0,"o":"m 199 0 l 246 0 b 288 27 265 0 279 8 b 328 154 304 67 319 112 l 374 371 b 384 371 375 378 383 378 l 427 160 b 467 27 437 106 449 66 b 508 0 475 8 489 0 l 566 0 b 607 27 585 0 600 8 b 646 178 625 68 636 112 l 727 665 b 694 703 731 689 718 703 l 616 703 b 578 670 595 703 581 693 l 525 292 b 516 292 524 285 518 285 l 471 492 b 436 596 462 533 449 566 b 394 621 428 614 413 621 l 367 621 b 326 595 348 621 335 614 b 294 496 313 567 303 535 l 245 292 b 236 293 244 285 237 287 l 184 670 b 146 703 182 693 168 703 l 62 703 b 29 665 38 703 25 689 l 116 165 b 158 25 124 120 139 68 b 199 0 165 8 181 0 z m 104 924 b 227 801 104 857 159 801 b 350 924 293 801 350 857 b 227 1048 350 991 293 1048 b 104 924 159 1048 104 991 z m 408 924 b 532 801 408 857 463 801 b 654 924 597 801 654 857 b 532 1048 654 991 597 1048 b 408 924 463 1048 408 991 z "},"x":{"ha":758,"x_min":0,"x_max":0,"o":"m 551 0 l 665 0 b 688 43 694 0 705 19 l 481 354 b 481 364 479 357 479 360 l 676 660 b 653 703 691 684 681 703 l 537 703 b 495 679 518 703 505 697 l 385 494 b 375 494 383 489 378 489 l 263 679 b 221 703 253 697 240 703 l 100 703 b 77 660 71 703 61 684 l 277 361 b 277 351 279 357 279 355 l 73 43 b 97 0 58 19 68 0 l 207 0 b 249 24 226 0 239 8 l 371 222 b 381 222 374 227 379 227 l 508 23 b 551 0 518 6 532 0 z "},"y":{"ha":758,"x_min":0,"x_max":0,"o":"m 194 -271 b 481 -11 346 -271 428 -170 l 706 663 b 677 703 713 687 702 703 l 571 703 b 530 673 551 703 535 693 l 407 244 b 396 244 404 237 399 237 l 265 674 b 226 703 259 693 246 703 l 107 703 b 80 663 82 703 71 687 l 260 168 b 327 20 282 109 304 61 b 327 10 328 16 330 14 b 153 -106 298 -63 260 -106 b 139 -105 148 -106 144 -106 b 128 -143 130 -105 126 -119 l 135 -235 b 170 -270 136 -258 148 -269 b 194 -271 178 -271 187 -271 z "},"ý":{"ha":758,"x_min":0,"x_max":0,"o":"m 194 -271 b 481 -11 346 -271 428 -170 l 706 663 b 677 703 713 687 702 703 l 571 703 b 530 673 551 703 535 693 l 407 244 b 396 244 404 237 399 237 l 265 674 b 226 703 259 693 246 703 l 107 703 b 80 663 82 703 71 687 l 260 168 b 327 20 282 109 304 61 b 327 10 328 16 330 14 b 153 -106 298 -63 260 -106 b 139 -105 148 -106 144 -106 b 128 -143 130 -105 126 -119 l 135 -235 b 170 -270 136 -258 148 -269 b 194 -271 178 -271 187 -271 z m 350 821 l 455 821 b 497 842 473 821 486 827 l 615 1000 b 593 1043 633 1024 622 1043 l 452 1043 b 410 1018 433 1043 419 1034 l 324 862 b 350 821 312 838 322 821 z "},"ÿ":{"ha":758,"x_min":0,"x_max":0,"o":"m 194 -271 b 481 -11 346 -271 428 -170 l 706 663 b 677 703 713 687 702 703 l 571 703 b 530 673 551 703 535 693 l 407 244 b 396 244 404 237 399 237 l 265 674 b 226 703 259 693 246 703 l 107 703 b 80 663 82 703 71 687 l 260 168 b 327 20 282 109 304 61 b 327 10 328 16 330 14 b 153 -106 298 -63 260 -106 b 139 -105 148 -106 144 -106 b 128 -143 130 -105 126 -119 l 135 -235 b 170 -270 136 -258 148 -269 b 194 -271 178 -271 187 -271 z m 114 924 b 237 801 114 857 169 801 b 360 924 303 801 360 857 b 237 1048 360 991 303 1048 b 114 924 169 1048 114 991 z m 418 924 b 542 801 418 857 473 801 b 664 924 607 801 664 857 b 542 1048 664 991 607 1048 b 418 924 473 1048 418 991 z "},"ŷ":{"ha":758,"x_min":0,"x_max":0,"o":"m 194 -271 b 481 -11 346 -271 428 -170 l 706 663 b 677 703 713 687 702 703 l 571 703 b 530 673 551 703 535 693 l 407 244 b 396 244 404 237 399 237 l 265 674 b 226 703 259 693 246 703 l 107 703 b 80 663 82 703 71 687 l 260 168 b 327 20 282 109 304 61 b 327 10 328 16 330 14 b 153 -106 298 -63 260 -106 b 139 -105 148 -106 144 -106 b 128 -143 130 -105 126 -119 l 135 -235 b 170 -270 136 -258 148 -269 b 194 -271 178 -271 187 -271 z m 183 818 l 274 818 b 317 836 292 818 304 823 l 383 900 b 393 900 385 903 390 903 l 458 836 b 501 818 471 823 484 818 l 595 818 b 615 861 625 818 634 837 l 476 1030 b 433 1051 465 1044 451 1051 l 343 1051 b 301 1030 326 1051 312 1044 l 163 861 b 183 818 144 838 153 818 z "},"ỳ":{"ha":758,"x_min":0,"x_max":0,"o":"m 194 -271 b 481 -11 346 -271 428 -170 l 706 663 b 677 703 713 687 702 703 l 571 703 b 530 673 551 703 535 693 l 407 244 b 396 244 404 237 399 237 l 265 674 b 226 703 259 693 246 703 l 107 703 b 80 663 82 703 71 687 l 260 168 b 327 20 282 109 304 61 b 327 10 328 16 330 14 b 153 -106 298 -63 260 -106 b 139 -105 148 -106 144 -106 b 128 -143 130 -105 126 -119 l 135 -235 b 170 -270 136 -258 148 -269 b 194 -271 178 -271 187 -271 z m 164 1000 l 283 842 b 326 821 294 827 307 821 l 431 821 b 456 862 458 821 468 838 l 370 1018 b 328 1043 361 1035 347 1043 l 186 1043 b 164 1000 157 1043 146 1023 z "},"z":{"ha":758,"x_min":0,"x_max":0,"o":"m 100 124 l 100 35 b 135 0 100 13 112 0 l 626 0 b 662 35 649 0 662 13 l 662 110 b 626 145 662 133 649 145 l 307 145 b 302 154 301 145 298 149 l 572 467 b 625 539 591 490 610 514 b 638 583 635 554 638 567 l 638 668 b 602 703 638 691 625 703 l 154 703 b 119 668 131 703 119 691 l 119 592 b 154 557 119 569 131 557 l 433 557 b 437 548 439 557 441 553 l 177 253 b 112 168 154 226 131 197 b 100 124 102 153 100 140 z "},"ź":{"ha":758,"x_min":0,"x_max":0,"o":"m 100 124 l 100 35 b 135 0 100 13 112 0 l 626 0 b 662 35 649 0 662 13 l 662 110 b 626 145 662 133 649 145 l 307 145 b 302 154 301 145 298 149 l 572 467 b 625 539 591 490 610 514 b 638 583 635 554 638 567 l 638 668 b 602 703 638 691 625 703 l 154 703 b 119 668 131 703 119 691 l 119 592 b 154 557 119 569 131 557 l 433 557 b 437 548 439 557 441 553 l 177 253 b 112 168 154 226 131 197 b 100 124 102 153 100 140 z m 342 821 l 447 821 b 490 842 466 821 479 827 l 607 1000 b 586 1043 625 1024 615 1043 l 444 1043 b 403 1018 426 1043 412 1034 l 317 862 b 342 821 304 838 314 821 z "},"ż":{"ha":758,"x_min":0,"x_max":0,"o":"m 100 124 l 100 35 b 135 0 100 13 112 0 l 626 0 b 662 35 649 0 662 13 l 662 110 b 626 145 662 133 649 145 l 307 145 b 302 154 301 145 298 149 l 572 467 b 625 539 591 490 610 514 b 638 583 635 554 638 567 l 638 668 b 602 703 638 691 625 703 l 154 703 b 119 668 131 703 119 691 l 119 592 b 154 557 119 569 131 557 l 433 557 b 437 548 439 557 441 553 l 177 253 b 112 168 154 226 131 197 b 100 124 102 153 100 140 z m 259 924 b 383 801 259 857 314 801 b 505 924 448 801 505 857 b 383 1048 505 991 448 1048 b 259 924 314 1048 259 991 z "},"ž":{"ha":758,"x_min":0,"x_max":0,"o":"m 100 124 l 100 35 b 135 0 100 13 112 0 l 626 0 b 662 35 649 0 662 13 l 662 110 b 626 145 662 133 649 145 l 307 145 b 302 154 301 145 298 149 l 572 467 b 625 539 591 490 610 514 b 638 583 635 554 638 567 l 638 668 b 602 703 638 691 625 703 l 154 703 b 119 668 131 703 119 691 l 119 592 b 154 557 119 569 131 557 l 433 557 b 437 548 439 557 441 553 l 177 253 b 112 168 154 226 131 197 b 100 124 102 153 100 140 z m 155 997 l 294 828 b 337 808 306 814 319 808 l 427 808 b 470 828 444 808 458 814 l 607 997 b 587 1040 626 1020 617 1040 l 496 1040 b 453 1023 479 1040 466 1035 l 388 958 b 378 958 385 956 380 956 l 312 1023 b 269 1040 299 1035 287 1040 l 176 1040 b 155 997 145 1040 136 1020 z "},"ß":{"ha":758,"x_min":0,"x_max":0,"o":"m 437 -10 b 711 263 610 -10 711 82 b 518 510 711 407 650 492 b 518 514 511 511 511 513 b 665 702 633 539 665 612 b 375 963 665 870 544 963 b 91 703 218 963 91 880 l 91 35 b 126 0 91 13 104 0 l 235 0 b 270 35 258 0 270 13 l 270 687 b 375 816 270 768 306 816 b 480 698 431 816 480 784 b 394 561 480 625 456 583 b 364 520 374 553 364 540 l 364 455 b 399 418 364 433 376 420 b 524 266 495 408 524 367 b 438 138 524 172 489 138 b 390 141 419 138 404 139 b 351 111 365 145 351 135 l 351 33 b 381 -5 351 13 361 -3 b 437 -10 399 -9 418 -10 z "},"æ":{"ha":758,"x_min":0,"x_max":0,"o":"m 527 -16 b 717 136 611 -16 673 29 b 698 197 730 169 721 192 l 636 211 b 593 184 615 216 601 206 b 528 110 577 136 552 110 b 452 299 476 110 457 165 b 460 307 452 304 455 307 l 687 307 b 723 340 708 307 721 318 b 730 423 727 370 730 402 b 524 720 730 588 654 720 b 394 654 471 720 428 696 b 384 654 391 650 386 650 b 246 720 352 693 307 720 b 44 568 154 720 81 674 b 66 523 37 547 44 532 l 128 499 b 173 521 149 490 164 499 b 250 593 196 574 221 593 b 309 479 284 593 309 552 l 309 438 b 302 429 309 434 307 431 b 28 191 129 413 28 355 b 211 -16 28 56 104 -16 b 361 72 283 -16 326 18 b 371 71 364 76 369 76 b 527 -16 409 14 461 -16 z m 173 196 b 297 321 173 279 203 307 b 307 314 303 322 307 319 b 321 199 308 273 313 234 b 321 189 322 196 322 193 b 231 111 301 136 264 111 b 173 196 194 111 173 136 z m 452 424 b 520 597 458 545 486 597 b 588 444 559 597 586 535 b 588 423 588 438 590 431 b 581 417 588 419 585 417 l 460 417 b 452 424 455 417 452 419 z "},"ǽ":{"ha":758,"x_min":0,"x_max":0,"o":"m 527 -16 b 717 136 611 -16 673 29 b 698 197 730 169 721 192 l 636 211 b 593 184 615 216 601 206 b 528 110 577 136 552 110 b 452 299 476 110 457 165 b 460 307 452 304 455 307 l 687 307 b 723 340 708 307 721 318 b 730 423 727 370 730 402 b 524 720 730 588 654 720 b 394 654 471 720 428 696 b 384 654 391 650 386 650 b 246 720 352 693 307 720 b 44 568 154 720 81 674 b 66 523 37 547 44 532 l 128 499 b 173 521 149 490 164 499 b 250 593 196 574 221 593 b 309 479 284 593 309 552 l 309 438 b 302 429 309 434 307 431 b 28 191 129 413 28 355 b 211 -16 28 56 104 -16 b 361 72 283 -16 326 18 b 371 71 364 76 369 76 b 527 -16 409 14 461 -16 z m 173 196 b 297 321 173 279 203 307 b 307 314 303 322 307 319 b 321 199 308 273 313 234 b 321 189 322 196 322 193 b 231 111 301 136 264 111 b 173 196 194 111 173 136 z m 340 821 l 444 821 b 487 842 463 821 476 827 l 605 1000 b 583 1043 622 1024 612 1043 l 442 1043 b 400 1018 423 1043 409 1034 l 314 862 b 340 821 302 838 312 821 z m 452 424 b 520 597 458 545 486 597 b 588 444 559 597 586 535 b 588 423 588 438 590 431 b 581 417 588 419 585 417 l 460 417 b 452 424 455 417 452 419 z "},"ð":{"ha":758,"x_min":0,"x_max":0,"o":"m 380 -16 b 711 417 582 -16 711 117 b 598 798 711 578 669 705 b 600 809 595 802 595 806 l 659 851 b 668 900 678 864 681 881 l 640 938 b 591 946 628 957 609 960 l 514 890 b 504 890 511 888 508 888 b 223 965 431 937 337 962 b 186 932 202 965 189 953 l 174 856 b 207 818 170 832 182 819 b 357 788 264 817 314 807 b 359 778 364 787 364 782 l 309 742 b 302 693 292 730 289 712 l 326 658 b 375 649 338 639 356 636 l 452 705 b 462 702 456 707 460 706 b 530 509 497 652 520 588 b 524 506 532 503 528 501 b 360 569 481 554 417 569 b 67 282 196 569 67 455 b 380 -16 67 93 196 -16 z m 253 283 b 371 418 253 365 309 418 b 527 340 433 418 481 402 b 530 331 529 337 530 335 b 383 134 515 193 467 134 b 253 283 304 134 253 191 z "},"ø":{"ha":758,"x_min":0,"x_max":0,"o":"m 67 0 l 133 0 b 176 20 150 0 164 6 l 187 34 b 198 35 189 38 194 38 b 378 -16 249 3 308 -16 b 708 352 577 -16 708 135 b 649 576 708 439 687 515 b 649 586 646 580 646 582 l 711 660 b 691 703 730 684 721 703 l 625 703 b 582 683 607 703 593 697 l 571 669 b 559 668 568 665 563 665 b 378 720 509 701 448 720 b 49 352 181 720 49 568 b 109 128 49 265 71 188 b 109 117 111 124 111 121 l 47 43 b 67 0 28 19 37 0 z m 235 352 b 378 569 235 479 292 569 b 455 542 407 569 432 559 b 455 530 458 538 457 534 l 250 287 b 240 289 246 282 241 283 b 235 352 236 309 235 331 z m 303 173 l 508 417 b 518 414 511 422 516 420 b 523 352 521 395 523 374 b 378 134 523 226 466 134 b 303 162 350 134 324 144 b 303 173 299 165 301 169 z "},"ǿ":{"ha":758,"x_min":0,"x_max":0,"o":"m 67 0 l 133 0 b 176 20 150 0 164 6 l 187 34 b 198 35 189 38 194 38 b 378 -16 249 3 308 -16 b 708 352 577 -16 708 135 b 649 576 708 439 687 515 b 649 586 646 580 646 582 l 711 660 b 691 703 730 684 721 703 l 625 703 b 582 683 607 703 593 697 l 571 669 b 559 668 568 665 563 665 b 378 720 509 701 448 720 b 49 352 181 720 49 568 b 109 128 49 265 71 188 b 109 117 111 124 111 121 l 47 43 b 67 0 28 19 37 0 z m 235 352 b 378 569 235 479 292 569 b 455 542 407 569 432 559 b 455 530 458 538 457 534 l 250 287 b 240 289 246 282 241 283 b 235 352 236 309 235 331 z m 340 821 l 444 821 b 487 842 463 821 476 827 l 605 1000 b 583 1043 622 1024 612 1043 l 442 1043 b 400 1018 423 1043 409 1034 l 314 862 b 340 821 302 838 312 821 z m 303 173 l 508 417 b 518 414 511 422 516 420 b 523 352 521 395 523 374 b 378 134 523 226 466 134 b 303 162 350 134 324 144 b 303 173 299 165 301 169 z "},"þ":{"ha":758,"x_min":0,"x_max":0,"o":"m 426 -16 b 696 352 569 -16 696 101 b 426 720 696 602 566 720 b 279 654 360 720 314 699 b 270 657 275 648 270 650 l 270 910 b 235 946 270 933 258 946 l 126 946 b 91 910 104 946 91 933 l 91 -208 b 126 -244 91 -231 104 -244 l 235 -244 b 270 -208 258 -244 270 -231 l 270 42 b 279 44 270 48 275 49 b 426 -16 313 6 360 -16 z m 270 256 l 270 442 b 271 452 270 444 270 448 b 402 569 307 545 359 569 b 508 352 468 569 508 492 b 402 135 508 211 468 135 b 271 246 350 135 303 158 b 270 256 270 250 270 254 z "},"đ":{"ha":758,"x_min":0,"x_max":0,"o":"m 424 760 l 480 760 b 487 753 485 760 487 756 l 487 657 b 479 654 487 650 482 648 b 332 720 443 699 398 720 b 78 352 203 720 78 601 b 332 -16 78 101 194 -16 b 504 81 415 -16 466 20 b 514 80 508 86 513 86 l 530 29 b 569 0 537 10 549 0 l 614 0 b 649 35 636 0 649 13 l 649 753 b 657 760 649 758 653 760 l 712 760 b 747 795 735 760 747 773 l 747 842 b 712 878 747 865 735 878 l 657 878 b 649 885 652 878 649 880 l 649 913 b 614 947 649 934 636 947 l 523 947 b 487 912 500 947 487 934 l 487 885 b 480 878 487 880 484 878 l 424 878 b 389 842 402 878 389 865 l 389 795 b 424 760 389 773 402 760 z m 250 352 b 356 569 250 489 289 569 b 486 456 405 569 453 538 b 487 446 487 452 487 448 l 487 259 b 486 249 487 256 487 253 b 356 135 452 152 402 135 b 250 352 290 135 250 208 z "},"ħ":{"ha":758,"x_min":0,"x_max":0,"o":"m 66 760 l 107 760 b 115 753 112 760 115 756 l 115 35 b 150 0 115 13 128 0 l 241 0 b 277 35 264 0 277 13 l 277 414 b 278 424 277 417 277 420 b 419 567 309 510 365 567 b 492 455 460 567 492 529 l 492 35 b 528 0 492 13 505 0 l 619 0 b 654 35 641 0 654 13 l 654 481 b 453 720 654 652 569 720 b 285 636 388 720 327 692 b 277 639 282 631 277 633 l 277 753 b 284 760 277 758 279 760 l 354 760 b 389 795 376 760 389 773 l 389 842 b 354 878 389 865 376 878 l 284 878 b 277 885 279 878 277 880 l 277 913 b 241 947 277 934 264 947 l 150 947 b 115 912 128 947 115 934 l 115 885 b 107 878 115 880 112 878 l 66 878 b 30 842 43 878 30 865 l 30 795 b 66 760 30 773 43 760 z "},"ĳ":{"ha":758,"x_min":0,"x_max":0,"o":"m 150 0 l 259 0 b 294 35 282 0 294 13 l 294 668 b 259 703 294 691 282 703 l 150 703 b 115 668 128 703 115 691 l 115 35 b 150 0 115 13 128 0 z m 74 924 b 198 801 74 857 130 801 b 321 924 264 801 321 857 b 198 1048 321 991 264 1048 b 74 924 130 1048 74 991 z m 270 -264 b 404 -284 308 -275 356 -284 b 662 -28 566 -284 662 -199 l 662 668 b 626 703 662 691 649 703 l 518 703 b 482 668 495 703 482 691 l 482 -8 b 405 -131 482 -91 456 -131 b 312 -114 374 -131 340 -124 b 268 -138 289 -106 273 -115 l 247 -220 b 270 -264 242 -241 250 -258 z m 446 924 b 569 801 446 857 501 801 b 692 924 635 801 692 857 b 569 1048 692 991 635 1048 b 446 924 501 1048 446 991 z "},"ĸ":{"ha":758,"x_min":0,"x_max":0,"o":"m 145 0 l 254 0 b 289 35 277 0 289 13 l 289 212 b 293 221 289 216 290 217 l 360 298 b 371 297 364 303 369 302 l 524 24 b 566 0 533 8 547 0 l 691 0 b 716 43 718 0 730 18 l 491 437 b 491 447 489 441 489 443 l 681 660 b 662 703 701 683 692 703 l 548 703 b 504 683 530 703 515 697 l 298 444 b 289 447 294 439 289 441 l 289 668 b 254 703 289 691 277 703 l 145 703 b 110 668 122 703 110 691 l 110 35 b 145 0 110 13 122 0 z "},"ŀ":{"ha":758,"x_min":0,"x_max":0,"o":"m 120 0 l 636 0 b 672 35 659 0 672 13 l 672 110 b 636 145 672 133 659 145 l 473 145 b 466 153 468 145 466 148 l 466 912 b 431 947 466 934 453 947 l 140 947 b 105 912 117 947 105 934 l 105 837 b 140 802 105 814 117 802 l 279 802 b 287 794 284 802 287 798 l 287 153 b 279 145 287 148 284 145 l 120 145 b 85 110 97 145 85 133 l 85 35 b 120 0 85 13 97 0 z m 633 484 b 765 352 633 414 694 352 b 894 484 835 352 894 414 b 765 614 894 553 835 614 b 633 484 694 614 633 553 z "},"ł":{"ha":758,"x_min":0,"x_max":0,"o":"m 572 639 l 475 614 b 466 620 470 612 466 615 l 466 912 b 431 947 466 934 453 947 l 140 947 b 105 912 117 947 105 934 l 105 837 b 140 802 105 814 117 802 l 279 802 b 287 794 284 802 287 798 l 287 569 b 280 562 287 566 284 563 l 181 535 b 150 496 160 530 150 516 l 150 415 b 189 385 150 390 165 379 l 278 408 b 287 402 283 409 287 407 l 287 153 b 279 145 287 148 284 145 l 120 145 b 85 110 97 145 85 133 l 85 35 b 120 0 85 13 97 0 l 636 0 b 672 35 659 0 672 13 l 672 110 b 636 145 672 133 659 145 l 473 145 b 466 153 468 145 466 148 l 466 452 b 472 460 466 456 468 458 l 581 489 b 611 528 601 494 611 508 l 611 609 b 572 639 611 634 596 645 z "},"ŋ":{"ha":758,"x_min":0,"x_max":0,"o":"m 429 -287 b 667 -53 576 -287 667 -208 l 667 481 b 468 720 667 652 577 720 b 275 604 385 720 316 679 b 265 605 271 597 268 598 l 242 674 b 203 703 236 693 223 703 l 138 703 b 102 668 115 703 102 691 l 102 35 b 138 0 102 13 115 0 l 246 0 b 282 35 269 0 282 13 l 282 407 b 283 417 282 409 282 413 b 419 567 311 506 366 567 b 487 455 457 567 487 529 l 487 -40 b 414 -131 487 -97 461 -131 b 343 -124 391 -131 365 -129 b 301 -149 319 -119 306 -126 l 283 -227 b 307 -271 278 -249 287 -265 b 429 -287 340 -280 383 -287 z "},"œ":{"ha":758,"x_min":0,"x_max":0,"o":"m 241 109 b 317 352 288 109 317 203 b 241 596 317 503 288 596 b 173 352 201 596 173 503 b 241 109 173 203 201 109 z m 19 352 b 232 720 19 576 96 720 b 378 619 295 720 347 687 b 405 619 388 596 395 596 b 553 720 437 688 491 720 b 744 403 676 720 744 596 b 735 294 744 370 740 330 b 726 288 734 290 730 288 l 506 288 b 473 250 484 288 470 274 b 558 106 484 158 510 106 b 616 193 592 106 610 141 b 625 199 617 198 620 201 l 739 174 b 745 165 742 173 746 170 b 562 -16 718 35 650 -16 b 404 83 494 -16 436 15 b 378 83 394 106 388 106 b 232 -16 346 14 292 -16 b 19 352 96 -16 19 128 z m 505 399 l 571 399 b 606 432 593 399 606 432 b 544 597 604 527 582 597 b 470 437 503 597 477 530 b 505 399 468 413 482 399 z "},"ŧ":{"ha":758,"x_min":0,"x_max":0,"o":"m 612 458 l 389 458 b 381 466 384 458 381 461 l 381 549 b 389 557 381 554 385 557 l 612 557 b 648 592 635 557 648 569 l 648 668 b 612 703 648 691 635 703 l 389 703 b 381 711 384 703 381 706 l 381 840 b 346 875 381 862 369 875 l 239 875 b 203 840 216 875 203 862 l 203 711 b 196 703 203 706 201 703 l 95 703 b 59 668 72 703 59 691 l 59 592 b 95 557 59 569 72 557 l 196 557 b 203 549 201 557 203 554 l 203 466 b 196 458 203 461 201 458 l 95 458 b 59 423 72 458 59 446 l 59 347 b 95 312 59 324 72 312 l 196 312 b 203 304 201 312 203 308 l 203 234 b 452 -16 203 64 292 -16 b 653 32 534 -16 590 -3 b 667 80 672 43 676 59 l 629 160 b 581 172 619 183 601 186 b 470 134 544 146 508 134 b 381 253 413 134 381 181 l 381 304 b 389 312 381 309 385 312 l 612 312 b 648 347 635 312 648 324 l 648 423 b 612 458 648 446 635 458 z "},"ſ":{"ha":758,"x_min":0,"x_max":0,"o":"m 240 735 l 240 711 b 232 703 240 706 237 703 l 125 703 b 90 668 102 703 90 691 l 90 592 b 125 557 90 569 102 557 l 232 557 b 240 549 237 557 240 554 l 240 35 b 275 0 240 13 253 0 l 383 0 b 418 35 405 0 418 13 l 418 735 b 500 824 418 788 449 824 b 624 795 543 824 582 813 b 669 814 645 787 660 792 l 701 895 b 681 941 708 917 702 933 b 494 976 625 962 568 976 b 240 735 326 976 240 884 z "},"ȷ":{"ha":758,"x_min":0,"x_max":0,"o":"m 301 -255 b 595 10 479 -255 595 -163 l 595 668 b 559 703 595 691 582 703 l 193 703 b 158 668 170 703 158 691 l 158 592 b 193 557 158 569 170 557 l 408 557 b 415 549 413 557 415 554 l 415 30 b 294 -104 415 -62 370 -104 b 163 -78 250 -104 203 -93 b 117 -98 140 -69 124 -76 l 93 -178 b 114 -222 87 -198 93 -215 b 301 -255 165 -242 227 -255 z "},"_":{"ha":758,"x_min":0,"x_max":0,"o":"m 697 -44 l 61 -44 b 25 -80 38 -44 25 -57 l 25 -172 b 61 -207 25 -194 38 -207 l 697 -207 b 732 -172 720 -207 732 -194 l 732 -80 b 697 -44 732 -57 720 -44 z "},"-":{"ha":758,"x_min":0,"x_max":0,"o":"m 574 494 l 183 494 b 148 458 160 494 148 481 l 148 364 b 183 328 148 341 160 328 l 574 328 b 610 364 597 328 610 341 l 610 458 b 574 494 610 481 597 494 z "},"–":{"ha":758,"x_min":0,"x_max":0,"o":"m 610 490 l 148 490 b 112 455 125 490 112 477 l 112 367 b 148 332 112 345 125 332 l 610 332 b 645 367 633 332 645 345 l 645 455 b 610 490 645 477 633 490 z "},"—":{"ha":758,"x_min":0,"x_max":0,"o":"m 698 490 l 59 490 b 24 455 37 490 24 477 l 24 372 b 59 337 24 350 37 337 l 698 337 b 734 372 721 337 734 350 l 734 455 b 698 490 734 477 721 490 z "},"(":{"ha":758,"x_min":0,"x_max":0,"o":"m 216 412 b 448 -164 216 155 309 -13 b 495 -167 461 -178 477 -178 l 569 -120 b 578 -71 590 -107 593 -91 b 409 410 465 85 409 221 b 580 891 409 600 465 736 b 571 942 593 912 591 929 l 495 989 b 446 982 477 1000 460 997 b 216 412 307 835 216 665 z "},")":{"ha":758,"x_min":0,"x_max":0,"o":"m 542 409 b 309 985 542 665 448 833 b 263 987 297 999 280 999 l 188 941 b 179 891 168 928 164 912 b 348 410 293 736 348 600 b 178 -71 348 221 293 85 b 187 -121 164 -91 167 -109 l 263 -168 b 312 -162 280 -179 298 -177 b 542 409 451 -14 542 155 z "},"[":{"ha":758,"x_min":0,"x_max":0,"o":"m 249 -163 l 569 -163 b 605 -128 592 -163 605 -150 l 605 -44 b 569 -9 605 -21 592 -9 l 408 -9 b 400 -1 403 -9 400 -5 l 400 830 b 408 837 400 835 403 837 l 569 837 b 605 872 592 837 605 850 l 605 957 b 569 992 605 980 592 992 l 249 992 b 213 957 226 992 213 980 l 213 -128 b 249 -163 213 -150 226 -163 z "},"]":{"ha":758,"x_min":0,"x_max":0,"o":"m 509 991 l 188 991 b 153 956 165 991 153 979 l 153 872 b 188 837 153 850 165 837 l 350 837 b 357 830 355 837 357 833 l 357 -1 b 350 -9 357 -6 355 -9 l 188 -9 b 153 -44 165 -9 153 -21 l 153 -129 b 188 -164 153 -152 165 -164 l 509 -164 b 544 -129 532 -164 544 -152 l 544 956 b 509 991 544 979 532 991 z "},"{":{"ha":758,"x_min":0,"x_max":0,"o":"m 117 441 l 117 384 b 154 348 117 361 130 350 b 326 249 273 340 326 295 b 277 157 326 226 314 206 b 222 35 239 107 222 72 b 447 -163 222 -119 343 -163 l 602 -163 b 638 -128 625 -163 638 -150 l 638 -43 b 602 -8 638 -20 625 -8 l 505 -8 b 424 43 453 -8 424 13 b 479 136 424 64 444 91 b 529 249 515 186 529 222 b 354 412 529 323 470 385 b 354 418 346 413 346 415 b 530 576 476 449 530 508 b 470 705 530 607 519 643 b 424 787 443 741 424 770 b 505 837 424 819 453 837 l 602 837 b 638 872 625 837 638 850 l 638 957 b 602 992 638 980 625 992 l 447 992 b 222 794 341 992 222 953 b 273 677 222 761 237 723 b 326 580 306 633 326 604 b 153 479 326 535 274 494 b 117 441 129 475 117 462 z "},"}":{"ha":758,"x_min":0,"x_max":0,"o":"m 641 389 l 641 446 b 605 481 641 468 629 480 b 433 581 486 490 433 534 b 482 673 433 604 444 624 b 537 794 520 722 537 758 b 312 992 537 948 415 992 l 157 992 b 121 957 134 992 121 980 l 121 872 b 157 837 121 850 134 837 l 254 837 b 335 787 306 837 335 817 b 280 693 335 765 314 739 b 230 581 244 644 230 607 b 405 418 230 506 289 444 b 405 412 413 417 413 414 b 229 254 283 380 229 322 b 289 125 229 222 240 187 b 335 43 316 88 335 59 b 254 -8 335 10 306 -8 l 157 -8 b 121 -43 134 -8 121 -20 l 121 -128 b 157 -163 121 -150 134 -163 l 312 -163 b 537 35 418 -163 537 -124 b 486 153 537 68 521 106 b 433 250 453 197 433 226 b 606 351 433 294 485 336 b 641 389 630 355 641 367 z "},"#":{"ha":758,"x_min":0,"x_max":0,"o":"m 174 1 l 245 1 b 282 35 266 1 279 14 l 298 223 b 307 231 298 227 303 231 l 431 231 b 437 223 436 231 437 229 l 422 38 b 455 1 419 15 432 1 l 525 1 b 562 35 547 1 559 14 l 578 223 b 587 231 578 227 583 231 l 679 231 b 715 266 702 231 715 244 l 715 328 b 679 364 715 351 702 364 l 598 364 b 592 371 593 364 592 366 l 605 527 b 612 534 605 530 609 534 l 692 534 b 727 569 715 534 727 547 l 727 631 b 692 667 727 654 715 667 l 624 667 b 617 674 619 667 617 669 l 633 860 b 600 896 635 883 622 896 l 530 896 b 494 862 509 896 496 884 l 477 674 b 468 667 477 670 472 667 l 345 667 b 338 674 340 667 338 669 l 354 860 b 321 896 356 883 343 896 l 250 896 b 213 862 229 896 216 884 l 197 674 b 188 667 197 670 192 667 l 87 667 b 52 631 64 667 52 654 l 52 569 b 87 534 52 547 64 534 l 177 534 b 183 527 182 534 183 532 l 170 371 b 162 364 170 367 165 364 l 74 364 b 39 328 52 364 39 351 l 39 266 b 74 231 39 244 52 231 l 150 231 b 157 223 155 231 157 229 l 141 38 b 174 1 139 15 152 1 z m 312 371 l 326 527 b 333 534 326 530 330 534 l 457 534 b 463 527 462 534 463 532 l 451 371 b 442 364 451 367 446 364 l 318 364 b 312 371 313 364 312 366 z "},"%":{"ha":758,"x_min":0,"x_max":0,"o":"m 109 154 l 717 663 b 721 712 735 677 736 694 l 694 744 b 645 747 679 760 663 761 l 38 235 b 34 186 20 220 19 203 l 59 158 b 109 154 74 140 91 140 z m 27 711 b 218 510 27 590 105 510 b 413 711 336 510 413 590 b 218 910 413 831 336 910 b 27 711 105 910 27 831 z m 158 711 b 218 802 158 765 184 802 b 283 711 258 802 283 765 b 218 620 283 657 258 620 b 158 711 184 620 158 657 z m 348 188 b 540 -11 348 67 426 -11 b 735 188 658 -11 735 67 b 540 388 735 308 658 388 b 348 188 426 388 348 308 z m 479 188 b 540 279 479 244 505 279 b 605 188 578 279 605 244 b 540 98 605 134 578 98 b 479 188 505 98 479 134 z "},"'":{"ha":758,"x_min":0,"x_max":0,"o":"m 338 495 l 420 495 b 457 529 442 495 456 508 l 481 860 b 447 896 482 883 470 896 l 311 896 b 277 860 288 896 275 883 l 302 529 b 338 495 303 508 317 495 z "},"\"":{"ha":758,"x_min":0,"x_max":0,"o":"m 178 495 l 261 495 b 298 529 283 495 297 508 l 323 860 b 289 896 324 883 312 896 l 150 896 b 116 860 128 896 115 883 l 141 529 b 178 495 143 508 157 495 z m 434 860 l 460 529 b 496 495 461 508 475 495 l 580 495 b 616 529 601 495 615 508 l 641 860 b 607 896 643 883 630 896 l 468 896 b 434 860 446 896 433 883 z "},"‘":{"ha":758,"x_min":0,"x_max":0,"o":"m 529 843 l 505 885 b 456 899 494 905 476 909 b 242 583 295 819 242 718 b 370 442 242 496 290 442 b 494 552 443 442 494 487 b 396 650 494 600 465 643 b 389 659 391 652 389 654 b 513 795 393 703 429 754 b 529 843 535 806 540 823 z "},"’":{"ha":758,"x_min":0,"x_max":0,"o":"m 245 511 l 270 470 b 319 456 282 451 299 446 b 532 771 479 535 532 638 b 404 913 532 860 484 913 b 280 803 331 913 280 867 b 378 706 280 755 311 712 b 385 697 383 705 385 702 b 261 559 381 652 346 601 b 245 511 240 549 232 533 z "},"“":{"ha":758,"x_min":0,"x_max":0,"o":"m 362 843 l 337 885 b 288 899 326 904 308 909 b 76 583 129 819 76 718 b 203 442 76 496 124 442 b 327 552 277 442 327 487 b 230 650 327 600 297 643 b 222 659 225 652 222 654 b 346 795 226 703 263 754 b 362 843 367 806 375 822 z m 415 583 b 543 442 415 496 463 442 b 667 552 616 442 667 487 b 569 650 667 600 638 643 b 562 659 564 652 562 654 b 686 795 566 703 602 754 b 702 843 708 806 713 823 l 678 885 b 629 899 667 905 649 909 b 415 583 468 819 415 718 z "},"”":{"ha":758,"x_min":0,"x_max":0,"o":"m 415 511 l 439 470 b 489 456 451 449 468 446 b 702 771 649 535 702 638 b 574 913 702 860 654 913 b 451 803 501 913 451 867 b 547 706 451 755 480 712 b 554 697 552 705 554 702 b 432 559 551 652 515 601 b 415 511 409 549 404 532 z m 76 511 l 100 470 b 149 456 111 449 129 446 b 362 771 309 535 362 638 b 235 913 362 860 313 913 b 110 803 160 913 110 867 b 207 706 110 755 140 712 b 215 697 212 705 215 702 b 92 559 211 652 176 601 b 76 511 69 549 64 532 z "},"‚":{"ha":758,"x_min":0,"x_max":0,"o":"m 245 -120 l 270 -162 b 319 -176 282 -181 299 -186 b 532 140 479 -96 532 6 b 404 282 532 227 484 282 b 280 172 331 282 280 236 b 378 73 280 124 311 81 b 385 66 383 73 385 71 b 261 -72 381 20 345 -30 b 245 -120 240 -82 232 -98 z "},"„":{"ha":758,"x_min":0,"x_max":0,"o":"m 77 -120 l 102 -162 b 152 -176 114 -181 131 -186 b 364 140 311 -96 364 6 b 236 282 364 227 316 282 b 112 172 163 282 112 236 b 210 73 112 124 143 81 b 217 66 215 73 217 71 b 93 -72 213 20 177 -30 b 77 -120 72 -82 64 -98 z m 400 -120 l 424 -162 b 473 -176 436 -182 453 -186 b 687 140 634 -96 687 6 b 559 282 687 227 638 282 b 436 172 486 282 436 236 b 532 73 436 124 465 81 b 539 66 537 73 539 71 b 417 -72 535 20 500 -30 b 400 -120 394 -82 389 -100 z "},"‹":{"ha":758,"x_min":0,"x_max":0,"o":"m 414 53 l 543 53 b 563 96 573 53 582 73 l 362 346 b 362 356 360 350 360 352 l 563 610 b 542 653 582 633 571 653 l 415 653 b 372 631 396 653 384 646 l 184 378 b 184 327 172 360 172 345 l 371 74 b 414 53 383 59 395 53 z "},"›":{"ha":758,"x_min":0,"x_max":0,"o":"m 343 653 l 215 653 b 194 610 184 653 176 633 l 395 360 b 395 350 398 356 398 354 l 194 96 b 216 53 176 73 187 53 l 342 53 b 385 74 361 53 374 59 l 573 328 b 573 379 586 346 586 361 l 386 631 b 343 653 375 646 362 653 z "},"«":{"ha":758,"x_min":0,"x_max":0,"o":"m 539 53 l 652 53 b 677 95 679 53 689 71 l 538 347 b 538 357 537 351 537 354 l 676 611 b 650 653 688 635 678 653 l 542 653 b 500 628 523 653 509 645 l 369 376 b 369 328 360 359 360 346 l 497 78 b 539 53 506 61 520 53 z m 62 328 l 191 78 b 232 53 199 61 213 53 l 346 53 b 371 95 374 53 384 71 l 232 347 b 232 357 231 351 231 354 l 370 611 b 345 653 383 635 372 653 l 235 653 b 193 628 216 653 202 645 l 62 376 b 62 328 53 359 53 346 z "},"»":{"ha":758,"x_min":0,"x_max":0,"o":"m 218 653 l 106 653 b 81 611 78 653 68 635 l 220 359 b 220 348 221 355 221 352 l 82 95 b 107 53 69 71 80 53 l 216 53 b 258 78 235 53 249 61 l 389 330 b 389 378 398 347 398 360 l 260 628 b 218 653 251 645 237 653 z m 386 611 l 525 359 b 525 348 527 355 527 352 l 388 95 b 413 53 375 71 385 53 l 523 53 b 564 78 542 53 556 61 l 696 330 b 696 378 705 347 705 360 l 567 628 b 525 653 558 645 544 653 l 412 653 b 386 611 384 653 374 635 z "},"*":{"ha":758,"x_min":0,"x_max":0,"o":"m 77 561 l 260 521 b 263 511 265 520 266 515 l 131 364 b 136 314 116 346 117 328 l 227 247 b 277 258 246 234 265 237 l 378 431 b 388 431 380 436 385 436 l 487 258 b 537 247 499 237 518 234 l 629 314 b 634 364 648 328 649 346 l 501 513 b 505 523 497 516 500 521 l 687 562 b 712 605 710 567 720 582 l 677 712 b 631 732 669 735 653 742 l 461 655 b 452 662 456 653 452 657 l 471 861 b 438 898 473 884 461 898 l 324 898 b 292 861 302 898 289 884 l 311 662 b 302 655 311 657 307 653 l 133 731 b 87 711 111 741 95 734 l 52 604 b 77 561 44 581 54 566 z "},"†":{"ha":758,"x_min":0,"x_max":0,"o":"m 558 749 l 470 749 b 462 756 465 749 462 753 l 462 861 b 427 896 462 884 449 896 l 332 896 b 297 861 309 896 297 884 l 297 756 b 289 749 297 751 293 749 l 199 749 b 164 713 177 749 164 736 l 164 658 b 199 622 164 635 177 622 l 290 622 b 298 615 294 622 298 619 l 316 298 b 351 264 317 277 330 264 l 408 264 b 443 298 429 264 442 277 l 461 615 b 468 622 461 619 465 622 l 558 622 b 593 658 581 622 593 635 l 593 713 b 558 749 593 736 581 749 z "},"‡":{"ha":758,"x_min":0,"x_max":0,"o":"m 351 264 l 408 264 b 443 298 429 264 442 277 l 451 437 b 458 444 451 441 455 444 l 558 444 b 593 480 581 444 593 457 l 593 524 b 558 559 593 547 581 559 l 465 559 b 457 567 460 559 457 562 l 462 648 b 470 655 462 652 466 655 l 558 655 b 593 691 581 655 593 668 l 593 735 b 558 770 593 758 581 770 l 470 770 b 462 778 465 770 462 773 l 462 861 b 427 896 462 884 449 896 l 332 896 b 297 861 309 896 297 884 l 297 778 b 289 770 297 773 293 770 l 199 770 b 164 735 177 770 164 758 l 164 691 b 199 655 164 668 177 655 l 289 655 b 297 648 293 655 297 652 l 302 567 b 294 559 302 562 299 559 l 199 559 b 164 524 177 559 164 547 l 164 480 b 199 444 164 457 177 444 l 301 444 b 308 437 304 444 308 441 l 316 298 b 351 264 317 277 330 264 z "},".":{"ha":758,"x_min":0,"x_max":0,"o":"m 380 -16 b 509 115 449 -16 509 44 b 380 242 509 183 449 242 b 249 115 309 242 249 183 b 380 -16 249 44 309 -16 z "},",":{"ha":758,"x_min":0,"x_max":0,"o":"m 212 -178 l 240 -225 b 289 -240 251 -244 269 -250 b 514 93 458 -155 514 -48 b 380 242 514 186 463 242 b 250 126 303 242 250 194 b 352 24 250 76 282 30 b 360 15 357 23 360 20 b 229 -130 356 -33 317 -86 b 212 -178 207 -140 201 -158 z "},":":{"ha":758,"x_min":0,"x_max":0,"o":"m 380 461 b 509 592 449 461 509 521 b 380 720 509 660 449 720 b 249 592 309 720 249 660 b 380 461 249 521 309 461 z m 249 115 b 380 -16 249 44 309 -16 b 509 115 449 -16 509 44 b 380 242 509 183 449 242 b 249 115 309 242 249 183 z "},";":{"ha":758,"x_min":0,"x_max":0,"o":"m 380 461 b 509 592 449 461 509 521 b 380 720 509 660 449 720 b 249 592 309 720 249 660 b 380 461 249 521 309 461 z m 212 -178 l 240 -225 b 289 -240 251 -244 269 -250 b 514 93 458 -155 514 -48 b 380 242 514 186 463 242 b 250 126 303 242 250 194 b 352 24 250 76 282 30 b 360 15 357 23 360 20 b 229 -130 356 -33 317 -86 b 212 -178 207 -140 201 -158 z "},"…":{"ha":758,"x_min":0,"x_max":0,"o":"m 128 -6 b 226 114 179 -6 226 49 b 128 232 226 177 179 232 b 30 114 76 232 30 177 b 128 -6 30 49 76 -6 z m 280 114 b 379 -6 280 49 326 -6 b 476 114 429 -6 476 49 b 379 232 476 177 429 232 b 280 114 326 232 280 177 z m 533 114 b 630 -6 533 49 578 -6 b 727 114 682 -6 727 49 b 630 232 727 177 682 232 b 533 114 578 232 533 177 z "},"!":{"ha":758,"x_min":0,"x_max":0,"o":"m 341 341 l 419 341 b 456 375 441 341 455 354 l 475 612 l 475 861 b 439 896 475 884 462 896 l 321 896 b 285 861 298 896 285 884 l 285 612 l 304 375 b 341 341 306 354 319 341 z m 254 109 b 379 -16 254 42 312 -16 b 503 109 444 -16 503 42 b 379 232 503 174 444 232 b 254 109 312 232 254 174 z "},"¡":{"ha":758,"x_min":0,"x_max":0,"o":"m 304 328 l 285 91 l 285 -158 b 321 -193 285 -181 298 -193 l 439 -193 b 475 -158 462 -193 475 -181 l 475 91 l 456 328 b 419 362 455 350 441 362 l 341 362 b 304 328 319 362 306 350 z m 254 595 b 379 471 254 529 312 471 b 503 595 444 471 503 529 b 379 720 503 662 444 720 b 254 595 312 720 254 662 z "},"?":{"ha":758,"x_min":0,"x_max":0,"o":"m 282 328 l 375 333 b 407 371 398 335 409 347 l 407 389 b 485 475 407 419 415 443 b 654 686 583 518 654 566 b 393 913 654 824 564 913 b 146 851 304 913 221 893 b 134 803 128 840 124 822 l 181 717 b 230 706 192 697 210 692 b 390 769 293 750 343 769 b 471 688 441 769 471 735 b 395 586 471 643 457 614 b 229 412 265 530 229 494 b 240 355 229 391 232 372 b 282 328 246 335 261 327 z m 210 109 b 335 -16 210 42 268 -16 b 458 109 400 -16 458 42 b 335 232 458 174 400 232 b 210 109 268 232 210 174 z "},"¿":{"ha":758,"x_min":0,"x_max":0,"o":"m 476 375 l 383 370 b 351 332 360 369 348 356 l 351 314 b 273 229 351 284 342 260 b 104 18 174 186 104 138 b 365 -210 104 -121 193 -210 b 611 -148 453 -210 537 -189 b 624 -100 630 -136 634 -119 l 577 -14 b 528 -3 566 6 548 11 b 367 -66 465 -47 414 -66 b 287 15 317 -66 287 -32 b 362 117 287 61 301 90 b 529 292 492 173 529 210 b 518 348 529 312 525 331 b 476 375 511 369 496 376 z m 299 595 b 423 471 299 529 357 471 b 548 595 490 471 548 529 b 423 720 548 662 490 720 b 299 595 357 720 299 662 z "},"/":{"ha":758,"x_min":0,"x_max":0,"o":"m 187 -239 l 287 -237 b 326 -207 307 -237 321 -229 l 604 960 b 572 999 610 985 596 999 l 472 997 b 433 967 452 997 438 989 l 155 -199 b 187 -239 149 -225 163 -239 z "},"\\":{"ha":758,"x_min":0,"x_max":0,"o":"m 471 -237 l 572 -237 b 604 -198 596 -237 609 -222 l 326 968 b 287 999 321 990 307 999 l 187 999 b 155 960 163 999 150 984 l 432 -207 b 471 -237 437 -229 451 -237 z "},"⁄":{"ha":758,"x_min":0,"x_max":0,"o":"m 68 0 l 165 0 b 207 24 184 0 197 8 l 713 854 b 689 896 729 879 717 896 l 593 896 b 552 872 574 896 562 889 l 45 43 b 68 0 30 18 40 0 z "},"|":{"ha":758,"x_min":0,"x_max":0,"o":"m 319 -237 l 438 -237 b 473 -202 461 -237 473 -225 l 473 963 b 438 999 473 986 461 999 l 319 999 b 284 963 297 999 284 986 l 284 -202 b 319 -237 284 -225 297 -237 z "},"¦":{"ha":758,"x_min":0,"x_max":0,"o":"m 473 532 l 473 957 b 438 992 473 980 461 992 l 319 992 b 284 957 297 992 284 980 l 284 532 b 319 496 284 509 297 496 l 438 496 b 473 532 461 496 473 509 z m 319 -163 l 438 -163 b 473 -128 461 -163 473 -150 l 473 319 b 438 355 473 342 461 355 l 319 355 b 284 319 297 355 284 342 l 284 -128 b 319 -163 284 -150 297 -163 z "},"@":{"ha":758,"x_min":0,"x_max":0,"o":"m 449 -183 b 670 -128 530 -183 602 -163 b 687 -81 689 -119 696 -102 l 665 -32 b 617 -15 657 -9 639 -4 b 449 -57 563 -44 508 -57 b 186 355 361 -57 186 -37 b 412 735 186 621 283 735 b 563 576 468 735 535 708 b 558 573 564 569 562 568 b 476 602 537 593 510 602 b 287 335 371 602 287 514 b 494 71 287 141 376 71 b 723 400 648 71 723 164 b 409 860 723 751 582 860 b 39 356 215 860 39 710 b 449 -183 39 -136 303 -183 z m 436 335 b 492 491 436 438 457 491 b 574 436 520 491 551 481 b 577 426 577 432 577 428 l 577 426 b 497 182 577 231 553 182 b 436 335 458 182 436 240 z "},"&":{"ha":758,"x_min":0,"x_max":0,"o":"m 686 16 l 742 93 b 736 143 755 111 754 129 l 645 217 b 643 227 643 220 641 223 b 699 412 664 279 683 338 b 672 453 705 434 694 449 l 586 467 b 545 438 564 471 549 460 b 519 336 538 399 529 365 b 509 333 518 331 514 330 b 402 434 467 370 432 404 b 403 446 398 438 398 442 b 558 688 514 519 558 593 b 321 913 558 842 452 913 b 71 687 187 913 71 838 b 165 451 71 607 101 534 b 164 439 169 447 168 443 b 33 215 87 383 33 317 b 306 -16 33 48 170 -16 b 547 77 394 -16 476 6 b 557 77 551 81 553 81 l 636 11 b 686 16 654 -4 672 -3 z m 206 227 b 251 342 206 278 223 312 b 261 342 255 346 258 346 b 432 184 309 294 365 242 b 433 174 436 181 437 177 b 317 121 395 136 355 121 b 206 227 251 121 206 163 z m 244 687 b 318 782 244 745 271 782 b 385 682 369 782 385 740 b 321 535 385 628 376 578 b 309 537 317 532 313 533 b 244 687 263 597 244 645 z "},"§":{"ha":758,"x_min":0,"x_max":0,"o":"m 384 -186 b 688 61 611 -186 688 -64 b 595 231 688 145 649 198 b 596 241 590 234 590 239 b 691 393 663 277 691 331 b 423 615 691 547 544 588 b 285 698 341 633 285 649 b 389 778 285 744 324 778 b 503 701 441 778 473 761 b 548 679 513 681 528 673 l 649 710 b 672 755 672 717 681 734 b 391 913 625 860 534 913 b 115 687 192 913 115 797 b 206 514 115 600 153 548 b 205 504 211 511 211 508 b 98 347 129 467 98 409 b 355 139 98 198 227 165 b 520 43 443 122 520 107 b 384 -51 520 -20 473 -51 b 246 39 318 -51 273 -19 b 201 61 236 61 222 67 l 106 30 b 83 -14 85 23 74 8 b 384 -186 126 -121 230 -186 z m 264 371 b 348 458 264 407 293 437 b 361 461 354 461 357 462 b 529 367 457 442 529 428 b 429 290 529 327 496 302 b 419 290 426 289 423 289 b 264 371 318 311 264 327 z "},"¶":{"ha":758,"x_min":0,"x_max":0,"o":"m 82 615 b 332 335 82 433 170 345 b 367 369 355 333 367 346 l 367 742 b 375 750 367 747 371 750 l 465 750 b 472 742 470 750 472 746 l 472 35 b 508 0 472 13 485 0 l 607 0 b 643 35 630 0 643 13 l 643 861 b 607 896 643 884 630 896 l 340 896 b 82 615 173 896 82 809 z "},"·":{"ha":758,"x_min":0,"x_max":0,"o":"m 381 307 b 510 438 451 307 510 369 b 381 568 510 508 451 568 b 249 438 311 568 249 508 b 381 307 249 369 311 307 z "},"•":{"ha":758,"x_min":0,"x_max":0,"o":"m 381 274 b 549 442 471 274 549 350 b 381 610 549 533 471 610 b 212 442 289 610 212 533 b 381 274 212 350 289 274 z "},"+":{"ha":758,"x_min":0,"x_max":0,"o":"m 468 198 l 468 360 b 476 367 468 365 471 367 l 626 367 b 662 403 649 367 662 380 l 662 489 b 626 524 662 511 649 524 l 476 524 b 468 532 471 524 468 528 l 468 692 b 433 727 468 715 456 727 l 324 727 b 289 692 302 727 289 715 l 289 532 b 282 524 289 527 287 524 l 130 524 b 95 489 107 524 95 511 l 95 403 b 130 367 95 380 107 367 l 282 367 b 289 360 287 367 289 365 l 289 198 b 324 163 289 176 302 163 l 433 163 b 468 198 456 163 468 176 z "},"−":{"ha":758,"x_min":0,"x_max":0,"o":"m 634 524 l 124 524 b 88 489 101 524 88 511 l 88 396 b 124 361 88 374 101 361 l 634 361 b 669 396 657 361 669 374 l 669 489 b 634 524 669 511 657 524 z "},"±":{"ha":758,"x_min":0,"x_max":0,"o":"m 468 375 l 468 516 b 476 524 468 521 471 524 l 626 524 b 662 559 649 524 662 537 l 662 643 b 626 678 662 665 649 678 l 476 678 b 468 686 471 678 468 681 l 468 826 b 433 861 468 848 456 861 l 324 861 b 289 826 302 861 289 848 l 289 686 b 282 678 289 681 287 678 l 130 678 b 95 643 107 678 95 665 l 95 559 b 130 524 95 537 107 524 l 282 524 b 289 516 287 524 289 520 l 289 375 b 324 340 289 352 302 340 l 433 340 b 468 375 456 340 468 352 z m 130 97 l 626 97 b 662 133 649 97 662 110 l 662 217 b 626 253 662 240 649 253 l 130 253 b 95 217 107 253 95 240 l 95 133 b 130 97 95 110 107 97 z "},"÷":{"ha":758,"x_min":0,"x_max":0,"o":"m 379 62 b 497 181 442 62 497 116 b 379 301 497 245 442 301 b 258 181 313 301 258 245 b 379 62 258 116 313 62 z m 100 361 l 657 361 b 692 396 679 361 692 374 l 692 481 b 657 516 692 504 679 516 l 100 516 b 64 481 77 516 64 504 l 64 396 b 100 361 64 374 77 361 z m 258 691 b 379 572 258 626 313 572 b 497 691 442 572 497 626 b 379 809 497 755 442 809 b 258 691 313 809 258 755 z "},"×":{"ha":758,"x_min":0,"x_max":0,"o":"m 561 159 l 619 217 b 619 268 635 234 635 251 l 489 396 b 489 407 486 399 486 404 l 619 537 b 619 587 635 553 635 571 l 567 639 b 516 639 551 655 533 655 l 386 509 b 376 509 384 506 379 506 l 246 639 b 196 639 230 655 212 655 l 139 581 b 139 530 122 564 122 547 l 269 402 b 269 391 271 399 271 394 l 139 261 b 139 211 122 245 124 227 l 189 159 b 240 159 206 143 223 143 l 370 289 b 380 289 372 292 378 292 l 510 159 b 561 159 527 143 544 143 z "},"=":{"ha":758,"x_min":0,"x_max":0,"o":"m 628 673 l 130 673 b 95 638 107 673 95 660 l 95 552 b 130 516 95 529 107 516 l 628 516 b 663 552 650 516 663 529 l 663 638 b 628 673 663 660 650 673 z m 130 217 l 628 217 b 663 253 650 217 663 230 l 663 338 b 628 374 663 361 650 374 l 130 374 b 95 338 107 374 95 361 l 95 253 b 130 217 95 230 107 217 z "},"<":{"ha":758,"x_min":0,"x_max":0,"o":"m 77 465 l 77 364 b 97 321 77 346 82 332 b 231 226 134 290 181 258 l 586 4 b 629 28 610 -11 629 0 l 629 160 b 605 202 629 179 621 192 l 255 414 b 255 424 250 418 250 420 l 605 631 b 629 673 621 641 629 654 l 629 803 b 586 827 629 831 610 842 l 235 607 b 95 508 182 574 134 543 b 77 465 82 495 77 482 z "},">":{"ha":758,"x_min":0,"x_max":0,"o":"m 681 366 l 681 467 b 660 510 681 485 676 499 b 527 605 624 540 577 573 l 172 827 b 129 803 148 842 129 831 l 129 670 b 153 629 129 652 136 639 l 503 417 b 503 407 508 413 508 410 l 153 199 b 129 158 136 189 129 177 l 129 28 b 172 4 129 0 148 -11 l 523 223 b 663 323 576 256 624 288 b 681 366 676 336 681 348 z "},"¬":{"ha":758,"x_min":0,"x_max":0,"o":"m 654 246 l 654 545 b 619 581 654 568 641 581 l 139 581 b 104 545 116 581 104 568 l 104 458 b 139 423 104 436 116 423 l 465 423 b 472 415 470 423 472 420 l 472 246 b 508 211 472 223 485 211 l 619 211 b 654 246 641 211 654 223 z "},"$":{"ha":758,"x_min":0,"x_max":0,"o":"m 549 270 b 463 189 549 227 523 201 b 451 196 456 187 451 191 l 451 348 b 460 354 451 354 455 356 b 549 270 518 332 549 309 z m 110 107 b 332 47 164 80 250 53 b 342 38 338 45 342 42 l 342 -57 b 378 -92 342 -80 355 -92 l 415 -92 b 451 -57 438 -92 451 -80 l 451 42 b 458 51 451 45 453 49 b 708 290 635 74 708 176 b 457 525 708 431 593 482 b 451 534 453 527 451 530 l 451 702 b 458 710 451 707 453 711 b 583 664 501 702 540 687 b 630 682 605 653 622 659 l 658 756 b 638 802 665 777 659 793 b 458 847 585 823 528 841 b 451 856 453 848 451 852 l 451 944 b 415 980 451 967 438 980 l 378 980 b 342 944 355 980 342 967 l 342 859 b 335 851 342 855 340 851 b 83 635 160 837 83 745 b 336 393 83 489 188 437 b 342 384 340 390 342 388 l 342 192 b 335 186 342 187 340 184 b 164 244 277 194 211 218 b 117 227 143 256 125 251 l 92 153 b 110 107 86 133 91 116 z m 244 645 b 328 715 244 681 269 706 b 342 708 337 716 342 713 l 342 571 b 333 564 342 566 338 563 b 244 645 273 586 244 606 z "},"¢":{"ha":758,"x_min":0,"x_max":0,"o":"m 577 557 l 678 590 b 699 635 699 597 710 614 b 460 806 659 721 580 789 b 452 814 455 807 452 811 l 452 944 b 417 980 452 967 439 980 l 379 980 b 343 944 356 980 343 967 l 343 813 b 337 804 343 809 341 806 b 63 448 169 775 63 641 b 337 91 63 255 169 120 b 343 82 341 90 343 86 l 343 -57 b 379 -92 343 -80 356 -92 l 417 -92 b 452 -57 439 -92 452 -80 l 452 81 b 460 90 452 85 455 88 b 699 244 561 102 646 153 b 682 290 712 265 705 282 l 581 327 b 534 307 561 335 545 327 b 461 237 515 269 491 247 b 452 244 456 236 452 239 l 452 650 b 461 657 452 655 456 659 b 532 580 491 643 515 617 b 577 557 542 558 556 549 z m 239 448 b 337 653 239 548 277 622 b 343 645 341 654 343 650 l 343 251 b 335 245 343 246 340 242 b 239 448 275 277 239 350 z "},"£":{"ha":758,"x_min":0,"x_max":0,"o":"m 119 374 l 199 374 b 208 366 203 374 207 371 b 211 323 210 351 211 336 b 112 141 211 227 164 182 b 91 98 97 130 91 117 l 91 35 b 126 0 91 13 104 0 l 643 0 b 678 35 665 0 678 13 l 678 115 b 643 150 678 138 665 150 l 328 150 b 326 159 322 150 319 154 b 403 327 364 188 403 245 b 400 366 403 340 402 352 b 408 374 400 371 403 374 l 591 374 b 626 409 614 374 626 386 l 626 485 b 591 520 626 508 614 520 l 366 520 b 357 527 362 520 359 523 b 333 663 340 585 333 629 b 426 760 333 747 380 760 b 518 705 457 760 487 746 b 567 693 532 686 548 681 l 658 751 b 665 801 677 764 681 783 b 418 913 604 876 528 913 b 145 670 283 913 145 867 b 165 529 145 631 152 583 b 159 520 167 524 164 520 l 119 520 b 83 485 96 520 83 508 l 83 409 b 119 374 83 386 96 374 z "},"¤":{"ha":758,"x_min":0,"x_max":0,"o":"m 379 239 b 449 249 403 239 428 242 b 458 245 453 250 456 247 l 535 152 b 586 146 549 134 568 131 l 648 197 b 653 246 665 211 668 229 l 574 332 b 574 342 572 336 572 338 b 601 451 591 374 601 410 b 573 558 601 491 591 527 b 574 568 571 562 572 564 l 653 655 b 649 705 668 673 667 689 l 586 755 b 535 750 568 770 549 768 l 457 655 b 447 652 455 653 452 650 b 379 660 426 658 403 660 b 311 652 355 660 331 658 b 301 655 306 650 303 653 l 222 749 b 172 754 208 766 189 768 l 109 701 b 105 652 91 686 90 669 l 179 568 b 181 558 182 564 183 562 b 153 451 163 527 153 491 b 182 341 153 409 163 372 b 181 331 184 337 183 335 l 105 246 b 109 197 90 229 91 212 l 172 146 b 222 153 189 131 208 135 l 298 245 b 308 249 301 247 303 250 b 379 239 331 242 355 239 z m 278 451 b 379 553 278 509 324 553 b 477 451 434 553 477 508 b 379 348 477 396 434 348 b 278 451 324 348 278 395 z "},"¥":{"ha":758,"x_min":0,"x_max":0,"o":"m 655 302 l 489 302 b 481 308 484 302 481 304 b 484 318 481 311 482 316 l 513 384 b 521 390 514 388 518 390 l 655 390 b 691 426 678 390 691 403 l 691 475 b 655 510 691 497 678 510 l 578 510 b 572 519 573 510 569 513 l 721 855 b 693 896 731 879 720 896 l 585 896 b 544 869 564 896 552 886 l 393 506 b 383 505 390 500 385 499 l 227 870 b 187 896 220 888 207 896 l 67 896 b 42 855 40 896 30 880 l 199 519 b 193 510 202 513 198 510 l 122 510 b 87 475 100 510 87 497 l 87 426 b 122 390 87 403 100 390 l 253 390 b 261 385 256 390 260 389 l 295 313 b 298 306 297 311 298 307 b 290 302 298 304 295 302 l 122 302 b 87 266 100 302 87 289 l 87 216 b 122 181 87 193 100 181 l 290 181 b 298 173 295 181 298 177 l 298 35 b 333 0 298 13 311 0 l 446 0 b 481 35 468 0 481 13 l 481 173 b 489 181 481 178 484 181 l 655 181 b 691 216 678 181 691 193 l 691 266 b 655 302 691 289 678 302 z "},"ƒ":{"ha":758,"x_min":0,"x_max":0,"o":"m 639 489 l 453 489 b 446 496 448 489 446 491 l 458 698 b 533 811 462 771 482 811 b 620 790 563 811 592 803 b 667 807 641 780 658 784 l 701 889 b 682 934 710 910 703 927 b 509 966 630 953 573 966 b 282 734 360 966 290 885 l 266 496 b 259 489 266 492 263 489 l 152 489 b 116 453 129 489 116 476 l 116 374 b 152 338 116 351 129 338 l 250 338 b 258 331 255 338 258 336 l 236 -23 b 160 -133 231 -97 208 -133 b 85 -116 134 -133 107 -126 b 38 -133 63 -106 47 -110 l 5 -213 b 23 -260 -3 -234 3 -251 b 183 -288 62 -277 117 -288 b 414 -62 342 -288 405 -197 l 437 331 b 444 338 437 335 441 338 l 639 338 b 674 374 662 338 674 351 l 674 453 b 639 489 674 476 662 489 z "},"^":{"ha":758,"x_min":0,"x_max":0,"o":"m 533 246 l 634 246 b 658 288 662 246 672 263 l 509 552 b 437 660 485 595 457 633 b 394 683 427 677 413 683 l 364 683 b 322 662 345 683 332 677 b 253 553 302 634 277 597 l 101 289 b 126 246 87 264 98 246 l 226 246 b 268 271 245 246 259 254 l 374 475 b 384 475 376 481 381 481 l 491 271 b 533 246 500 255 514 246 z "},"~":{"ha":758,"x_min":0,"x_max":0,"o":"m 126 403 l 189 403 b 226 439 211 403 222 415 b 274 495 232 484 251 495 b 495 398 324 495 394 398 b 673 597 600 398 662 449 b 638 635 674 621 660 635 l 574 635 b 538 598 553 635 542 622 b 492 540 533 552 514 540 b 268 640 444 540 376 640 b 92 441 168 640 104 585 b 126 403 90 417 104 403 z "},"`":{"ha":758,"x_min":0,"x_max":0,"o":"m 567 557 l 434 870 b 394 896 427 888 414 896 l 221 896 b 197 855 193 896 183 880 l 372 540 b 414 515 381 524 395 515 l 540 515 b 567 557 567 515 577 533 z "},"©":{"ha":758,"x_min":0,"x_max":0,"o":"m 378 86 b 134 449 232 86 134 231 b 378 812 134 667 232 812 b 624 449 525 812 624 667 b 378 86 624 231 525 86 z m 20 449 b 378 -16 20 168 164 -16 b 737 449 593 -16 737 168 b 378 913 737 729 593 913 b 20 449 164 913 20 729 z m 213 449 b 386 191 213 290 282 191 b 539 332 460 191 514 236 b 510 372 545 355 533 370 l 462 379 b 423 345 439 381 427 370 b 386 295 415 306 404 295 b 341 449 359 295 341 356 b 386 601 341 542 359 601 b 418 544 402 601 412 583 b 457 511 422 520 434 509 l 508 516 b 538 557 530 519 543 534 b 386 707 515 657 465 707 b 213 449 282 707 213 606 z "},"®":{"ha":758,"x_min":0,"x_max":0,"o":"m 378 268 b 659 591 540 268 659 372 b 378 913 659 809 540 913 b 97 591 216 913 97 809 b 378 268 97 372 216 268 z m 183 591 b 378 830 183 759 261 830 b 573 591 495 830 573 759 b 378 351 573 422 495 351 b 183 591 261 351 183 422 z m 299 437 l 319 437 b 355 472 342 437 355 449 l 355 525 b 362 533 355 530 357 533 l 375 533 b 384 527 379 533 383 532 l 407 465 b 447 437 413 446 427 437 l 466 437 b 495 477 491 437 504 452 l 467 549 b 470 559 466 554 466 557 b 503 644 491 577 503 606 b 378 751 503 717 458 751 l 299 751 b 264 716 277 751 264 739 l 264 472 b 299 437 264 449 277 437 z m 355 610 l 355 676 b 362 683 355 681 357 683 l 374 683 b 408 644 396 683 408 670 b 374 602 408 614 396 602 l 362 602 b 355 610 357 602 355 605 z "},"™":{"ha":758,"x_min":0,"x_max":0,"o":"m 525 544 b 549 571 534 544 543 552 b 562 602 554 582 558 593 l 604 713 b 612 712 606 721 612 718 l 612 540 b 648 505 612 518 625 505 l 681 505 b 716 540 703 505 716 518 l 716 861 b 681 896 716 884 703 896 l 629 896 b 588 871 610 896 596 889 b 580 848 585 864 582 856 l 532 722 b 521 722 529 715 524 715 l 473 851 l 465 874 b 424 896 457 890 443 896 l 370 896 b 335 861 347 896 335 884 l 335 540 b 370 505 335 518 347 505 l 400 505 b 436 540 423 505 436 518 l 436 712 b 444 713 436 718 442 721 l 486 604 b 500 569 490 592 495 580 b 525 544 508 552 516 544 z m 63 803 l 104 803 b 111 795 109 803 111 801 l 111 540 b 146 505 111 518 124 505 l 182 505 b 217 540 205 505 217 518 l 217 795 b 225 803 217 801 221 803 l 265 803 b 301 838 288 803 301 816 l 301 861 b 265 896 301 884 288 896 l 63 896 b 28 861 40 896 28 884 l 28 838 b 63 803 28 816 40 803 z "}}}
